{
    "patcher": {
        "fileversion": 1,
        "appversion": {
            "major": 9,
            "minor": 1,
            "revision": 0,
            "architecture": "x64",
            "modernui": 1
        },
        "classnamespace": "box",
        "rect": [ -1886.0, 87.0, 1049.0, 959.0 ],
        "openinpresentation": 1,
        "boxes": [
            {
                "box": {
                    "id": "obj-28",
                    "maxclass": "newobj",
                    "numinlets": 1,
                    "numoutlets": 1,
                    "outlettype": [ "int" ],
                    "patching_rect": [ 838.0, 206.0, 22.0, 22.0 ],
                    "text": "t 0"
                }
            },
            {
                "box": {
                    "id": "obj-27",
                    "maxclass": "newobj",
                    "numinlets": 2,
                    "numoutlets": 1,
                    "outlettype": [ "signal" ],
                    "patching_rect": [ 292.0, 69.0, 47.444794418578226, 22.0 ],
                    "text": "gate~"
                }
            },
            {
                "box": {
                    "id": "obj-26",
                    "maxclass": "newobj",
                    "numinlets": 1,
                    "numoutlets": 2,
                    "outlettype": [ "int", "int" ],
                    "patching_rect": [ 310.5, -27.0, 32.0, 22.0 ],
                    "text": "t 0 1"
                }
            },
            {
                "box": {
                    "id": "obj-16",
                    "maxclass": "newobj",
                    "numinlets": 3,
                    "numoutlets": 4,
                    "outlettype": [ "signal", "signal", "signal", "signal" ],
                    "patching_rect": [ 215.0, 289.0, 50.5, 22.0 ],
                    "text": "svf~ 90"
                }
            },
            {
                "box": {
                    "id": "obj-19",
                    "maxclass": "newobj",
                    "numinlets": 3,
                    "numoutlets": 4,
                    "outlettype": [ "signal", "signal", "signal", "signal" ],
                    "patching_rect": [ 215.0, 256.0, 68.0, 22.0 ],
                    "text": "svf~ 10000"
                }
            },
            {
                "box": {
                    "id": "obj-17",
                    "maxclass": "newobj",
                    "numinlets": 3,
                    "numoutlets": 4,
                    "outlettype": [ "signal", "signal", "signal", "signal" ],
                    "patching_rect": [ 19.0, 256.0, 68.0, 22.0 ],
                    "text": "svf~ 10000"
                }
            },
            {
                "box": {
                    "id": "obj-15",
                    "maxclass": "newobj",
                    "numinlets": 1,
                    "numoutlets": 1,
                    "outlettype": [ "int" ],
                    "patching_rect": [ 630.0, -51.0, 22.0, 22.0 ],
                    "text": "t 0"
                }
            },
            {
                "box": {
                    "id": "obj-14",
                    "maxclass": "newobj",
                    "numinlets": 3,
                    "numoutlets": 3,
                    "outlettype": [ "bang", "bang", "" ],
                    "patching_rect": [ 617.0, -79.0, 44.0, 22.0 ],
                    "text": "sel 0 1"
                }
            },
            {
                "box": {
                    "id": "obj-9",
                    "maxclass": "newobj",
                    "numinlets": 4,
                    "numoutlets": 2,
                    "outlettype": [ "signal", "signal" ],
                    "patching_rect": [ 19.0, 215.0, 166.0, 22.0 ],
                    "text": "abl.device.utility~ @dcblock 1"
                }
            },
            {
                "box": {
                    "id": "obj-31",
                    "maxclass": "newobj",
                    "numinlets": 4,
                    "numoutlets": 2,
                    "outlettype": [ "signal", "signal" ],
                    "patching_rect": [ 215.0, 215.0, 166.0, 22.0 ],
                    "text": "abl.device.utility~ @dcblock 1"
                }
            },
            {
                "box": {
                    "id": "obj-11",
                    "linecount": 4,
                    "maxclass": "comment",
                    "numinlets": 1,
                    "numoutlets": 0,
                    "patching_rect": [ 525.5, -214.0, 151.0, 60.0 ],
                    "text": "TODO:\nrefactor file playback to pull from the class training polybuffer saved files"
                }
            },
            {
                "box": {
                    "id": "obj-4",
                    "maxclass": "newobj",
                    "numinlets": 1,
                    "numoutlets": 1,
                    "outlettype": [ "" ],
                    "patching_rect": [ 129.0, -163.0, 70.0, 22.0 ],
                    "text": "loadmess 0"
                }
            },
            {
                "box": {
                    "id": "obj-13",
                    "maxclass": "newobj",
                    "numinlets": 2,
                    "numoutlets": 2,
                    "outlettype": [ "signal", "signal" ],
                    "patcher": {
                        "fileversion": 1,
                        "appversion": {
                            "major": 9,
                            "minor": 1,
                            "revision": 0,
                            "architecture": "x64",
                            "modernui": 1
                        },
                        "classnamespace": "box",
                        "rect": [ 0.0, 66.0, 490.0, 890.0 ],
                        "openinpresentation": 1,
                        "toolbarvisible": 0,
                        "boxes": [
                            {
                                "box": {
                                    "id": "obj-10",
                                    "maxclass": "message",
                                    "numinlets": 2,
                                    "numoutlets": 1,
                                    "outlettype": [ "" ],
                                    "patching_rect": [ -444.0, 534.0, 50.0, 22.0 ],
                                    "presentation": 1,
                                    "presentation_rect": [ -14.0, 0.0, 50.0, 22.0 ]
                                }
                            },
                            {
                                "box": {
                                    "attr": "speed",
                                    "id": "obj-2",
                                    "maxclass": "attrui",
                                    "numinlets": 1,
                                    "numoutlets": 1,
                                    "outlettype": [ "" ],
                                    "parameter_enable": 0,
                                    "patching_rect": [ 174.0, 50.0, 150.0, 22.0 ],
                                    "presentation": 1,
                                    "presentation_rect": [ 213.0, 246.0, 184.0, 22.0 ]
                                }
                            },
                            {
                                "box": {
                                    "clipheight": 83.0,
                                    "data": {
                                        "clips": [
                                            {
                                                "absolutepath": "Macintosh HD:/Users/jamesstaub/Downloads/cello-schertler-dpa-timbres.wav",
                                                "filename": "cello-schertler-dpa-timbres.wav",
                                                "filekind": "audiofile",
                                                "id": "u906014118",
                                                "selection": [ 0.09677419354838694, 0.12741935483870967 ],
                                                "loop": 1,
                                                "content_state": {
                                                    "loop": 1
                                                }
                                            }
                                        ]
                                    },
                                    "id": "obj-7",
                                    "maxclass": "playlist~",
                                    "mode": "basic",
                                    "numinlets": 1,
                                    "numoutlets": 5,
                                    "outlettype": [ "signal", "signal", "signal", "", "dictionary" ],
                                    "parameter_enable": 0,
                                    "patching_rect": [ 816.0, 88.0, 643.0, 84.0 ],
                                    "presentation": 1,
                                    "presentation_rect": [ 3.0, 149.0, 675.0, 84.0 ],
                                    "quality": "basic",
                                    "saved_attribute_attributes": {
                                        "candicane2": {
                                            "expression": ""
                                        },
                                        "candicane3": {
                                            "expression": ""
                                        },
                                        "candicane4": {
                                            "expression": ""
                                        },
                                        "candicane5": {
                                            "expression": ""
                                        },
                                        "candicane6": {
                                            "expression": ""
                                        },
                                        "candicane7": {
                                            "expression": ""
                                        },
                                        "candicane8": {
                                            "expression": ""
                                        }
                                    }
                                }
                            },
                            {
                                "box": {
                                    "id": "obj-6",
                                    "maxclass": "newobj",
                                    "numinlets": 2,
                                    "numoutlets": 2,
                                    "outlettype": [ "bang", "" ],
                                    "patching_rect": [ 564.0, 40.0, 34.0, 22.0 ],
                                    "text": "sel 1"
                                }
                            },
                            {
                                "box": {
                                    "comment": "",
                                    "id": "obj-5",
                                    "index": 2,
                                    "maxclass": "inlet",
                                    "numinlets": 0,
                                    "numoutlets": 1,
                                    "outlettype": [ "" ],
                                    "patching_rect": [ 141.0, 27.0, 30.0, 30.0 ]
                                }
                            },
                            {
                                "box": {
                                    "id": "obj-3",
                                    "maxclass": "message",
                                    "numinlets": 2,
                                    "numoutlets": 1,
                                    "outlettype": [ "" ],
                                    "patching_rect": [ 482.0, 16.0, 33.0, 22.0 ],
                                    "text": "front"
                                }
                            },
                            {
                                "box": {
                                    "id": "obj-1",
                                    "maxclass": "newobj",
                                    "numinlets": 1,
                                    "numoutlets": 2,
                                    "outlettype": [ "", "" ],
                                    "patching_rect": [ 482.0, 44.0, 67.0, 22.0 ],
                                    "save": [ "#N", "thispatcher", ";", "#Q", "end", ";" ],
                                    "text": "thispatcher"
                                }
                            },
                            {
                                "box": {
                                    "id": "obj-19",
                                    "lastchannelcount": 0,
                                    "maxclass": "live.gain~",
                                    "numinlets": 2,
                                    "numoutlets": 5,
                                    "orientation": 1,
                                    "outlettype": [ "signal", "signal", "", "float", "list" ],
                                    "parameter_enable": 1,
                                    "patching_rect": [ 593.0, 472.0, 136.0, 36.0 ],
                                    "presentation": 1,
                                    "presentation_rect": [ 3.0, 246.0, 195.0, 36.0 ],
                                    "saved_attribute_attributes": {
                                        "valueof": {
                                            "parameter_longname": "live.gain~[5]",
                                            "parameter_mmax": 6.0,
                                            "parameter_mmin": -70.0,
                                            "parameter_modmode": 0,
                                            "parameter_shortname": "live.gain~",
                                            "parameter_type": 0,
                                            "parameter_unitstyle": 4
                                        }
                                    },
                                    "showname": 0,
                                    "varname": "live.gain~"
                                }
                            },
                            {
                                "box": {
                                    "clipheight": 46.666666666666664,
                                    "data": {
                                        "clips": [
                                            {
                                                "absolutepath": "/Users/jamesstaub/Documents/Live/cello-examples Project/phrases.aif",
                                                "filename": "phrases.aif",
                                                "filekind": "audiofile",
                                                "id": "u813326545",
                                                "selection": [ 0.162903225806452, 0.204838709677419 ],
                                                "loop": 1,
                                                "content_state": {
                                                    "loop": 1
                                                }
                                            },
                                            {
                                                "absolutepath": "/Users/jamesstaub/Library/CloudStorage/GoogleDrive-james.staub@gmail.com/My Drive/audio/handpan cello jam.mp3",
                                                "filename": "handpan cello jam.mp3",
                                                "filekind": "audiofile",
                                                "id": "u488024517",
                                                "loop": 0,
                                                "content_state": {                                                }
                                            },
                                            {
                                                "absolutepath": "/Users/jamesstaub/Library/CloudStorage/GoogleDrive-james.staub@gmail.com/My Drive/audio/sp-tools-corpora/staub-cello-examples.aif",
                                                "filename": "staub-cello-examples.aif",
                                                "filekind": "audiofile",
                                                "id": "u128002608",
                                                "loop": 0,
                                                "content_state": {                                                }
                                            }
                                        ]
                                    },
                                    "id": "obj-16",
                                    "maxclass": "playlist~",
                                    "mode": "basic",
                                    "numinlets": 1,
                                    "numoutlets": 5,
                                    "outlettype": [ "signal", "signal", "signal", "", "dictionary" ],
                                    "parameter_enable": 0,
                                    "patching_rect": [ 50.0, 80.0, 623.0, 143.0 ],
                                    "presentation": 1,
                                    "presentation_rect": [ 3.0, 2.0, 675.0, 143.0 ],
                                    "quality": "basic",
                                    "saved_attribute_attributes": {
                                        "candicane2": {
                                            "expression": ""
                                        },
                                        "candicane3": {
                                            "expression": ""
                                        },
                                        "candicane4": {
                                            "expression": ""
                                        },
                                        "candicane5": {
                                            "expression": ""
                                        },
                                        "candicane6": {
                                            "expression": ""
                                        },
                                        "candicane7": {
                                            "expression": ""
                                        },
                                        "candicane8": {
                                            "expression": ""
                                        }
                                    }
                                }
                            },
                            {
                                "box": {
                                    "id": "obj-159",
                                    "maxclass": "newobj",
                                    "numinlets": 2,
                                    "numoutlets": 0,
                                    "patching_rect": [ 593.0, 520.0, 35.0, 22.0 ],
                                    "text": "dac~"
                                }
                            },
                            {
                                "box": {
                                    "comment": "",
                                    "id": "obj-4",
                                    "index": 1,
                                    "maxclass": "inlet",
                                    "numinlets": 0,
                                    "numoutlets": 1,
                                    "outlettype": [ "" ],
                                    "patching_rect": [ 50.0, 40.0, 30.0, 30.0 ]
                                }
                            },
                            {
                                "box": {
                                    "comment": "",
                                    "id": "obj-9",
                                    "index": 2,
                                    "maxclass": "outlet",
                                    "numinlets": 1,
                                    "numoutlets": 0,
                                    "patching_rect": [ 118.0, 349.0, 30.0, 30.0 ]
                                }
                            },
                            {
                                "box": {
                                    "comment": "",
                                    "id": "obj-11",
                                    "index": 1,
                                    "maxclass": "outlet",
                                    "numinlets": 1,
                                    "numoutlets": 0,
                                    "patching_rect": [ 13.0, 305.0, 30.0, 30.0 ]
                                }
                            }
                        ],
                        "lines": [
                            {
                                "patchline": {
                                    "destination": [ "obj-11", 0 ],
                                    "order": 1,
                                    "source": [ "obj-16", 0 ]
                                }
                            },
                            {
                                "patchline": {
                                    "destination": [ "obj-19", 1 ],
                                    "order": 0,
                                    "source": [ "obj-16", 1 ]
                                }
                            },
                            {
                                "patchline": {
                                    "destination": [ "obj-19", 0 ],
                                    "order": 0,
                                    "source": [ "obj-16", 0 ]
                                }
                            },
                            {
                                "patchline": {
                                    "destination": [ "obj-9", 0 ],
                                    "order": 1,
                                    "source": [ "obj-16", 1 ]
                                }
                            },
                            {
                                "patchline": {
                                    "destination": [ "obj-159", 1 ],
                                    "source": [ "obj-19", 1 ]
                                }
                            },
                            {
                                "patchline": {
                                    "destination": [ "obj-159", 0 ],
                                    "source": [ "obj-19", 0 ]
                                }
                            },
                            {
                                "patchline": {
                                    "destination": [ "obj-16", 0 ],
                                    "order": 1,
                                    "source": [ "obj-2", 0 ]
                                }
                            },
                            {
                                "patchline": {
                                    "destination": [ "obj-7", 0 ],
                                    "order": 0,
                                    "source": [ "obj-2", 0 ]
                                }
                            },
                            {
                                "patchline": {
                                    "destination": [ "obj-1", 0 ],
                                    "source": [ "obj-3", 0 ]
                                }
                            },
                            {
                                "patchline": {
                                    "destination": [ "obj-16", 0 ],
                                    "source": [ "obj-4", 0 ]
                                }
                            },
                            {
                                "patchline": {
                                    "destination": [ "obj-6", 0 ],
                                    "source": [ "obj-5", 0 ]
                                }
                            },
                            {
                                "patchline": {
                                    "destination": [ "obj-3", 0 ],
                                    "source": [ "obj-6", 0 ]
                                }
                            },
                            {
                                "patchline": {
                                    "destination": [ "obj-11", 0 ],
                                    "order": 1,
                                    "source": [ "obj-7", 1 ]
                                }
                            },
                            {
                                "patchline": {
                                    "destination": [ "obj-19", 0 ],
                                    "order": 0,
                                    "source": [ "obj-7", 1 ]
                                }
                            },
                            {
                                "patchline": {
                                    "destination": [ "obj-19", 1 ],
                                    "order": 0,
                                    "source": [ "obj-7", 0 ]
                                }
                            },
                            {
                                "patchline": {
                                    "destination": [ "obj-9", 0 ],
                                    "order": 1,
                                    "source": [ "obj-7", 0 ]
                                }
                            }
                        ]
                    },
                    "patching_rect": [ 483.0, 32.0, 139.44479441857823, 22.0 ],
                    "text": "p"
                }
            },
            {
                "box": {
                    "comment": "input mode",
                    "id": "obj-32",
                    "index": 3,
                    "maxclass": "outlet",
                    "numinlets": 1,
                    "numoutlets": 0,
                    "patching_rect": [ 734.0, 276.0, 30.0, 30.0 ]
                }
            },
            {
                "box": {
                    "id": "obj-30",
                    "maxclass": "newobj",
                    "numinlets": 1,
                    "numoutlets": 1,
                    "outlettype": [ "int" ],
                    "patching_rect": [ 765.0, 206.0, 22.0, 22.0 ],
                    "text": "t 1"
                }
            },
            {
                "box": {
                    "id": "obj-29",
                    "maxclass": "newobj",
                    "numinlets": 1,
                    "numoutlets": 1,
                    "outlettype": [ "int" ],
                    "patching_rect": [ 801.0, 206.0, 22.0, 22.0 ],
                    "text": "t 0"
                }
            },
            {
                "box": {
                    "id": "obj-24",
                    "maxclass": "newobj",
                    "numinlets": 2,
                    "numoutlets": 1,
                    "outlettype": [ "signal" ],
                    "patching_rect": [ 16.0, 69.0, 47.444794418578226, 22.0 ],
                    "text": "gate~"
                }
            },
            {
                "box": {
                    "id": "obj-22",
                    "maxclass": "newobj",
                    "numinlets": 1,
                    "numoutlets": 1,
                    "outlettype": [ "int" ],
                    "patching_rect": [ 734.0, 206.0, 22.0, 22.0 ],
                    "text": "t 4"
                }
            },
            {
                "box": {
                    "id": "obj-21",
                    "maxclass": "message",
                    "numinlets": 2,
                    "numoutlets": 1,
                    "outlettype": [ "" ],
                    "patching_rect": [ 734.0, 245.0, 51.0, 22.0 ],
                    "text": "input $1"
                }
            },
            {
                "box": {
                    "id": "obj-10",
                    "maxclass": "newobj",
                    "numinlets": 5,
                    "numoutlets": 5,
                    "outlettype": [ "bang", "bang", "bang", "bang", "" ],
                    "patching_rect": [ 734.0, 171.0, 193.0, 22.0 ],
                    "text": "sel 0 1 2 3"
                }
            },
            {
                "box": {
                    "id": "obj-8",
                    "maxclass": "newobj",
                    "numinlets": 1,
                    "numoutlets": 2,
                    "outlettype": [ "int", "int" ],
                    "patching_rect": [ 250.0, -27.0, 32.0, 22.0 ],
                    "text": "t 0 1"
                }
            },
            {
                "box": {
                    "id": "obj-7",
                    "maxclass": "newobj",
                    "numinlets": 2,
                    "numoutlets": 1,
                    "outlettype": [ "signal" ],
                    "patching_rect": [ 87.0, 69.0, 47.444794418578226, 22.0 ],
                    "text": "gate~"
                }
            },
            {
                "box": {
                    "id": "obj-6",
                    "maxclass": "newobj",
                    "numinlets": 1,
                    "numoutlets": 2,
                    "outlettype": [ "int", "int" ],
                    "patching_rect": [ 189.5, -27.0, 32.0, 22.0 ],
                    "text": "t 0 1"
                }
            },
            {
                "box": {
                    "id": "obj-3",
                    "maxclass": "newobj",
                    "numinlets": 1,
                    "numoutlets": 2,
                    "outlettype": [ "int", "int" ],
                    "patching_rect": [ 129.0, -27.0, 32.0, 22.0 ],
                    "text": "t 1 0"
                }
            },
            {
                "box": {
                    "id": "obj-44",
                    "maxclass": "newobj",
                    "numinlets": 5,
                    "numoutlets": 5,
                    "outlettype": [ "bang", "bang", "bang", "bang", "" ],
                    "patching_rect": [ 129.0, -69.0, 261.0, 22.0 ],
                    "text": "sel 0 1 2 3"
                }
            },
            {
                "box": {
                    "fontsize": 12.0,
                    "id": "obj-5",
                    "maxclass": "live.tab",
                    "num_lines_patching": 1,
                    "num_lines_presentation": 4,
                    "numinlets": 1,
                    "numoutlets": 3,
                    "outlettype": [ "", "", "float" ],
                    "parameter_enable": 1,
                    "patching_rect": [ 129.0, -117.0, 274.0, 24.0 ],
                    "presentation": 1,
                    "presentation_rect": [ 2.0, 3.0, 162.0, 66.0 ],
                    "saved_attribute_attributes": {
                        "valueof": {
                            "parameter_enum": [ "1 pickup 2 air  ", "ch1 pickup", "ch 1 airmic", "ch 2 airmic" ],
                            "parameter_longname": "live.tab[4]",
                            "parameter_mmax": 3,
                            "parameter_modmode": 0,
                            "parameter_shortname": "live.tab",
                            "parameter_type": 2,
                            "parameter_unitstyle": 9
                        }
                    },
                    "varname": "live.tab"
                }
            },
            {
                "box": {
                    "comment": "primary input (pickup)",
                    "id": "obj-2",
                    "index": 1,
                    "maxclass": "outlet",
                    "numinlets": 1,
                    "numoutlets": 0,
                    "patching_rect": [ 19.0, 331.0, 30.0, 30.0 ]
                }
            },
            {
                "box": {
                    "comment": "secondary input (air mic)",
                    "id": "obj-1",
                    "index": 2,
                    "maxclass": "outlet",
                    "numinlets": 1,
                    "numoutlets": 0,
                    "patching_rect": [ 215.0, 331.0, 30.0, 30.0 ]
                }
            },
            {
                "box": {
                    "id": "obj-12",
                    "maxclass": "newobj",
                    "numinlets": 2,
                    "numoutlets": 1,
                    "outlettype": [ "signal" ],
                    "patching_rect": [ 454.5552055814218, 80.0, 47.444794418578226, 22.0 ],
                    "text": "gate~"
                }
            },
            {
                "box": {
                    "fontsize": 12.0,
                    "id": "obj-41",
                    "maxclass": "live.text",
                    "numinlets": 1,
                    "numoutlets": 2,
                    "outlettype": [ "", "" ],
                    "parameter_enable": 1,
                    "patching_rect": [ 617.0, -116.0, 108.44479441857823, 24.0 ],
                    "presentation": 1,
                    "presentation_rect": [ 2.0, 71.0, 162.0, 19.0 ],
                    "saved_attribute_attributes": {
                        "valueof": {
                            "parameter_enum": [ "val1", "val2" ],
                            "parameter_longname": "live.text[1]",
                            "parameter_mmax": 1,
                            "parameter_modmode": 0,
                            "parameter_shortname": "live.text",
                            "parameter_type": 2
                        }
                    },
                    "text": "file",
                    "texton": "file",
                    "varname": "live.text[3]"
                }
            },
            {
                "box": {
                    "id": "obj-40",
                    "maxclass": "newobj",
                    "numinlets": 2,
                    "numoutlets": 1,
                    "outlettype": [ "signal" ],
                    "patching_rect": [ 575.0, 80.0, 47.444794418578226, 22.0 ],
                    "text": "gate~"
                }
            },
            {
                "box": {
                    "id": "obj-23",
                    "maxclass": "newobj",
                    "numinlets": 2,
                    "numoutlets": 1,
                    "outlettype": [ "signal" ],
                    "patching_rect": [ 142.0, 69.0, 47.444794418578226, 22.0 ],
                    "text": "gate~"
                }
            },
            {
                "box": {
                    "id": "obj-18",
                    "maxclass": "newobj",
                    "numinlets": 2,
                    "numoutlets": 1,
                    "outlettype": [ "signal" ],
                    "patching_rect": [ 206.0, 69.0, 47.444794418578226, 22.0 ],
                    "text": "gate~"
                }
            },
            {
                "box": {
                    "id": "obj-47",
                    "maxclass": "newobj",
                    "numinlets": 1,
                    "numoutlets": 2,
                    "outlettype": [ "signal", "signal" ],
                    "patching_rect": [ 40.0, -22.0, 55.0, 22.0 ],
                    "text": "adc~ 1 2"
                }
            }
        ],
        "lines": [
            {
                "patchline": {
                    "destination": [ "obj-22", 0 ],
                    "source": [ "obj-10", 0 ]
                }
            },
            {
                "patchline": {
                    "destination": [ "obj-28", 0 ],
                    "source": [ "obj-10", 3 ]
                }
            },
            {
                "patchline": {
                    "destination": [ "obj-29", 0 ],
                    "source": [ "obj-10", 2 ]
                }
            },
            {
                "patchline": {
                    "destination": [ "obj-30", 0 ],
                    "source": [ "obj-10", 1 ]
                }
            },
            {
                "patchline": {
                    "destination": [ "obj-9", 0 ],
                    "source": [ "obj-12", 0 ]
                }
            },
            {
                "patchline": {
                    "destination": [ "obj-12", 1 ],
                    "source": [ "obj-13", 0 ]
                }
            },
            {
                "patchline": {
                    "destination": [ "obj-40", 1 ],
                    "source": [ "obj-13", 1 ]
                }
            },
            {
                "patchline": {
                    "destination": [ "obj-15", 0 ],
                    "source": [ "obj-14", 1 ]
                }
            },
            {
                "patchline": {
                    "destination": [ "obj-5", 0 ],
                    "midpoints": [ 626.5, -48.0, 413.921875, -48.0, 413.921875, -127.0, 138.5, -127.0 ],
                    "source": [ "obj-14", 0 ]
                }
            },
            {
                "patchline": {
                    "destination": [ "obj-18", 0 ],
                    "midpoints": [ 639.5, 19.5, 215.5, 19.5 ],
                    "order": 0,
                    "source": [ "obj-15", 0 ]
                }
            },
            {
                "patchline": {
                    "destination": [ "obj-23", 0 ],
                    "midpoints": [ 639.5, 19.5, 151.5, 19.5 ],
                    "order": 1,
                    "source": [ "obj-15", 0 ]
                }
            },
            {
                "patchline": {
                    "destination": [ "obj-24", 0 ],
                    "midpoints": [ 639.5, 19.5, 25.5, 19.5 ],
                    "order": 3,
                    "source": [ "obj-15", 0 ]
                }
            },
            {
                "patchline": {
                    "destination": [ "obj-7", 0 ],
                    "midpoints": [ 639.5, 19.5, 96.5, 19.5 ],
                    "order": 2,
                    "source": [ "obj-15", 0 ]
                }
            },
            {
                "patchline": {
                    "destination": [ "obj-1", 0 ],
                    "source": [ "obj-16", 1 ]
                }
            },
            {
                "patchline": {
                    "destination": [ "obj-2", 0 ],
                    "source": [ "obj-17", 0 ]
                }
            },
            {
                "patchline": {
                    "destination": [ "obj-31", 0 ],
                    "source": [ "obj-18", 0 ]
                }
            },
            {
                "patchline": {
                    "destination": [ "obj-16", 0 ],
                    "source": [ "obj-19", 0 ]
                }
            },
            {
                "patchline": {
                    "destination": [ "obj-32", 0 ],
                    "source": [ "obj-21", 0 ]
                }
            },
            {
                "patchline": {
                    "destination": [ "obj-21", 0 ],
                    "source": [ "obj-22", 0 ]
                }
            },
            {
                "patchline": {
                    "destination": [ "obj-9", 0 ],
                    "source": [ "obj-23", 0 ]
                }
            },
            {
                "patchline": {
                    "destination": [ "obj-9", 0 ],
                    "source": [ "obj-24", 0 ]
                }
            },
            {
                "patchline": {
                    "destination": [ "obj-18", 0 ],
                    "order": 0,
                    "source": [ "obj-26", 0 ]
                }
            },
            {
                "patchline": {
                    "destination": [ "obj-23", 0 ],
                    "order": 1,
                    "source": [ "obj-26", 0 ]
                }
            },
            {
                "patchline": {
                    "destination": [ "obj-24", 0 ],
                    "order": 3,
                    "source": [ "obj-26", 0 ]
                }
            },
            {
                "patchline": {
                    "destination": [ "obj-27", 0 ],
                    "source": [ "obj-26", 1 ]
                }
            },
            {
                "patchline": {
                    "destination": [ "obj-7", 0 ],
                    "order": 2,
                    "source": [ "obj-26", 0 ]
                }
            },
            {
                "patchline": {
                    "destination": [ "obj-9", 0 ],
                    "source": [ "obj-27", 0 ]
                }
            },
            {
                "patchline": {
                    "destination": [ "obj-21", 0 ],
                    "source": [ "obj-28", 0 ]
                }
            },
            {
                "patchline": {
                    "destination": [ "obj-21", 0 ],
                    "source": [ "obj-29", 0 ]
                }
            },
            {
                "patchline": {
                    "destination": [ "obj-18", 0 ],
                    "midpoints": [ 151.5, 62.0859375, 215.5, 62.0859375 ],
                    "order": 1,
                    "source": [ "obj-3", 1 ]
                }
            },
            {
                "patchline": {
                    "destination": [ "obj-23", 0 ],
                    "order": 2,
                    "source": [ "obj-3", 1 ]
                }
            },
            {
                "patchline": {
                    "destination": [ "obj-24", 0 ],
                    "midpoints": [ 138.5, 34.5390625, 25.5, 34.5390625 ],
                    "order": 1,
                    "source": [ "obj-3", 0 ]
                }
            },
            {
                "patchline": {
                    "destination": [ "obj-27", 0 ],
                    "order": 0,
                    "source": [ "obj-3", 1 ]
                }
            },
            {
                "patchline": {
                    "destination": [ "obj-7", 0 ],
                    "midpoints": [ 138.5, 32.0, 96.5, 32.0 ],
                    "order": 0,
                    "source": [ "obj-3", 0 ]
                }
            },
            {
                "patchline": {
                    "destination": [ "obj-21", 0 ],
                    "source": [ "obj-30", 0 ]
                }
            },
            {
                "patchline": {
                    "destination": [ "obj-19", 0 ],
                    "source": [ "obj-31", 0 ]
                }
            },
            {
                "patchline": {
                    "destination": [ "obj-5", 0 ],
                    "source": [ "obj-4", 0 ]
                }
            },
            {
                "patchline": {
                    "destination": [ "obj-31", 0 ],
                    "source": [ "obj-40", 0 ]
                }
            },
            {
                "patchline": {
                    "destination": [ "obj-12", 0 ],
                    "midpoints": [ 626.5, 7.41796875, 464.0552055814218, 7.41796875 ],
                    "order": 4,
                    "source": [ "obj-41", 0 ]
                }
            },
            {
                "patchline": {
                    "destination": [ "obj-13", 1 ],
                    "order": 1,
                    "source": [ "obj-41", 0 ]
                }
            },
            {
                "patchline": {
                    "destination": [ "obj-13", 0 ],
                    "midpoints": [ 626.5, -0.2109375, 492.5, -0.2109375 ],
                    "order": 3,
                    "source": [ "obj-41", 0 ]
                }
            },
            {
                "patchline": {
                    "destination": [ "obj-14", 0 ],
                    "order": 0,
                    "source": [ "obj-41", 0 ]
                }
            },
            {
                "patchline": {
                    "destination": [ "obj-40", 0 ],
                    "order": 2,
                    "source": [ "obj-41", 0 ]
                }
            },
            {
                "patchline": {
                    "destination": [ "obj-26", 0 ],
                    "source": [ "obj-44", 3 ]
                }
            },
            {
                "patchline": {
                    "destination": [ "obj-3", 0 ],
                    "source": [ "obj-44", 0 ]
                }
            },
            {
                "patchline": {
                    "destination": [ "obj-6", 0 ],
                    "source": [ "obj-44", 1 ]
                }
            },
            {
                "patchline": {
                    "destination": [ "obj-8", 0 ],
                    "source": [ "obj-44", 2 ]
                }
            },
            {
                "patchline": {
                    "destination": [ "obj-18", 1 ],
                    "order": 0,
                    "source": [ "obj-47", 0 ]
                }
            },
            {
                "patchline": {
                    "destination": [ "obj-23", 1 ],
                    "order": 1,
                    "source": [ "obj-47", 1 ]
                }
            },
            {
                "patchline": {
                    "destination": [ "obj-24", 1 ],
                    "order": 1,
                    "source": [ "obj-47", 0 ]
                }
            },
            {
                "patchline": {
                    "destination": [ "obj-27", 1 ],
                    "order": 0,
                    "source": [ "obj-47", 1 ]
                }
            },
            {
                "patchline": {
                    "destination": [ "obj-7", 1 ],
                    "order": 2,
                    "source": [ "obj-47", 1 ]
                }
            },
            {
                "patchline": {
                    "destination": [ "obj-10", 0 ],
                    "midpoints": [ 138.5, -87.1640625, 743.5, -87.1640625 ],
                    "order": 0,
                    "source": [ "obj-5", 0 ]
                }
            },
            {
                "patchline": {
                    "destination": [ "obj-44", 0 ],
                    "order": 1,
                    "source": [ "obj-5", 0 ]
                }
            },
            {
                "patchline": {
                    "destination": [ "obj-18", 0 ],
                    "order": 1,
                    "source": [ "obj-6", 0 ]
                }
            },
            {
                "patchline": {
                    "destination": [ "obj-24", 0 ],
                    "midpoints": [ 212.0, 45.80859375, 25.5, 45.80859375 ],
                    "source": [ "obj-6", 1 ]
                }
            },
            {
                "patchline": {
                    "destination": [ "obj-27", 0 ],
                    "order": 0,
                    "source": [ "obj-6", 0 ]
                }
            },
            {
                "patchline": {
                    "destination": [ "obj-7", 0 ],
                    "midpoints": [ 199.0, 43.234375, 96.5, 43.234375 ],
                    "order": 2,
                    "source": [ "obj-6", 0 ]
                }
            },
            {
                "patchline": {
                    "destination": [ "obj-31", 0 ],
                    "source": [ "obj-7", 0 ]
                }
            },
            {
                "patchline": {
                    "destination": [ "obj-23", 0 ],
                    "midpoints": [ 272.5, 60.59375, 151.5, 60.59375 ],
                    "source": [ "obj-8", 1 ]
                }
            },
            {
                "patchline": {
                    "destination": [ "obj-23", 0 ],
                    "midpoints": [ 259.5, 54.86328125, 151.5, 54.86328125 ],
                    "order": 1,
                    "source": [ "obj-8", 0 ]
                }
            },
            {
                "patchline": {
                    "destination": [ "obj-24", 0 ],
                    "midpoints": [ 259.5, 49.75, 25.5, 49.75 ],
                    "order": 2,
                    "source": [ "obj-8", 0 ]
                }
            },
            {
                "patchline": {
                    "destination": [ "obj-27", 0 ],
                    "order": 0,
                    "source": [ "obj-8", 0 ]
                }
            },
            {
                "patchline": {
                    "destination": [ "obj-17", 0 ],
                    "source": [ "obj-9", 0 ]
                }
            }
        ],
        "oscreceiveudpport": 0
    }
}