{
	"patcher" : 	{
		"fileversion" : 1,
		"appversion" : 		{
			"major" : 8,
			"minor" : 5,
			"revision" : 0,
			"architecture" : "x64",
			"modernui" : 1
		}
,
		"classnamespace" : "box",
		"rect" : [ -1886.0, 115.0, 1852.0, 894.0 ],
		"bglocked" : 0,
		"openinpresentation" : 0,
		"default_fontsize" : 12.0,
		"default_fontface" : 0,
		"default_fontname" : "Arial",
		"gridonopen" : 1,
		"gridsize" : [ 15.0, 15.0 ],
		"gridsnaponopen" : 1,
		"objectsnaponopen" : 1,
		"statusbarvisible" : 2,
		"toolbarvisible" : 1,
		"lefttoolbarpinned" : 0,
		"toptoolbarpinned" : 0,
		"righttoolbarpinned" : 0,
		"bottomtoolbarpinned" : 0,
		"toolbars_unpinned_last_save" : 0,
		"tallnewobj" : 0,
		"boxanimatetime" : 200,
		"enablehscroll" : 1,
		"enablevscroll" : 1,
		"devicewidth" : 0.0,
		"description" : "",
		"digest" : "",
		"tags" : "",
		"style" : "",
		"subpatcher_template" : "",
		"assistshowspatchername" : 0,
		"boxes" : [ 			{
				"box" : 				{
					"bubblesize" : 16,
					"id" : "obj-5",
					"maxclass" : "preset",
					"numinlets" : 1,
					"numoutlets" : 5,
					"outlettype" : [ "preset", "int", "preset", "int", "" ],
					"patching_rect" : [ 687.0, 393.0, 313.0, 66.0 ],
					"pattrstorage" : "performance",
					"presentation" : 1,
					"presentation_rect" : [ 79.0, 665.0, 246.0, 76.0 ]
				}

			}
, 			{
				"box" : 				{
					"bgmode" : 0,
					"border" : 0,
					"clickthrough" : 0,
					"enablehscroll" : 0,
					"enablevscroll" : 0,
					"id" : "obj-133",
					"lockeddragscroll" : 0,
					"lockedsize" : 0,
					"maxclass" : "bpatcher",
					"name" : "_midi-sync.maxpat",
					"numinlets" : 0,
					"numoutlets" : 0,
					"offset" : [ 0.0, 0.0 ],
					"patching_rect" : [ 82.0, 552.0, 154.0, 58.0 ],
					"presentation" : 1,
					"presentation_rect" : [ 1.5, 169.0, 221.0, 66.0 ],
					"viewvisibility" : 1
				}

			}
, 			{
				"box" : 				{
					"id" : "obj-127",
					"maxclass" : "newobj",
					"numinlets" : 2,
					"numoutlets" : 0,
					"patcher" : 					{
						"fileversion" : 1,
						"appversion" : 						{
							"major" : 8,
							"minor" : 5,
							"revision" : 0,
							"architecture" : "x64",
							"modernui" : 1
						}
,
						"classnamespace" : "box",
						"rect" : [ 0.0, 0.0, 640.0, 480.0 ],
						"bglocked" : 0,
						"openinpresentation" : 0,
						"default_fontsize" : 12.0,
						"default_fontface" : 0,
						"default_fontname" : "Arial",
						"gridonopen" : 1,
						"gridsize" : [ 15.0, 15.0 ],
						"gridsnaponopen" : 1,
						"objectsnaponopen" : 1,
						"statusbarvisible" : 2,
						"toolbarvisible" : 1,
						"lefttoolbarpinned" : 0,
						"toptoolbarpinned" : 0,
						"righttoolbarpinned" : 0,
						"bottomtoolbarpinned" : 0,
						"toolbars_unpinned_last_save" : 0,
						"tallnewobj" : 0,
						"boxanimatetime" : 200,
						"enablehscroll" : 1,
						"enablevscroll" : 1,
						"devicewidth" : 0.0,
						"description" : "",
						"digest" : "",
						"tags" : "",
						"style" : "",
						"subpatcher_template" : "",
						"assistshowspatchername" : 0,
						"boxes" : [ 							{
								"box" : 								{
									"id" : "obj-85",
									"maxclass" : "newobj",
									"numinlets" : 2,
									"numoutlets" : 1,
									"outlettype" : [ "" ],
									"patching_rect" : [ 404.0, 100.0, 32.0, 22.0 ],
									"text" : "gate"
								}

							}
, 							{
								"box" : 								{
									"id" : "obj-83",
									"maxclass" : "newobj",
									"numinlets" : 2,
									"numoutlets" : 2,
									"outlettype" : [ "bang", "" ],
									"patching_rect" : [ 172.0, 302.0, 34.0, 22.0 ],
									"text" : "sel 1"
								}

							}
, 							{
								"box" : 								{
									"id" : "obj-84",
									"maxclass" : "newobj",
									"numinlets" : 2,
									"numoutlets" : 1,
									"outlettype" : [ "int" ],
									"patching_rect" : [ 172.0, 268.0, 29.5, 22.0 ],
									"text" : "% 2"
								}

							}
, 							{
								"box" : 								{
									"id" : "obj-55",
									"maxclass" : "newobj",
									"numinlets" : 7,
									"numoutlets" : 7,
									"outlettype" : [ "bang", "bang", "bang", "bang", "bang", "bang", "" ],
									"patching_rect" : [ 349.75, 365.0, 84.0, 22.0 ],
									"text" : "sel 1 2 3 4 5 6"
								}

							}
, 							{
								"box" : 								{
									"id" : "obj-54",
									"maxclass" : "newobj",
									"numinlets" : 1,
									"numoutlets" : 1,
									"outlettype" : [ "int" ],
									"patching_rect" : [ 469.0, 408.0, 35.0, 22.0 ],
									"text" : "t 433"
								}

							}
, 							{
								"box" : 								{
									"id" : "obj-53",
									"maxclass" : "newobj",
									"numinlets" : 1,
									"numoutlets" : 1,
									"outlettype" : [ "int" ],
									"patching_rect" : [ 428.0, 408.0, 35.0, 22.0 ],
									"text" : "t 200"
								}

							}
, 							{
								"box" : 								{
									"id" : "obj-52",
									"maxclass" : "newobj",
									"numinlets" : 1,
									"numoutlets" : 1,
									"outlettype" : [ "int" ],
									"patching_rect" : [ 386.0, 408.0, 35.0, 22.0 ],
									"text" : "t 100"
								}

							}
, 							{
								"box" : 								{
									"id" : "obj-51",
									"maxclass" : "newobj",
									"numinlets" : 1,
									"numoutlets" : 1,
									"outlettype" : [ "int" ],
									"patching_rect" : [ 346.0, 408.0, 29.0, 22.0 ],
									"text" : "t 50"
								}

							}
, 							{
								"box" : 								{
									"id" : "obj-48",
									"maxclass" : "message",
									"numinlets" : 2,
									"numoutlets" : 1,
									"outlettype" : [ "" ],
									"patching_rect" : [ 346.0, 440.0, 234.0, 22.0 ],
									"text" : "bindto _filter-to-corpus-2::granular-rate, $1"
								}

							}
, 							{
								"box" : 								{
									"id" : "obj-47",
									"maxclass" : "newobj",
									"numinlets" : 1,
									"numoutlets" : 3,
									"outlettype" : [ "", "int", "int" ],
									"patching_rect" : [ 50.0, 427.0, 48.0, 22.0 ],
									"text" : "change"
								}

							}
, 							{
								"box" : 								{
									"id" : "obj-46",
									"maxclass" : "newobj",
									"numinlets" : 2,
									"numoutlets" : 1,
									"outlettype" : [ "" ],
									"patching_rect" : [ 50.0, 401.0, 87.0, 22.0 ],
									"text" : "speedlim 2000"
								}

							}
, 							{
								"box" : 								{
									"id" : "obj-42",
									"maxclass" : "message",
									"numinlets" : 2,
									"numoutlets" : 1,
									"outlettype" : [ "" ],
									"patching_rect" : [ 50.0, 482.0, 235.0, 22.0 ],
									"text" : "bindto _filter-to-corpus-2::corpus-menu, $1"
								}

							}
, 							{
								"box" : 								{
									"id" : "obj-36",
									"maxclass" : "newobj",
									"numinlets" : 6,
									"numoutlets" : 1,
									"outlettype" : [ "" ],
									"patching_rect" : [ 50.0, 453.0, 77.0, 22.0 ],
									"text" : "scale 1 6 1 4"
								}

							}
, 							{
								"box" : 								{
									"id" : "obj-28",
									"maxclass" : "newobj",
									"numinlets" : 1,
									"numoutlets" : 2,
									"outlettype" : [ "int", "bang" ],
									"patching_rect" : [ 121.0, 352.0, 29.5, 22.0 ],
									"text" : "t i b"
								}

							}
, 							{
								"box" : 								{
									"id" : "obj-27",
									"maxclass" : "message",
									"numinlets" : 2,
									"numoutlets" : 1,
									"outlettype" : [ "" ],
									"patching_rect" : [ 165.75, 334.0, 89.0, 22.0 ],
									"text" : "toggle-granular"
								}

							}
, 							{
								"box" : 								{
									"id" : "obj-44",
									"maxclass" : "newobj",
									"numinlets" : 1,
									"numoutlets" : 1,
									"outlettype" : [ "" ],
									"patching_rect" : [ 165.75, 384.0, 150.0, 22.0 ],
									"text" : "prepend _filter-to-corpus-2"
								}

							}
, 							{
								"box" : 								{
									"id" : "obj-25",
									"maxclass" : "newobj",
									"numinlets" : 2,
									"numoutlets" : 1,
									"outlettype" : [ "" ],
									"patching_rect" : [ 165.75, 414.0, 121.0, 22.0 ],
									"text" : "sprintf bindto %s::%s"
								}

							}
, 							{
								"box" : 								{
									"id" : "obj-32",
									"maxclass" : "newobj",
									"numinlets" : 1,
									"numoutlets" : 3,
									"outlettype" : [ "", "", "" ],
									"patching_rect" : [ 165.75, 448.0, 136.0, 22.0 ],
									"restore" : [ 0 ],
									"saved_object_attributes" : 									{
										"parameter_enable" : 0,
										"parameter_mappable" : 0
									}
,
									"text" : "pattr",
									"varname" : "u954003948"
								}

							}
, 							{
								"box" : 								{
									"comment" : "",
									"id" : "obj-125",
									"index" : 1,
									"maxclass" : "inlet",
									"numinlets" : 0,
									"numoutlets" : 1,
									"outlettype" : [ "int" ],
									"patching_rect" : [ 404.0, 40.0, 30.0, 30.0 ]
								}

							}
, 							{
								"box" : 								{
									"comment" : "",
									"id" : "obj-126",
									"index" : 2,
									"maxclass" : "inlet",
									"numinlets" : 0,
									"numoutlets" : 1,
									"outlettype" : [ "" ],
									"patching_rect" : [ 439.0, 40.0, 30.0, 30.0 ]
								}

							}
 ],
						"lines" : [ 							{
								"patchline" : 								{
									"destination" : [ "obj-85", 0 ],
									"source" : [ "obj-125", 0 ]
								}

							}
, 							{
								"patchline" : 								{
									"destination" : [ "obj-85", 1 ],
									"source" : [ "obj-126", 0 ]
								}

							}
, 							{
								"patchline" : 								{
									"destination" : [ "obj-32", 0 ],
									"source" : [ "obj-25", 0 ]
								}

							}
, 							{
								"patchline" : 								{
									"destination" : [ "obj-44", 0 ],
									"source" : [ "obj-27", 0 ]
								}

							}
, 							{
								"patchline" : 								{
									"destination" : [ "obj-27", 0 ],
									"source" : [ "obj-28", 1 ]
								}

							}
, 							{
								"patchline" : 								{
									"destination" : [ "obj-32", 0 ],
									"source" : [ "obj-28", 0 ]
								}

							}
, 							{
								"patchline" : 								{
									"destination" : [ "obj-42", 0 ],
									"source" : [ "obj-36", 0 ]
								}

							}
, 							{
								"patchline" : 								{
									"destination" : [ "obj-32", 0 ],
									"source" : [ "obj-42", 0 ]
								}

							}
, 							{
								"patchline" : 								{
									"destination" : [ "obj-25", 0 ],
									"midpoints" : [ 175.25, 403.0, 175.25, 403.0 ],
									"source" : [ "obj-44", 0 ]
								}

							}
, 							{
								"patchline" : 								{
									"destination" : [ "obj-47", 0 ],
									"source" : [ "obj-46", 0 ]
								}

							}
, 							{
								"patchline" : 								{
									"destination" : [ "obj-36", 0 ],
									"source" : [ "obj-47", 0 ]
								}

							}
, 							{
								"patchline" : 								{
									"destination" : [ "obj-32", 0 ],
									"source" : [ "obj-48", 0 ]
								}

							}
, 							{
								"patchline" : 								{
									"destination" : [ "obj-48", 0 ],
									"source" : [ "obj-51", 0 ]
								}

							}
, 							{
								"patchline" : 								{
									"destination" : [ "obj-48", 0 ],
									"source" : [ "obj-52", 0 ]
								}

							}
, 							{
								"patchline" : 								{
									"destination" : [ "obj-48", 0 ],
									"source" : [ "obj-53", 0 ]
								}

							}
, 							{
								"patchline" : 								{
									"destination" : [ "obj-48", 0 ],
									"source" : [ "obj-54", 0 ]
								}

							}
, 							{
								"patchline" : 								{
									"destination" : [ "obj-51", 0 ],
									"source" : [ "obj-55", 3 ]
								}

							}
, 							{
								"patchline" : 								{
									"destination" : [ "obj-52", 0 ],
									"source" : [ "obj-55", 4 ]
								}

							}
, 							{
								"patchline" : 								{
									"destination" : [ "obj-52", 0 ],
									"source" : [ "obj-55", 1 ]
								}

							}
, 							{
								"patchline" : 								{
									"destination" : [ "obj-53", 0 ],
									"source" : [ "obj-55", 2 ]
								}

							}
, 							{
								"patchline" : 								{
									"destination" : [ "obj-54", 0 ],
									"source" : [ "obj-55", 5 ]
								}

							}
, 							{
								"patchline" : 								{
									"destination" : [ "obj-54", 0 ],
									"source" : [ "obj-55", 0 ]
								}

							}
, 							{
								"patchline" : 								{
									"destination" : [ "obj-27", 0 ],
									"source" : [ "obj-83", 0 ]
								}

							}
, 							{
								"patchline" : 								{
									"destination" : [ "obj-83", 0 ],
									"source" : [ "obj-84", 0 ]
								}

							}
, 							{
								"patchline" : 								{
									"destination" : [ "obj-55", 0 ],
									"order" : 0,
									"source" : [ "obj-85", 0 ]
								}

							}
, 							{
								"patchline" : 								{
									"destination" : [ "obj-84", 0 ],
									"order" : 1,
									"source" : [ "obj-85", 0 ]
								}

							}
 ]
					}
,
					"patching_rect" : [ 316.0, 867.0, 100.0, 22.0 ],
					"saved_object_attributes" : 					{
						"description" : "",
						"digest" : "",
						"globalpatchername" : "",
						"tags" : ""
					}
,
					"text" : "p timbre-to-pattrs",
					"varname" : "patcher"
				}

			}
, 			{
				"box" : 				{
					"id" : "obj-123",
					"maxclass" : "comment",
					"numinlets" : 1,
					"numoutlets" : 0,
					"patching_rect" : [ 488.0, 1046.5, 150.0, 20.0 ],
					"presentation" : 1,
					"presentation_rect" : [ 170.0, 627.0, 150.0, 20.0 ],
					"text" : "decay"
				}

			}
, 			{
				"box" : 				{
					"id" : "obj-121",
					"maxclass" : "newobj",
					"numinlets" : 2,
					"numoutlets" : 0,
					"patcher" : 					{
						"fileversion" : 1,
						"appversion" : 						{
							"major" : 8,
							"minor" : 5,
							"revision" : 0,
							"architecture" : "x64",
							"modernui" : 1
						}
,
						"classnamespace" : "box",
						"rect" : [ -1886.0, 115.0, 1852.0, 894.0 ],
						"bglocked" : 0,
						"openinpresentation" : 0,
						"default_fontsize" : 12.0,
						"default_fontface" : 0,
						"default_fontname" : "Arial",
						"gridonopen" : 1,
						"gridsize" : [ 15.0, 15.0 ],
						"gridsnaponopen" : 1,
						"objectsnaponopen" : 1,
						"statusbarvisible" : 2,
						"toolbarvisible" : 1,
						"lefttoolbarpinned" : 0,
						"toptoolbarpinned" : 0,
						"righttoolbarpinned" : 0,
						"bottomtoolbarpinned" : 0,
						"toolbars_unpinned_last_save" : 0,
						"tallnewobj" : 0,
						"boxanimatetime" : 200,
						"enablehscroll" : 1,
						"enablevscroll" : 1,
						"devicewidth" : 0.0,
						"description" : "",
						"digest" : "",
						"tags" : "",
						"style" : "",
						"subpatcher_template" : "",
						"assistshowspatchername" : 0,
						"boxes" : [ 							{
								"box" : 								{
									"id" : "obj-114",
									"maxclass" : "newobj",
									"numinlets" : 2,
									"numoutlets" : 1,
									"outlettype" : [ "int" ],
									"patching_rect" : [ 66.0, 100.0, 29.5, 22.0 ],
									"text" : "i"
								}

							}
, 							{
								"box" : 								{
									"id" : "obj-103",
									"maxclass" : "newobj",
									"numinlets" : 2,
									"numoutlets" : 2,
									"outlettype" : [ "bang", "" ],
									"patching_rect" : [ 73.0, 225.0, 34.0, 22.0 ],
									"text" : "sel 1"
								}

							}
, 							{
								"box" : 								{
									"id" : "obj-102",
									"maxclass" : "newobj",
									"numinlets" : 2,
									"numoutlets" : 1,
									"outlettype" : [ "int" ],
									"patching_rect" : [ 73.0, 201.0, 29.5, 22.0 ],
									"text" : "int"
								}

							}
, 							{
								"box" : 								{
									"fontname" : "Arial",
									"fontsize" : 13.0,
									"id" : "obj-95",
									"maxclass" : "message",
									"numinlets" : 2,
									"numoutlets" : 1,
									"outlettype" : [ "" ],
									"patching_rect" : [ 73.0, 139.0, 48.0, 23.0 ],
									"text" : "1, 0 $1"
								}

							}
, 							{
								"box" : 								{
									"fontname" : "Arial",
									"fontsize" : 13.0,
									"id" : "obj-24",
									"maxclass" : "newobj",
									"numinlets" : 3,
									"numoutlets" : 2,
									"outlettype" : [ "", "bang" ],
									"patching_rect" : [ 73.0, 170.0, 40.0, 23.0 ],
									"text" : "line"
								}

							}
, 							{
								"box" : 								{
									"id" : "obj-93",
									"maxclass" : "message",
									"numinlets" : 2,
									"numoutlets" : 1,
									"outlettype" : [ "" ],
									"patching_rect" : [ 50.0, 256.0, 543.0, 22.0 ],
									"text" : "send parent::_filter-to-corpus-2::toggle-granular, 0, send parent::_filter-to-corpus-1::toggle-granular, 0"
								}

							}
, 							{
								"box" : 								{
									"id" : "obj-91",
									"maxclass" : "newobj",
									"numinlets" : 1,
									"numoutlets" : 1,
									"outlettype" : [ "" ],
									"patching_rect" : [ 50.0, 283.0, 73.0, 22.0 ],
									"text" : "pattrforward"
								}

							}
, 							{
								"box" : 								{
									"comment" : "",
									"id" : "obj-119",
									"index" : 1,
									"maxclass" : "inlet",
									"numinlets" : 0,
									"numoutlets" : 1,
									"outlettype" : [ "" ],
									"patching_rect" : [ 66.0, 40.0, 30.0, 30.0 ]
								}

							}
, 							{
								"box" : 								{
									"comment" : "",
									"id" : "obj-120",
									"index" : 2,
									"maxclass" : "inlet",
									"numinlets" : 0,
									"numoutlets" : 1,
									"outlettype" : [ "" ],
									"patching_rect" : [ 101.0, 40.0, 30.0, 30.0 ]
								}

							}
 ],
						"lines" : [ 							{
								"patchline" : 								{
									"destination" : [ "obj-103", 0 ],
									"source" : [ "obj-102", 0 ]
								}

							}
, 							{
								"patchline" : 								{
									"destination" : [ "obj-93", 0 ],
									"source" : [ "obj-103", 0 ]
								}

							}
, 							{
								"patchline" : 								{
									"destination" : [ "obj-95", 0 ],
									"source" : [ "obj-114", 0 ]
								}

							}
, 							{
								"patchline" : 								{
									"destination" : [ "obj-114", 0 ],
									"source" : [ "obj-119", 0 ]
								}

							}
, 							{
								"patchline" : 								{
									"destination" : [ "obj-114", 1 ],
									"source" : [ "obj-120", 0 ]
								}

							}
, 							{
								"patchline" : 								{
									"destination" : [ "obj-102", 0 ],
									"source" : [ "obj-24", 0 ]
								}

							}
, 							{
								"patchline" : 								{
									"destination" : [ "obj-91", 0 ],
									"source" : [ "obj-93", 0 ]
								}

							}
, 							{
								"patchline" : 								{
									"destination" : [ "obj-24", 0 ],
									"source" : [ "obj-95", 0 ]
								}

							}
 ]
					}
,
					"patching_rect" : [ 355.0, 1074.0, 105.0, 22.0 ],
					"saved_object_attributes" : 					{
						"description" : "",
						"digest" : "",
						"globalpatchername" : "",
						"tags" : ""
					}
,
					"text" : "p disable-granular"
				}

			}
, 			{
				"box" : 				{
					"id" : "obj-116",
					"maxclass" : "button",
					"numinlets" : 1,
					"numoutlets" : 1,
					"outlettype" : [ "bang" ],
					"parameter_enable" : 0,
					"patching_rect" : [ 393.0, 996.0, 24.0, 24.0 ]
				}

			}
, 			{
				"box" : 				{
					"id" : "obj-113",
					"maxclass" : "newobj",
					"numinlets" : 1,
					"numoutlets" : 1,
					"outlettype" : [ "" ],
					"patching_rect" : [ 443.0, 1014.5, 90.0, 22.0 ],
					"text" : "loadmess 3000"
				}

			}
, 			{
				"box" : 				{
					"id" : "obj-112",
					"maxclass" : "number",
					"numinlets" : 1,
					"numoutlets" : 2,
					"outlettype" : [ "", "bang" ],
					"parameter_enable" : 0,
					"patching_rect" : [ 443.0, 1044.5, 50.0, 22.0 ],
					"presentation" : 1,
					"presentation_rect" : [ 118.0, 626.0, 50.0, 22.0 ],
					"varname" : "granular-enabled-decay-time"
				}

			}
, 			{
				"box" : 				{
					"id" : "obj-110",
					"maxclass" : "comment",
					"numinlets" : 1,
					"numoutlets" : 0,
					"patching_rect" : [ 372.0, 970.0, 140.0, 20.0 ],
					"presentation" : 1,
					"presentation_rect" : [ 144.5, 599.0, 140.0, 20.0 ],
					"text" : "mute granular after bang"
				}

			}
, 			{
				"box" : 				{
					"id" : "obj-108",
					"maxclass" : "toggle",
					"numinlets" : 1,
					"numoutlets" : 1,
					"outlettype" : [ "int" ],
					"parameter_enable" : 0,
					"patching_rect" : [ 367.0, 996.0, 24.0, 24.0 ],
					"presentation" : 1,
					"presentation_rect" : [ 118.5, 599.0, 24.0, 24.0 ]
				}

			}
, 			{
				"box" : 				{
					"id" : "obj-106",
					"maxclass" : "newobj",
					"numinlets" : 2,
					"numoutlets" : 1,
					"outlettype" : [ "" ],
					"patching_rect" : [ 363.0, 1031.0, 32.0, 22.0 ],
					"text" : "gate"
				}

			}
, 			{
				"box" : 				{
					"id" : "obj-89",
					"maxclass" : "comment",
					"numinlets" : 1,
					"numoutlets" : 0,
					"patching_rect" : [ 341.0, 833.0, 89.0, 20.0 ],
					"text" : "timbre to pattrs"
				}

			}
, 			{
				"box" : 				{
					"id" : "obj-87",
					"maxclass" : "toggle",
					"numinlets" : 1,
					"numoutlets" : 1,
					"outlettype" : [ "int" ],
					"parameter_enable" : 0,
					"patching_rect" : [ 315.0, 832.0, 24.0, 24.0 ]
				}

			}
, 			{
				"box" : 				{
					"id" : "obj-76",
					"maxclass" : "comment",
					"numinlets" : 1,
					"numoutlets" : 0,
					"patching_rect" : [ 697.0, 371.0, 150.0, 20.0 ],
					"text" : "preset"
				}

			}
, 			{
				"box" : 				{
					"id" : "obj-75",
					"maxclass" : "comment",
					"numinlets" : 1,
					"numoutlets" : 0,
					"patching_rect" : [ 647.0, 410.0, 64.0, 20.0 ],
					"text" : "bank"
				}

			}
, 			{
				"box" : 				{
					"channels" : 1,
					"id" : "obj-61",
					"lastchannelcount" : 0,
					"maxclass" : "live.gain~",
					"numinlets" : 1,
					"numoutlets" : 4,
					"outlettype" : [ "signal", "", "float", "list" ],
					"parameter_enable" : 1,
					"patching_rect" : [ 91.0, 617.0, 48.0, 136.0 ],
					"presentation" : 1,
					"presentation_rect" : [ 38.5, 582.0, 48.0, 136.0 ],
					"saved_attribute_attributes" : 					{
						"valueof" : 						{
							"parameter_longname" : "gain",
							"parameter_mmax" : 6.0,
							"parameter_mmin" : -70.0,
							"parameter_shortname" : "R",
							"parameter_type" : 0,
							"parameter_unitstyle" : 4
						}

					}
,
					"varname" : "live.gain~[1]"
				}

			}
, 			{
				"box" : 				{
					"id" : "obj-57",
					"linecount" : 2,
					"maxclass" : "comment",
					"numinlets" : 1,
					"numoutlets" : 0,
					"patching_rect" : [ 120.0, 172.0, 150.0, 33.0 ],
					"text" : "TODO:\nspectral dampen input"
				}

			}
, 			{
				"box" : 				{
					"id" : "obj-35",
					"maxclass" : "newobj",
					"numinlets" : 1,
					"numoutlets" : 1,
					"outlettype" : [ "" ],
					"patching_rect" : [ 962.0, 338.0, 70.0, 22.0 ],
					"text" : "loadmess 1"
				}

			}
, 			{
				"box" : 				{
					"id" : "obj-41",
					"maxclass" : "newobj",
					"numinlets" : 1,
					"numoutlets" : 1,
					"outlettype" : [ "" ],
					"patcher" : 					{
						"fileversion" : 1,
						"appversion" : 						{
							"major" : 8,
							"minor" : 5,
							"revision" : 0,
							"architecture" : "x64",
							"modernui" : 1
						}
,
						"classnamespace" : "box",
						"rect" : [ -1886.0, 115.0, 1852.0, 894.0 ],
						"bglocked" : 0,
						"openinpresentation" : 0,
						"default_fontsize" : 12.0,
						"default_fontface" : 0,
						"default_fontname" : "Arial",
						"gridonopen" : 1,
						"gridsize" : [ 15.0, 15.0 ],
						"gridsnaponopen" : 1,
						"objectsnaponopen" : 1,
						"statusbarvisible" : 2,
						"toolbarvisible" : 1,
						"lefttoolbarpinned" : 0,
						"toptoolbarpinned" : 0,
						"righttoolbarpinned" : 0,
						"bottomtoolbarpinned" : 0,
						"toolbars_unpinned_last_save" : 0,
						"tallnewobj" : 0,
						"boxanimatetime" : 200,
						"enablehscroll" : 1,
						"enablevscroll" : 1,
						"devicewidth" : 0.0,
						"description" : "",
						"digest" : "",
						"tags" : "",
						"style" : "",
						"subpatcher_template" : "",
						"assistshowspatchername" : 0,
						"boxes" : [ 							{
								"box" : 								{
									"id" : "obj-35",
									"maxclass" : "newobj",
									"numinlets" : 1,
									"numoutlets" : 2,
									"outlettype" : [ "bang", "int" ],
									"patching_rect" : [ 57.5, 100.0, 29.5, 22.0 ],
									"text" : "t b i"
								}

							}
, 							{
								"box" : 								{
									"id" : "obj-34",
									"maxclass" : "newobj",
									"numinlets" : 2,
									"numoutlets" : 2,
									"outlettype" : [ "", "" ],
									"patching_rect" : [ 50.0, 178.0, 37.0, 22.0 ],
									"text" : "zl nth"
								}

							}
, 							{
								"box" : 								{
									"id" : "obj-14",
									"linecount" : 2,
									"maxclass" : "message",
									"numinlets" : 2,
									"numoutlets" : 1,
									"outlettype" : [ "" ],
									"patching_rect" : [ 54.0, 134.5, 239.0, 35.0 ],
									"text" : "pluck-low pluck-chord bow-lo bow-hi knock col-legno-tap"
								}

							}
, 							{
								"box" : 								{
									"comment" : "",
									"id" : "obj-39",
									"index" : 1,
									"maxclass" : "inlet",
									"numinlets" : 0,
									"numoutlets" : 1,
									"outlettype" : [ "" ],
									"patching_rect" : [ 57.5, 40.0, 30.0, 30.0 ]
								}

							}
, 							{
								"box" : 								{
									"comment" : "",
									"id" : "obj-40",
									"index" : 1,
									"maxclass" : "outlet",
									"numinlets" : 1,
									"numoutlets" : 0,
									"patching_rect" : [ 50.0, 260.0, 30.0, 30.0 ]
								}

							}
 ],
						"lines" : [ 							{
								"patchline" : 								{
									"destination" : [ "obj-34", 0 ],
									"source" : [ "obj-14", 0 ]
								}

							}
, 							{
								"patchline" : 								{
									"destination" : [ "obj-40", 0 ],
									"source" : [ "obj-34", 0 ]
								}

							}
, 							{
								"patchline" : 								{
									"destination" : [ "obj-14", 0 ],
									"source" : [ "obj-35", 0 ]
								}

							}
, 							{
								"patchline" : 								{
									"destination" : [ "obj-34", 1 ],
									"source" : [ "obj-35", 1 ]
								}

							}
, 							{
								"patchline" : 								{
									"destination" : [ "obj-35", 0 ],
									"source" : [ "obj-39", 0 ]
								}

							}
 ]
					}
,
					"patching_rect" : [ 566.0, 821.0, 56.0, 22.0 ],
					"saved_object_attributes" : 					{
						"description" : "",
						"digest" : "",
						"globalpatchername" : "",
						"tags" : ""
					}
,
					"text" : "p display"
				}

			}
, 			{
				"box" : 				{
					"bgmode" : 0,
					"border" : 0,
					"clickthrough" : 0,
					"enablehscroll" : 0,
					"enablevscroll" : 0,
					"id" : "obj-38",
					"lockeddragscroll" : 0,
					"lockedsize" : 0,
					"maxclass" : "bpatcher",
					"name" : "_filter-to-corpus.maxpat",
					"numinlets" : 2,
					"numoutlets" : 2,
					"offset" : [ 0.0, 0.0 ],
					"outlettype" : [ "signal", "signal" ],
					"patching_rect" : [ 1474.0, 10.0, 422.0, 798.0 ],
					"presentation" : 1,
					"presentation_rect" : [ 746.0, 3.0, 414.0, 840.0 ],
					"varname" : "_filter-to-corpus-2",
					"viewvisibility" : 1
				}

			}
, 			{
				"box" : 				{
					"bgcolor" : [ 0.309803921568627, 0.63921568627451, 0.988235294117647, 0.21 ],
					"bgcolor2" : [ 0.309803921568627, 0.63921568627451, 0.988235294117647, 0.05 ],
					"bgfillcolor_angle" : 270.0,
					"bgfillcolor_autogradient" : 0.0,
					"bgfillcolor_color" : [ 0.309803921568627, 0.63921568627451, 0.988235294117647, 0.05 ],
					"bgfillcolor_color1" : [ 0.309803921568627, 0.63921568627451, 0.988235294117647, 0.21 ],
					"bgfillcolor_color2" : [ 0.309803921568627, 0.63921568627451, 0.988235294117647, 0.05 ],
					"bgfillcolor_proportion" : 0.5,
					"bgfillcolor_type" : "gradient",
					"fontname" : "Ableton Sans Bold",
					"fontsize" : 48.0,
					"gradient" : 1,
					"id" : "obj-37",
					"maxclass" : "message",
					"numinlets" : 2,
					"numoutlets" : 1,
					"outlettype" : [ "" ],
					"patching_rect" : [ 303.0, 509.0, 319.0, 66.0 ],
					"presentation" : 1,
					"presentation_rect" : [ 1.5, 286.0, 320.0, 66.0 ],
					"text" : "knock",
					"textcolor" : [ 0.0, 0.0, 0.0, 1.0 ]
				}

			}
, 			{
				"box" : 				{
					"args" : [ 20, 35, -72 ],
					"bgmode" : 0,
					"border" : 0,
					"clickthrough" : 0,
					"enablehscroll" : 0,
					"enablevscroll" : 0,
					"id" : "obj-2",
					"lockeddragscroll" : 0,
					"lockedsize" : 0,
					"maxclass" : "bpatcher",
					"name" : "_input-processor.maxpat",
					"numinlets" : 0,
					"numoutlets" : 5,
					"offset" : [ 0.0, 0.0 ],
					"outlettype" : [ "", "", "list", "", "" ],
					"patching_rect" : [ 5.0, 10.0, 279.0, 312.0 ],
					"presentation" : 1,
					"presentation_rect" : [ 3.0, 3.0, 251.0, 164.0 ],
					"viewvisibility" : 1
				}

			}
, 			{
				"box" : 				{
					"id" : "obj-77",
					"maxclass" : "newobj",
					"numinlets" : 1,
					"numoutlets" : 2,
					"outlettype" : [ "", "" ],
					"patcher" : 					{
						"fileversion" : 1,
						"appversion" : 						{
							"major" : 8,
							"minor" : 5,
							"revision" : 0,
							"architecture" : "x64",
							"modernui" : 1
						}
,
						"classnamespace" : "box",
						"rect" : [ -1887.0, 115.0, 1852.0, 903.0 ],
						"bglocked" : 0,
						"openinpresentation" : 0,
						"default_fontsize" : 12.0,
						"default_fontface" : 0,
						"default_fontname" : "Arial",
						"gridonopen" : 1,
						"gridsize" : [ 15.0, 15.0 ],
						"gridsnaponopen" : 1,
						"objectsnaponopen" : 1,
						"statusbarvisible" : 2,
						"toolbarvisible" : 1,
						"lefttoolbarpinned" : 0,
						"toptoolbarpinned" : 0,
						"righttoolbarpinned" : 0,
						"bottomtoolbarpinned" : 0,
						"toolbars_unpinned_last_save" : 0,
						"tallnewobj" : 0,
						"boxanimatetime" : 200,
						"enablehscroll" : 1,
						"enablevscroll" : 1,
						"devicewidth" : 0.0,
						"description" : "",
						"digest" : "",
						"tags" : "",
						"style" : "",
						"subpatcher_template" : "",
						"assistshowspatchername" : 0,
						"boxes" : [ 							{
								"box" : 								{
									"id" : "obj-72",
									"maxclass" : "newobj",
									"numinlets" : 1,
									"numoutlets" : 2,
									"outlettype" : [ "", "" ],
									"patching_rect" : [ 110.0, 536.0, 29.5, 22.0 ],
									"text" : "t l l"
								}

							}
, 							{
								"box" : 								{
									"id" : "obj-69",
									"maxclass" : "message",
									"numinlets" : 2,
									"numoutlets" : 1,
									"outlettype" : [ "" ],
									"patching_rect" : [ 108.5, 466.0, 56.0, 22.0 ],
									"text" : "buffer $1"
								}

							}
, 							{
								"box" : 								{
									"id" : "obj-66",
									"maxclass" : "newobj",
									"numinlets" : 2,
									"numoutlets" : 1,
									"outlettype" : [ "list" ],
									"patching_rect" : [ 108.5, 497.0, 72.0, 22.0 ],
									"text" : "fluid.buf2list"
								}

							}
, 							{
								"box" : 								{
									"id" : "obj-62",
									"maxclass" : "newobj",
									"numinlets" : 2,
									"numoutlets" : 2,
									"outlettype" : [ "", "" ],
									"patching_rect" : [ 112.0, 434.0, 80.0, 22.0 ],
									"text" : "route tobuffer"
								}

							}
, 							{
								"box" : 								{
									"id" : "obj-59",
									"maxclass" : "message",
									"numinlets" : 2,
									"numoutlets" : 1,
									"outlettype" : [ "" ],
									"patching_rect" : [ 112.0, 358.0, 49.0, 22.0 ],
									"text" : "tobuffer"
								}

							}
, 							{
								"box" : 								{
									"id" : "obj-40",
									"linecount" : 2,
									"maxclass" : "comment",
									"numinlets" : 1,
									"numoutlets" : 0,
									"patching_rect" : [ 112.0, 100.0, 162.0, 33.0 ],
									"text" : "robust scale the mfcc stats before passing to classifier"
								}

							}
, 							{
								"box" : 								{
									"id" : "obj-31",
									"maxclass" : "newobj",
									"numinlets" : 2,
									"numoutlets" : 2,
									"outlettype" : [ "bang", "" ],
									"patching_rect" : [ 112.0, 247.0, 57.0, 22.0 ],
									"text" : "sel dump"
								}

							}
, 							{
								"box" : 								{
									"id" : "obj-26",
									"maxclass" : "message",
									"numinlets" : 2,
									"numoutlets" : 1,
									"outlettype" : [ "" ],
									"patching_rect" : [ 112.0, 183.0, 116.0, 22.0 ],
									"text" : "frombuffer $1, dump"
								}

							}
, 							{
								"box" : 								{
									"id" : "obj-30",
									"maxclass" : "newobj",
									"numinlets" : 1,
									"numoutlets" : 2,
									"outlettype" : [ "", "" ],
									"patching_rect" : [ 112.0, 214.0, 180.0, 22.0 ],
									"text" : "fluid.dataset~ timbre-descriptors"
								}

							}
, 							{
								"box" : 								{
									"color" : [ 1.0, 0.43921568627451, 0.662745098039216, 1.0 ],
									"id" : "obj-22",
									"maxclass" : "newobj",
									"numinlets" : 1,
									"numoutlets" : 2,
									"outlettype" : [ "", "" ],
									"patching_rect" : [ 112.0, 398.0, 180.0, 22.0 ],
									"text" : "fluid.dataset~ mfcc.robustscaled"
								}

							}
, 							{
								"box" : 								{
									"id" : "obj-23",
									"maxclass" : "message",
									"numinlets" : 2,
									"numoutlets" : 1,
									"outlettype" : [ "" ],
									"patching_rect" : [ 112.0, 289.0, 268.0, 22.0 ],
									"text" : "fittransform timbre-descriptors mfcc.robustscaled"
								}

							}
, 							{
								"box" : 								{
									"color" : [ 1.0, 0.43921568627451, 0.662745098039216, 1.0 ],
									"id" : "obj-24",
									"maxclass" : "newobj",
									"numinlets" : 1,
									"numoutlets" : 2,
									"outlettype" : [ "", "" ],
									"patching_rect" : [ 112.0, 315.5, 110.0, 22.0 ],
									"text" : "fluid.robustscale~"
								}

							}
, 							{
								"box" : 								{
									"id" : "obj-34",
									"maxclass" : "newobj",
									"numinlets" : 1,
									"numoutlets" : 3,
									"outlettype" : [ "", "int", "int" ],
									"patching_rect" : [ 120.5, 605.0, 48.0, 22.0 ],
									"text" : "change"
								}

							}
, 							{
								"box" : 								{
									"id" : "obj-14",
									"maxclass" : "newobj",
									"numinlets" : 2,
									"numoutlets" : 2,
									"outlettype" : [ "", "" ],
									"patching_rect" : [ 120.5, 575.0, 37.0, 22.0 ],
									"text" : "zl len"
								}

							}
, 							{
								"box" : 								{
									"id" : "obj-10",
									"maxclass" : "newobj",
									"numinlets" : 1,
									"numoutlets" : 2,
									"outlettype" : [ "list", "" ],
									"patching_rect" : [ 50.0, 150.0, 81.0, 22.0 ],
									"text" : "sp.mfccframe"
								}

							}
, 							{
								"box" : 								{
									"comment" : "",
									"id" : "obj-73",
									"index" : 1,
									"maxclass" : "inlet",
									"numinlets" : 0,
									"numoutlets" : 1,
									"outlettype" : [ "" ],
									"patching_rect" : [ 50.0, 40.0, 30.0, 30.0 ]
								}

							}
, 							{
								"box" : 								{
									"comment" : "",
									"id" : "obj-75",
									"index" : 1,
									"maxclass" : "outlet",
									"numinlets" : 1,
									"numoutlets" : 0,
									"patching_rect" : [ 82.5, 681.0, 30.0, 30.0 ]
								}

							}
, 							{
								"box" : 								{
									"comment" : "",
									"id" : "obj-76",
									"index" : 2,
									"maxclass" : "outlet",
									"numinlets" : 1,
									"numoutlets" : 0,
									"patching_rect" : [ 137.0, 681.0, 30.0, 30.0 ]
								}

							}
 ],
						"lines" : [ 							{
								"patchline" : 								{
									"destination" : [ "obj-26", 0 ],
									"source" : [ "obj-10", 1 ]
								}

							}
, 							{
								"patchline" : 								{
									"destination" : [ "obj-34", 0 ],
									"source" : [ "obj-14", 0 ]
								}

							}
, 							{
								"patchline" : 								{
									"destination" : [ "obj-62", 0 ],
									"source" : [ "obj-22", 0 ]
								}

							}
, 							{
								"patchline" : 								{
									"destination" : [ "obj-24", 0 ],
									"source" : [ "obj-23", 0 ]
								}

							}
, 							{
								"patchline" : 								{
									"destination" : [ "obj-59", 0 ],
									"source" : [ "obj-24", 0 ]
								}

							}
, 							{
								"patchline" : 								{
									"destination" : [ "obj-30", 0 ],
									"source" : [ "obj-26", 0 ]
								}

							}
, 							{
								"patchline" : 								{
									"destination" : [ "obj-31", 0 ],
									"source" : [ "obj-30", 1 ]
								}

							}
, 							{
								"patchline" : 								{
									"destination" : [ "obj-23", 0 ],
									"source" : [ "obj-31", 0 ]
								}

							}
, 							{
								"patchline" : 								{
									"destination" : [ "obj-76", 0 ],
									"source" : [ "obj-34", 0 ]
								}

							}
, 							{
								"patchline" : 								{
									"destination" : [ "obj-22", 0 ],
									"source" : [ "obj-59", 0 ]
								}

							}
, 							{
								"patchline" : 								{
									"destination" : [ "obj-69", 0 ],
									"source" : [ "obj-62", 0 ]
								}

							}
, 							{
								"patchline" : 								{
									"destination" : [ "obj-72", 0 ],
									"source" : [ "obj-66", 0 ]
								}

							}
, 							{
								"patchline" : 								{
									"destination" : [ "obj-66", 0 ],
									"source" : [ "obj-69", 0 ]
								}

							}
, 							{
								"patchline" : 								{
									"destination" : [ "obj-14", 0 ],
									"source" : [ "obj-72", 1 ]
								}

							}
, 							{
								"patchline" : 								{
									"destination" : [ "obj-75", 0 ],
									"source" : [ "obj-72", 0 ]
								}

							}
, 							{
								"patchline" : 								{
									"destination" : [ "obj-10", 0 ],
									"source" : [ "obj-73", 0 ]
								}

							}
 ]
					}
,
					"patching_rect" : [ 303.0, 411.0, 113.0, 22.0 ],
					"saved_object_attributes" : 					{
						"description" : "",
						"digest" : "",
						"globalpatchername" : "",
						"tags" : ""
					}
,
					"text" : "p mfcc-robust-scale"
				}

			}
, 			{
				"box" : 				{
					"id" : "obj-29",
					"maxclass" : "newobj",
					"numinlets" : 0,
					"numoutlets" : 1,
					"outlettype" : [ "" ],
					"patcher" : 					{
						"fileversion" : 1,
						"appversion" : 						{
							"major" : 8,
							"minor" : 5,
							"revision" : 0,
							"architecture" : "x64",
							"modernui" : 1
						}
,
						"classnamespace" : "box",
						"rect" : [ -1886.0, 115.0, 1852.0, 894.0 ],
						"bglocked" : 0,
						"openinpresentation" : 0,
						"default_fontsize" : 12.0,
						"default_fontface" : 0,
						"default_fontname" : "Arial",
						"gridonopen" : 1,
						"gridsize" : [ 15.0, 15.0 ],
						"gridsnaponopen" : 1,
						"objectsnaponopen" : 1,
						"statusbarvisible" : 2,
						"toolbarvisible" : 1,
						"lefttoolbarpinned" : 0,
						"toptoolbarpinned" : 0,
						"righttoolbarpinned" : 0,
						"bottomtoolbarpinned" : 0,
						"toolbars_unpinned_last_save" : 0,
						"tallnewobj" : 0,
						"boxanimatetime" : 200,
						"enablehscroll" : 1,
						"enablevscroll" : 1,
						"devicewidth" : 0.0,
						"description" : "",
						"digest" : "",
						"tags" : "",
						"style" : "",
						"subpatcher_template" : "",
						"assistshowspatchername" : 0,
						"boxes" : [ 							{
								"box" : 								{
									"id" : "obj-2",
									"maxclass" : "newobj",
									"numinlets" : 3,
									"numoutlets" : 0,
									"patching_rect" : [ 160.0, 203.0, 131.0, 22.0 ],
									"text" : "print load timbre model"
								}

							}
, 							{
								"box" : 								{
									"id" : "obj-55",
									"maxclass" : "newobj",
									"numinlets" : 1,
									"numoutlets" : 1,
									"outlettype" : [ "" ],
									"patching_rect" : [ 50.0, 203.0, 92.0, 22.0 ],
									"text" : "prepend readall"
								}

							}
, 							{
								"box" : 								{
									"id" : "obj-54",
									"maxclass" : "newobj",
									"numinlets" : 1,
									"numoutlets" : 1,
									"outlettype" : [ "bang" ],
									"patching_rect" : [ 50.0, 100.0, 58.0, 22.0 ],
									"text" : "loadbang"
								}

							}
, 							{
								"box" : 								{
									"id" : "obj-7",
									"maxclass" : "message",
									"numinlets" : 2,
									"numoutlets" : 1,
									"outlettype" : [ "" ],
									"patching_rect" : [ 50.0, 144.0, 485.0, 22.0 ],
									"text" : "/Users/admin/Documents/Max 8/Projects/sp-tools/classifiers/cello-mfcc-gmm-model.mubu"
								}

							}
, 							{
								"box" : 								{
									"comment" : "",
									"id" : "obj-28",
									"index" : 1,
									"maxclass" : "outlet",
									"numinlets" : 1,
									"numoutlets" : 0,
									"patching_rect" : [ 50.0, 285.0, 30.0, 30.0 ]
								}

							}
 ],
						"lines" : [ 							{
								"patchline" : 								{
									"destination" : [ "obj-7", 0 ],
									"source" : [ "obj-54", 0 ]
								}

							}
, 							{
								"patchline" : 								{
									"destination" : [ "obj-28", 0 ],
									"source" : [ "obj-55", 0 ]
								}

							}
, 							{
								"patchline" : 								{
									"destination" : [ "obj-2", 0 ],
									"order" : 0,
									"source" : [ "obj-7", 0 ]
								}

							}
, 							{
								"patchline" : 								{
									"destination" : [ "obj-55", 0 ],
									"order" : 1,
									"source" : [ "obj-7", 0 ]
								}

							}
 ]
					}
,
					"patching_rect" : [ 485.0, 415.0, 95.0, 22.0 ],
					"saved_object_attributes" : 					{
						"description" : "",
						"digest" : "",
						"globalpatchername" : "",
						"tags" : ""
					}
,
					"text" : "p autoload-gmm"
				}

			}
, 			{
				"box" : 				{
					"id" : "obj-20",
					"maxclass" : "newobj",
					"numinlets" : 2,
					"numoutlets" : 2,
					"outlettype" : [ "signal", "signal" ],
					"patching_rect" : [ 19.0, 588.0, 44.0, 22.0 ],
					"text" : "limi~ 2"
				}

			}
, 			{
				"box" : 				{
					"args" : [ 4 ],
					"bgmode" : 0,
					"border" : 0,
					"clickthrough" : 0,
					"enablehscroll" : 0,
					"enablevscroll" : 0,
					"id" : "obj-17",
					"lockeddragscroll" : 0,
					"lockedsize" : 0,
					"maxclass" : "bpatcher",
					"name" : "_speed-controller.maxpat",
					"numinlets" : 2,
					"numoutlets" : 2,
					"offset" : [ 0.0, 0.0 ],
					"outlettype" : [ "", "" ],
					"patching_rect" : [ 298.0, 10.0, 734.0, 319.0 ],
					"presentation" : 1,
					"presentation_rect" : [ 1162.0, 3.0, 853.0, 314.0 ],
					"varname" : "_speed-controller",
					"viewvisibility" : 1
				}

			}
, 			{
				"box" : 				{
					"autorestore" : "performance.json",
					"fontname" : "Arial",
					"fontsize" : 13.0,
					"id" : "obj-33",
					"maxclass" : "newobj",
					"numinlets" : 1,
					"numoutlets" : 1,
					"outlettype" : [ "" ],
					"patching_rect" : [ 303.0, 374.0, 309.0, 23.0 ],
					"saved_object_attributes" : 					{
						"client_rect" : [ -1920, 115, 0, 1009 ],
						"parameter_enable" : 0,
						"parameter_mappable" : 0,
						"storage_rect" : [ 583, 69, 1034, 197 ]
					}
,
					"text" : "pattrstorage performance @savemode 2 @greedy 1",
					"varname" : "performance"
				}

			}
, 			{
				"box" : 				{
					"id" : "obj-13",
					"maxclass" : "message",
					"numinlets" : 2,
					"numoutlets" : 1,
					"outlettype" : [ "" ],
					"patching_rect" : [ 381.0, 341.0, 35.0, 22.0 ],
					"text" : "clear"
				}

			}
, 			{
				"box" : 				{
					"bgmode" : 0,
					"border" : 0,
					"clickthrough" : 0,
					"enablehscroll" : 0,
					"enablevscroll" : 0,
					"id" : "obj-1",
					"lockeddragscroll" : 0,
					"lockedsize" : 0,
					"maxclass" : "bpatcher",
					"name" : "_ramp-engine.maxpat",
					"numinlets" : 1,
					"numoutlets" : 1,
					"offset" : [ 0.0, 0.0 ],
					"outlettype" : [ "float" ],
					"patching_rect" : [ 1024.0, 853.0, 571.0, 242.0 ],
					"varname" : "_ramp-engine",
					"viewvisibility" : 1
				}

			}
, 			{
				"box" : 				{
					"channels" : 1,
					"id" : "obj-8",
					"lastchannelcount" : 0,
					"maxclass" : "live.gain~",
					"numinlets" : 1,
					"numoutlets" : 4,
					"outlettype" : [ "signal", "", "float", "list" ],
					"parameter_enable" : 1,
					"patching_rect" : [ 15.0, 617.0, 48.0, 136.0 ],
					"presentation" : 1,
					"presentation_rect" : [ 1.5, 582.0, 48.0, 136.0 ],
					"saved_attribute_attributes" : 					{
						"valueof" : 						{
							"parameter_longname" : "gain[1]",
							"parameter_mmax" : 6.0,
							"parameter_mmin" : -70.0,
							"parameter_shortname" : "L",
							"parameter_type" : 0,
							"parameter_unitstyle" : 4
						}

					}
,
					"varname" : "live.gain~"
				}

			}
, 			{
				"box" : 				{
					"id" : "obj-6",
					"linecount" : 12,
					"maxclass" : "comment",
					"numinlets" : 1,
					"numoutlets" : 0,
					"patching_rect" : [ 15.0, 382.0, 242.0, 167.0 ],
					"text" : "Live in the deptjs piece\n\n\nfor piano corpus, take advantage of the similarities of the slices, create micro loops that evolve. when a piano loop is selected, create variaion by shifting to or concatenating with nieghboring slices\n\nceramics slices should be granular lush waves of arpegiation morphin with cello bowing"
				}

			}
, 			{
				"box" : 				{
					"id" : "obj-4",
					"maxclass" : "ezdac~",
					"numinlets" : 2,
					"numoutlets" : 0,
					"patching_rect" : [ 15.0, 842.0, 45.0, 45.0 ],
					"presentation" : 1,
					"presentation_rect" : [ 3.5, 726.0, 45.0, 45.0 ]
				}

			}
, 			{
				"box" : 				{
					"bgmode" : 0,
					"border" : 0,
					"clickthrough" : 0,
					"enablehscroll" : 0,
					"enablevscroll" : 0,
					"id" : "obj-3",
					"lockeddragscroll" : 0,
					"lockedsize" : 0,
					"maxclass" : "bpatcher",
					"name" : "_filter-to-corpus.maxpat",
					"numinlets" : 2,
					"numoutlets" : 2,
					"offset" : [ 0.0, 0.0 ],
					"outlettype" : [ "signal", "signal" ],
					"patching_rect" : [ 1050.0, 10.0, 422.0, 798.0 ],
					"presentation" : 1,
					"presentation_rect" : [ 327.0, 5.0, 470.0, 840.0 ],
					"varname" : "_filter-to-corpus-1",
					"viewvisibility" : 1
				}

			}
, 			{
				"box" : 				{
					"id" : "obj-15",
					"maxclass" : "message",
					"numinlets" : 2,
					"numoutlets" : 1,
					"outlettype" : [ "" ],
					"patching_rect" : [ 423.0, 341.0, 105.0, 22.0 ],
					"text" : "storagewindow $1"
				}

			}
, 			{
				"box" : 				{
					"id" : "obj-11",
					"maxclass" : "message",
					"numinlets" : 2,
					"numoutlets" : 1,
					"outlettype" : [ "" ],
					"patching_rect" : [ 306.0, 341.0, 89.0, 22.0 ],
					"presentation" : 1,
					"presentation_rect" : [ 236.0, 749.0, 89.0, 22.0 ],
					"text" : "storagewindow"
				}

			}
, 			{
				"box" : 				{
					"args" : [ "timbre-gmm", "timbre" ],
					"bgmode" : 0,
					"border" : 0,
					"clickthrough" : 0,
					"enablehscroll" : 0,
					"enablevscroll" : 0,
					"id" : "obj-67",
					"lockeddragscroll" : 0,
					"lockedsize" : 0,
					"maxclass" : "bpatcher",
					"name" : "GMM.maxpat",
					"numinlets" : 3,
					"numoutlets" : 4,
					"offset" : [ 0.0, 0.0 ],
					"outlettype" : [ "", "", "bang", "" ],
					"patching_rect" : [ 303.0, 441.5, 326.0, 368.0 ],
					"presentation" : 1,
					"presentation_rect" : [ 1.5, 232.061378025466865, 324.0, 337.938621974533135 ],
					"viewvisibility" : 1
				}

			}
, 			{
				"box" : 				{
					"fontname" : "Ableton Sans Light",
					"fontsize" : 16.0,
					"id" : "obj-12",
					"linecount" : 6,
					"maxclass" : "comment",
					"numinlets" : 1,
					"numoutlets" : 0,
					"patching_rect" : [ 160.0, 1385.0, 199.0, 122.0 ],
					"text" : "1 pluck-low \n2 pluck-chord \n3 bow-lo \n4 bow-hi \n5 knock \n6 col-legno-tap"
				}

			}
 ],
		"lines" : [ 			{
				"patchline" : 				{
					"destination" : [ "obj-121", 0 ],
					"source" : [ "obj-106", 0 ]
				}

			}
, 			{
				"patchline" : 				{
					"destination" : [ "obj-106", 0 ],
					"source" : [ "obj-108", 0 ]
				}

			}
, 			{
				"patchline" : 				{
					"destination" : [ "obj-33", 0 ],
					"source" : [ "obj-11", 0 ]
				}

			}
, 			{
				"patchline" : 				{
					"destination" : [ "obj-121", 1 ],
					"source" : [ "obj-112", 0 ]
				}

			}
, 			{
				"patchline" : 				{
					"destination" : [ "obj-112", 0 ],
					"source" : [ "obj-113", 0 ]
				}

			}
, 			{
				"patchline" : 				{
					"destination" : [ "obj-106", 1 ],
					"source" : [ "obj-116", 0 ]
				}

			}
, 			{
				"patchline" : 				{
					"destination" : [ "obj-33", 0 ],
					"source" : [ "obj-13", 0 ]
				}

			}
, 			{
				"patchline" : 				{
					"destination" : [ "obj-116", 0 ],
					"order" : 1,
					"source" : [ "obj-2", 0 ]
				}

			}
, 			{
				"patchline" : 				{
					"destination" : [ "obj-17", 0 ],
					"order" : 1,
					"source" : [ "obj-2", 4 ]
				}

			}
, 			{
				"patchline" : 				{
					"destination" : [ "obj-17", 1 ],
					"order" : 0,
					"source" : [ "obj-2", 0 ]
				}

			}
, 			{
				"patchline" : 				{
					"destination" : [ "obj-3", 1 ],
					"order" : 0,
					"source" : [ "obj-2", 3 ]
				}

			}
, 			{
				"patchline" : 				{
					"destination" : [ "obj-3", 0 ],
					"order" : 1,
					"source" : [ "obj-2", 1 ]
				}

			}
, 			{
				"patchline" : 				{
					"destination" : [ "obj-38", 1 ],
					"order" : 1,
					"source" : [ "obj-2", 3 ]
				}

			}
, 			{
				"patchline" : 				{
					"destination" : [ "obj-38", 0 ],
					"order" : 0,
					"source" : [ "obj-2", 1 ]
				}

			}
, 			{
				"patchline" : 				{
					"destination" : [ "obj-77", 0 ],
					"order" : 0,
					"source" : [ "obj-2", 4 ]
				}

			}
, 			{
				"patchline" : 				{
					"destination" : [ "obj-61", 0 ],
					"source" : [ "obj-20", 1 ]
				}

			}
, 			{
				"patchline" : 				{
					"destination" : [ "obj-8", 0 ],
					"source" : [ "obj-20", 0 ]
				}

			}
, 			{
				"patchline" : 				{
					"destination" : [ "obj-67", 2 ],
					"source" : [ "obj-29", 0 ]
				}

			}
, 			{
				"patchline" : 				{
					"destination" : [ "obj-20", 0 ],
					"source" : [ "obj-3", 0 ]
				}

			}
, 			{
				"patchline" : 				{
					"destination" : [ "obj-20", 1 ],
					"order" : 0,
					"source" : [ "obj-38", 0 ]
				}

			}
, 			{
				"patchline" : 				{
					"destination" : [ "obj-20", 0 ],
					"order" : 1,
					"source" : [ "obj-38", 0 ]
				}

			}
, 			{
				"patchline" : 				{
					"destination" : [ "obj-37", 1 ],
					"source" : [ "obj-41", 0 ]
				}

			}
, 			{
				"patchline" : 				{
					"destination" : [ "obj-4", 1 ],
					"order" : 0,
					"source" : [ "obj-61", 0 ]
				}

			}
, 			{
				"patchline" : 				{
					"destination" : [ "obj-4", 0 ],
					"order" : 1,
					"source" : [ "obj-61", 0 ]
				}

			}
, 			{
				"patchline" : 				{
					"destination" : [ "obj-127", 1 ],
					"order" : 1,
					"source" : [ "obj-67", 1 ]
				}

			}
, 			{
				"patchline" : 				{
					"destination" : [ "obj-41", 0 ],
					"order" : 0,
					"source" : [ "obj-67", 1 ]
				}

			}
, 			{
				"patchline" : 				{
					"destination" : [ "obj-67", 1 ],
					"source" : [ "obj-77", 1 ]
				}

			}
, 			{
				"patchline" : 				{
					"destination" : [ "obj-67", 0 ],
					"source" : [ "obj-77", 0 ]
				}

			}
, 			{
				"patchline" : 				{
					"destination" : [ "obj-4", 1 ],
					"order" : 0,
					"source" : [ "obj-8", 0 ]
				}

			}
, 			{
				"patchline" : 				{
					"destination" : [ "obj-4", 0 ],
					"order" : 1,
					"source" : [ "obj-8", 0 ]
				}

			}
, 			{
				"patchline" : 				{
					"destination" : [ "obj-127", 0 ],
					"source" : [ "obj-87", 0 ]
				}

			}
 ],
		"parameters" : 		{
			"obj-133::obj-1" : [ "vst~[1]", "vst~", 0 ],
			"obj-133::obj-27" : [ "live.gain~[2]", "live.gain~[1]", 0 ],
			"obj-133::obj-41" : [ "number[7]", "number[3]", 0 ],
			"obj-133::obj-42" : [ "number[6]", "number[2]", 0 ],
			"obj-133::obj-43" : [ "number[5]", "number[1]", 0 ],
			"obj-133::obj-44" : [ "number[8]", "number", 0 ],
			"obj-1::obj-11" : [ "toggle[4]", "toggle", 0 ],
			"obj-1::obj-34" : [ "number[3]", "number[2]", 0 ],
			"obj-1::obj-38" : [ "live.dial[4]", "speed", 0 ],
			"obj-1::obj-40" : [ "live.toggle[2]", "live.toggle", 0 ],
			"obj-2::obj-20" : [ "live.text", "live.text", 0 ],
			"obj-2::obj-21" : [ "live.text[1]", "live.text", 0 ],
			"obj-2::obj-28" : [ "sensitivity", "sensitivity", 0 ],
			"obj-2::obj-31" : [ "live.text[2]", "live.text", 0 ],
			"obj-2::obj-32" : [ "lockout(ms)", "lockout", 0 ],
			"obj-2::obj-41" : [ "live.text[14]", "live.text", 0 ],
			"obj-38::obj-109" : [ "live.button[22]", "live.button", 0 ],
			"obj-38::obj-169::obj-109" : [ "live.button[13]", "live.button", 0 ],
			"obj-38::obj-169::obj-158" : [ "live.text[15]", "live.text", 0 ],
			"obj-38::obj-176" : [ "rslider[2]", "rslider", 0 ],
			"obj-38::obj-17::obj-109" : [ "live.button[21]", "live.button", 0 ],
			"obj-38::obj-17::obj-158" : [ "live.text[23]", "live.text", 0 ],
			"obj-38::obj-186::obj-109" : [ "live.button[14]", "live.button", 0 ],
			"obj-38::obj-186::obj-158" : [ "live.text[16]", "live.text", 0 ],
			"obj-38::obj-18::obj-109" : [ "live.button[20]", "live.button", 0 ],
			"obj-38::obj-18::obj-158" : [ "live.text[22]", "live.text", 0 ],
			"obj-38::obj-192::obj-109" : [ "live.button[15]", "live.button", 0 ],
			"obj-38::obj-192::obj-158" : [ "live.text[17]", "live.text", 0 ],
			"obj-38::obj-197::obj-109" : [ "live.button[16]", "live.button", 0 ],
			"obj-38::obj-197::obj-158" : [ "live.text[18]", "live.text", 0 ],
			"obj-38::obj-19::obj-109" : [ "live.button[19]", "live.button", 0 ],
			"obj-38::obj-19::obj-158" : [ "live.text[21]", "live.text", 0 ],
			"obj-38::obj-20::obj-109" : [ "live.button[18]", "live.button", 0 ],
			"obj-38::obj-20::obj-158" : [ "live.text[20]", "live.text", 0 ],
			"obj-38::obj-221::obj-109" : [ "live.button[17]", "live.button", 0 ],
			"obj-38::obj-221::obj-158" : [ "live.text[19]", "live.text", 0 ],
			"obj-38::obj-23" : [ "live.dial[18]", "variation", 0 ],
			"obj-38::obj-255" : [ "live.dial[17]", "speed", 0 ],
			"obj-38::obj-27" : [ "live.dial[10]", "spectral", 0 ],
			"obj-38::obj-31" : [ "live.dial[23]", "loudness", 0 ],
			"obj-38::obj-36" : [ "live.dial[8]", "rate", 0 ],
			"obj-38::obj-38" : [ "live.toggle[7]", "live.toggle", 0 ],
			"obj-38::obj-46" : [ "live.button[23]", "live.button", 0 ],
			"obj-38::obj-52" : [ "live.menu[1]", "live.menu", 0 ],
			"obj-38::obj-53" : [ "live.dial[16]", "voices", 0 ],
			"obj-38::obj-54" : [ "live.toggle[8]", "live.toggle", 0 ],
			"obj-38::obj-58" : [ "live.dial[15]", "attack", 0 ],
			"obj-38::obj-59" : [ "live.dial[22]", "hold", 0 ],
			"obj-38::obj-64" : [ "live.toggle[10]", "live.toggle", 0 ],
			"obj-38::obj-66" : [ "live.toggle[6]", "live.toggle", 0 ],
			"obj-38::obj-72" : [ "live.toggle[5]", "live.toggle", 0 ],
			"obj-38::obj-8" : [ "live.dial[9]", "pitch", 0 ],
			"obj-38::obj-83" : [ "live.toggle[11]", "live.toggle", 0 ],
			"obj-3::obj-109" : [ "live.button[11]", "live.button", 0 ],
			"obj-3::obj-169::obj-109" : [ "live.button[2]", "live.button", 0 ],
			"obj-3::obj-169::obj-158" : [ "live.text[3]", "live.text", 0 ],
			"obj-3::obj-176" : [ "rslider[1]", "rslider", 0 ],
			"obj-3::obj-17::obj-109" : [ "live.button[10]", "live.button", 0 ],
			"obj-3::obj-17::obj-158" : [ "live.text[11]", "live.text", 0 ],
			"obj-3::obj-186::obj-109" : [ "live.button[3]", "live.button", 0 ],
			"obj-3::obj-186::obj-158" : [ "live.text[4]", "live.text", 0 ],
			"obj-3::obj-18::obj-109" : [ "live.button[9]", "live.button", 0 ],
			"obj-3::obj-18::obj-158" : [ "live.text[10]", "live.text", 0 ],
			"obj-3::obj-192::obj-109" : [ "live.button[4]", "live.button", 0 ],
			"obj-3::obj-192::obj-158" : [ "live.text[5]", "live.text", 0 ],
			"obj-3::obj-197::obj-109" : [ "live.button[6]", "live.button", 0 ],
			"obj-3::obj-197::obj-158" : [ "live.text[6]", "live.text", 0 ],
			"obj-3::obj-19::obj-109" : [ "live.button[5]", "live.button", 0 ],
			"obj-3::obj-19::obj-158" : [ "live.text[9]", "live.text", 0 ],
			"obj-3::obj-20::obj-109" : [ "live.button[8]", "live.button", 0 ],
			"obj-3::obj-20::obj-158" : [ "live.text[8]", "live.text", 0 ],
			"obj-3::obj-221::obj-109" : [ "live.button[7]", "live.button", 0 ],
			"obj-3::obj-221::obj-158" : [ "live.text[7]", "live.text", 0 ],
			"obj-3::obj-23" : [ "live.dial[5]", "variation", 0 ],
			"obj-3::obj-255" : [ "live.dial[7]", "speed", 0 ],
			"obj-3::obj-27" : [ "live.dial[14]", "spectral", 0 ],
			"obj-3::obj-31" : [ "live.dial[13]", "loudness", 0 ],
			"obj-3::obj-36" : [ "live.dial[6]", "rate", 0 ],
			"obj-3::obj-38" : [ "live.toggle[3]", "live.toggle", 0 ],
			"obj-3::obj-46" : [ "live.button[12]", "live.button", 0 ],
			"obj-3::obj-52" : [ "live.menu", "live.menu", 0 ],
			"obj-3::obj-53" : [ "live.dial[1]", "voices", 0 ],
			"obj-3::obj-54" : [ "live.toggle", "live.toggle", 0 ],
			"obj-3::obj-58" : [ "live.dial[2]", "attack", 0 ],
			"obj-3::obj-59" : [ "live.dial[3]", "hold", 0 ],
			"obj-3::obj-64" : [ "live.toggle[12]", "live.toggle", 0 ],
			"obj-3::obj-66" : [ "live.toggle[1]", "live.toggle", 0 ],
			"obj-3::obj-72" : [ "live.toggle[4]", "live.toggle", 0 ],
			"obj-3::obj-8" : [ "live.dial[21]", "pitch", 0 ],
			"obj-3::obj-83" : [ "live.toggle[9]", "live.toggle", 0 ],
			"obj-61" : [ "gain", "R", 0 ],
			"obj-67::obj-24" : [ "live.text[13]", "live.text[8]", 0 ],
			"obj-67::obj-27" : [ "live.text[12]", "live.text[8]", 0 ],
			"obj-8" : [ "gain[1]", "L", 0 ],
			"parameterbanks" : 			{
				"0" : 				{
					"index" : 0,
					"name" : "",
					"parameters" : [ "-", "-", "-", "-", "-", "-", "-", "-" ]
				}

			}
,
			"parameter_overrides" : 			{
				"obj-133::obj-27" : 				{
					"parameter_longname" : "live.gain~[2]"
				}
,
				"obj-1::obj-38" : 				{
					"parameter_longname" : "live.dial[4]"
				}
,
				"obj-1::obj-40" : 				{
					"parameter_longname" : "live.toggle[2]"
				}
,
				"obj-2::obj-32" : 				{
					"parameter_invisible" : 0,
					"parameter_modmode" : 0,
					"parameter_range" : [ "2", "5", "10", "20", "30", "40", "60", "80", "100", "120", "150", "200", "300", "400", "500", "600", "700", "800", "900", "1000" ],
					"parameter_type" : 2,
					"parameter_units" : "ms",
					"parameter_unitstyle" : 9
				}
,
				"obj-2::obj-41" : 				{
					"parameter_invisible" : 0,
					"parameter_longname" : "live.text[14]",
					"parameter_modmode" : 0,
					"parameter_type" : 2,
					"parameter_unitstyle" : 10
				}
,
				"obj-38::obj-109" : 				{
					"parameter_longname" : "live.button[22]"
				}
,
				"obj-38::obj-169::obj-109" : 				{
					"parameter_longname" : "live.button[13]"
				}
,
				"obj-38::obj-169::obj-158" : 				{
					"parameter_longname" : "live.text[15]"
				}
,
				"obj-38::obj-17::obj-109" : 				{
					"parameter_longname" : "live.button[21]"
				}
,
				"obj-38::obj-17::obj-158" : 				{
					"parameter_longname" : "live.text[23]"
				}
,
				"obj-38::obj-186::obj-109" : 				{
					"parameter_longname" : "live.button[14]"
				}
,
				"obj-38::obj-186::obj-158" : 				{
					"parameter_longname" : "live.text[16]"
				}
,
				"obj-38::obj-18::obj-109" : 				{
					"parameter_longname" : "live.button[20]"
				}
,
				"obj-38::obj-18::obj-158" : 				{
					"parameter_longname" : "live.text[22]"
				}
,
				"obj-38::obj-192::obj-109" : 				{
					"parameter_longname" : "live.button[15]"
				}
,
				"obj-38::obj-192::obj-158" : 				{
					"parameter_longname" : "live.text[17]"
				}
,
				"obj-38::obj-197::obj-109" : 				{
					"parameter_longname" : "live.button[16]"
				}
,
				"obj-38::obj-197::obj-158" : 				{
					"parameter_longname" : "live.text[18]"
				}
,
				"obj-38::obj-19::obj-109" : 				{
					"parameter_longname" : "live.button[19]"
				}
,
				"obj-38::obj-19::obj-158" : 				{
					"parameter_longname" : "live.text[21]"
				}
,
				"obj-38::obj-20::obj-109" : 				{
					"parameter_longname" : "live.button[18]"
				}
,
				"obj-38::obj-20::obj-158" : 				{
					"parameter_longname" : "live.text[20]"
				}
,
				"obj-38::obj-221::obj-109" : 				{
					"parameter_longname" : "live.button[17]"
				}
,
				"obj-38::obj-221::obj-158" : 				{
					"parameter_longname" : "live.text[19]"
				}
,
				"obj-38::obj-23" : 				{
					"parameter_longname" : "live.dial[18]"
				}
,
				"obj-38::obj-255" : 				{
					"parameter_longname" : "live.dial[17]"
				}
,
				"obj-38::obj-27" : 				{
					"parameter_longname" : "live.dial[10]"
				}
,
				"obj-38::obj-31" : 				{
					"parameter_longname" : "live.dial[23]"
				}
,
				"obj-38::obj-36" : 				{
					"parameter_longname" : "live.dial[8]"
				}
,
				"obj-38::obj-38" : 				{
					"parameter_longname" : "live.toggle[7]"
				}
,
				"obj-38::obj-46" : 				{
					"parameter_longname" : "live.button[23]"
				}
,
				"obj-38::obj-52" : 				{
					"parameter_longname" : "live.menu[1]"
				}
,
				"obj-38::obj-53" : 				{
					"parameter_longname" : "live.dial[16]"
				}
,
				"obj-38::obj-54" : 				{
					"parameter_longname" : "live.toggle[8]"
				}
,
				"obj-38::obj-58" : 				{
					"parameter_longname" : "live.dial[15]"
				}
,
				"obj-38::obj-59" : 				{
					"parameter_longname" : "live.dial[22]"
				}
,
				"obj-38::obj-64" : 				{
					"parameter_longname" : "live.toggle[10]"
				}
,
				"obj-38::obj-66" : 				{
					"parameter_longname" : "live.toggle[6]"
				}
,
				"obj-38::obj-72" : 				{
					"parameter_longname" : "live.toggle[5]"
				}
,
				"obj-38::obj-8" : 				{
					"parameter_longname" : "live.dial[9]"
				}
,
				"obj-38::obj-83" : 				{
					"parameter_longname" : "live.toggle[11]"
				}
,
				"obj-3::obj-109" : 				{
					"parameter_longname" : "live.button[11]"
				}
,
				"obj-3::obj-169::obj-109" : 				{
					"parameter_longname" : "live.button[2]"
				}
,
				"obj-3::obj-169::obj-158" : 				{
					"parameter_longname" : "live.text[3]"
				}
,
				"obj-3::obj-17::obj-109" : 				{
					"parameter_longname" : "live.button[10]"
				}
,
				"obj-3::obj-17::obj-158" : 				{
					"parameter_longname" : "live.text[11]"
				}
,
				"obj-3::obj-186::obj-109" : 				{
					"parameter_longname" : "live.button[3]"
				}
,
				"obj-3::obj-186::obj-158" : 				{
					"parameter_longname" : "live.text[4]"
				}
,
				"obj-3::obj-18::obj-109" : 				{
					"parameter_longname" : "live.button[9]"
				}
,
				"obj-3::obj-18::obj-158" : 				{
					"parameter_longname" : "live.text[10]"
				}
,
				"obj-3::obj-192::obj-109" : 				{
					"parameter_longname" : "live.button[4]"
				}
,
				"obj-3::obj-192::obj-158" : 				{
					"parameter_longname" : "live.text[5]"
				}
,
				"obj-3::obj-197::obj-109" : 				{
					"parameter_longname" : "live.button[6]"
				}
,
				"obj-3::obj-197::obj-158" : 				{
					"parameter_longname" : "live.text[6]"
				}
,
				"obj-3::obj-19::obj-109" : 				{
					"parameter_longname" : "live.button[5]"
				}
,
				"obj-3::obj-19::obj-158" : 				{
					"parameter_longname" : "live.text[9]"
				}
,
				"obj-3::obj-20::obj-109" : 				{
					"parameter_longname" : "live.button[8]"
				}
,
				"obj-3::obj-20::obj-158" : 				{
					"parameter_longname" : "live.text[8]"
				}
,
				"obj-3::obj-221::obj-109" : 				{
					"parameter_longname" : "live.button[7]"
				}
,
				"obj-3::obj-221::obj-158" : 				{
					"parameter_longname" : "live.text[7]"
				}
,
				"obj-3::obj-23" : 				{
					"parameter_longname" : "live.dial[5]"
				}
,
				"obj-3::obj-255" : 				{
					"parameter_longname" : "live.dial[7]"
				}
,
				"obj-3::obj-27" : 				{
					"parameter_longname" : "live.dial[14]"
				}
,
				"obj-3::obj-31" : 				{
					"parameter_longname" : "live.dial[13]"
				}
,
				"obj-3::obj-36" : 				{
					"parameter_longname" : "live.dial[6]"
				}
,
				"obj-3::obj-38" : 				{
					"parameter_longname" : "live.toggle[3]"
				}
,
				"obj-3::obj-46" : 				{
					"parameter_longname" : "live.button[12]"
				}
,
				"obj-3::obj-52" : 				{
					"parameter_longname" : "live.menu"
				}
,
				"obj-3::obj-53" : 				{
					"parameter_longname" : "live.dial[1]"
				}
,
				"obj-3::obj-54" : 				{
					"parameter_longname" : "live.toggle"
				}
,
				"obj-3::obj-58" : 				{
					"parameter_longname" : "live.dial[2]"
				}
,
				"obj-3::obj-59" : 				{
					"parameter_longname" : "live.dial[3]"
				}
,
				"obj-3::obj-64" : 				{
					"parameter_longname" : "live.toggle[12]"
				}
,
				"obj-3::obj-66" : 				{
					"parameter_longname" : "live.toggle[1]"
				}
,
				"obj-3::obj-72" : 				{
					"parameter_longname" : "live.toggle[4]"
				}
,
				"obj-3::obj-8" : 				{
					"parameter_longname" : "live.dial[21]"
				}
,
				"obj-3::obj-83" : 				{
					"parameter_longname" : "live.toggle[9]"
				}
,
				"obj-67::obj-24" : 				{
					"parameter_longname" : "live.text[13]"
				}
,
				"obj-67::obj-27" : 				{
					"parameter_longname" : "live.text[12]"
				}

			}
,
			"inherited_shortname" : 1
		}
,
		"dependency_cache" : [ 			{
				"name" : "GMM.maxpat",
				"bootpath" : "~/Documents/Max 8/Projects/phrase-and-voice/phrase and voice v2/patchers",
				"patcherrelativepath" : "../../phrase-and-voice/phrase and voice v2/patchers",
				"type" : "JSON",
				"implicit" : 1
			}
, 			{
				"name" : "_filter-to-corpus.maxpat",
				"bootpath" : "~/Documents/Max 8/Projects/sp-tools/patchers",
				"patcherrelativepath" : ".",
				"type" : "JSON",
				"implicit" : 1
			}
, 			{
				"name" : "_filter_slider.maxpat",
				"bootpath" : "~/Documents/Max 8/Projects/sp-tools/patchers",
				"patcherrelativepath" : ".",
				"type" : "JSON",
				"implicit" : 1
			}
, 			{
				"name" : "_input-processor.maxpat",
				"bootpath" : "~/Documents/Max 8/Projects/sp-tools/patchers",
				"patcherrelativepath" : ".",
				"type" : "JSON",
				"implicit" : 1
			}
, 			{
				"name" : "_midi-sync.maxpat",
				"bootpath" : "~/Documents/Max 8/Projects/sp-tools/patchers",
				"patcherrelativepath" : ".",
				"type" : "JSON",
				"implicit" : 1
			}
, 			{
				"name" : "_onset-frame.maxpat",
				"bootpath" : "~/Documents/Max 8/Projects/sp-tools/patchers",
				"patcherrelativepath" : ".",
				"type" : "JSON",
				"implicit" : 1
			}
, 			{
				"name" : "_ramp-engine.maxpat",
				"bootpath" : "~/Documents/Max 8/Projects/sp-tools/patchers",
				"patcherrelativepath" : ".",
				"type" : "JSON",
				"implicit" : 1
			}
, 			{
				"name" : "_speed-controller.maxpat",
				"bootpath" : "~/Documents/Max 8/Projects/sp-tools/patchers",
				"patcherrelativepath" : ".",
				"type" : "JSON",
				"implicit" : 1
			}
, 			{
				"name" : "cello-timbres.wav",
				"bootpath" : "~/Documents/Max 8/SP-Tools-Data",
				"patcherrelativepath" : "../../../SP-Tools-Data",
				"type" : "WAVE",
				"implicit" : 1
			}
, 			{
				"name" : "fluid.ampfeature~.mxo",
				"type" : "iLaX"
			}
, 			{
				"name" : "fluid.buf2list.mxo",
				"type" : "iLaX"
			}
, 			{
				"name" : "fluid.bufcompose~.mxo",
				"type" : "iLaX"
			}
, 			{
				"name" : "fluid.bufflatten~.mxo",
				"type" : "iLaX"
			}
, 			{
				"name" : "fluid.bufloudness~.mxo",
				"type" : "iLaX"
			}
, 			{
				"name" : "fluid.bufmelbands~.mxo",
				"type" : "iLaX"
			}
, 			{
				"name" : "fluid.bufmfcc~.mxo",
				"type" : "iLaX"
			}
, 			{
				"name" : "fluid.bufpitch~.mxo",
				"type" : "iLaX"
			}
, 			{
				"name" : "fluid.bufscale~.mxo",
				"type" : "iLaX"
			}
, 			{
				"name" : "fluid.bufselectevery~.mxo",
				"type" : "iLaX"
			}
, 			{
				"name" : "fluid.bufspectralshape~.mxo",
				"type" : "iLaX"
			}
, 			{
				"name" : "fluid.bufstats~.mxo",
				"type" : "iLaX"
			}
, 			{
				"name" : "fluid.datasetquery~.mxo",
				"type" : "iLaX"
			}
, 			{
				"name" : "fluid.dataset~.mxo",
				"type" : "iLaX"
			}
, 			{
				"name" : "fluid.kdtree~.mxo",
				"type" : "iLaX"
			}
, 			{
				"name" : "fluid.labelset~.mxo",
				"type" : "iLaX"
			}
, 			{
				"name" : "fluid.list2buf.mxo",
				"type" : "iLaX"
			}
, 			{
				"name" : "fluid.mlpregressor~.mxo",
				"type" : "iLaX"
			}
, 			{
				"name" : "fluid.normalize~.mxo",
				"type" : "iLaX"
			}
, 			{
				"name" : "fluid.plotter.js",
				"bootpath" : "~/Documents/Max 8/Packages/FluidCorpusManipulation/jsui",
				"patcherrelativepath" : "../../../Packages/FluidCorpusManipulation/jsui",
				"type" : "TEXT",
				"implicit" : 1
			}
, 			{
				"name" : "fluid.robustscale~.mxo",
				"type" : "iLaX"
			}
, 			{
				"name" : "fluid.umap~.mxo",
				"type" : "iLaX"
			}
, 			{
				"name" : "imubu.mxo",
				"type" : "iLaX"
			}
, 			{
				"name" : "mubu.gmm.mxo",
				"type" : "iLaX"
			}
, 			{
				"name" : "mubu.mxo",
				"type" : "iLaX"
			}
, 			{
				"name" : "mubu.record.mxo",
				"type" : "iLaX"
			}
, 			{
				"name" : "mubu.track.mxo",
				"type" : "iLaX"
			}
, 			{
				"name" : "performance.json",
				"bootpath" : "~/Documents/Max 8/Projects/sp-tools/presets",
				"patcherrelativepath" : "../presets",
				"type" : "JSON",
				"implicit" : 1
			}
, 			{
				"name" : "sp.controllers.maxpat",
				"bootpath" : "~/Documents/Max 8/Packages/SP-tools-0.7/patchers",
				"patcherrelativepath" : "../../../Packages/SP-tools-0.7/patchers",
				"type" : "JSON",
				"implicit" : 1
			}
, 			{
				"name" : "sp.corpusmatch.maxpat",
				"bootpath" : "~/Documents/Max 8/Packages/SP-tools-0.7/patchers",
				"patcherrelativepath" : "../../../Packages/SP-tools-0.7/patchers",
				"type" : "JSON",
				"implicit" : 1
			}
, 			{
				"name" : "sp.corpusplayer~.maxpat",
				"bootpath" : "~/Documents/Max 8/Packages/SP-tools-0.7/patchers",
				"patcherrelativepath" : "../../../Packages/SP-tools-0.7/patchers",
				"type" : "JSON",
				"implicit" : 1
			}
, 			{
				"name" : "sp.crossbank~.maxpat",
				"bootpath" : "~/Documents/Max 8/Packages/SP-tools-0.7/patchers",
				"patcherrelativepath" : "../../../Packages/SP-tools-0.7/patchers",
				"type" : "JSON",
				"implicit" : 1
			}
, 			{
				"name" : "sp.datagranular.maxpat",
				"bootpath" : "~/Documents/Max 8/Packages/SP-tools-0.7/patchers",
				"patcherrelativepath" : "../../../Packages/SP-tools-0.7/patchers",
				"type" : "JSON",
				"implicit" : 1
			}
, 			{
				"name" : "sp.descriptorframe.maxpat",
				"bootpath" : "~/Documents/Max 8/Packages/SP-tools-0.7/patchers",
				"patcherrelativepath" : "../../../Packages/SP-tools-0.7/patchers",
				"type" : "JSON",
				"implicit" : 1
			}
, 			{
				"name" : "sp.filter.maxpat",
				"bootpath" : "~/Documents/Max 8/Packages/SP-tools-0.7/patchers",
				"patcherrelativepath" : "../../../Packages/SP-tools-0.7/patchers",
				"type" : "JSON",
				"implicit" : 1
			}
, 			{
				"name" : "sp.melbandframe.maxpat",
				"bootpath" : "~/Documents/Max 8/Packages/SP-tools-0.7/patchers",
				"patcherrelativepath" : "../../../Packages/SP-tools-0.7/patchers",
				"type" : "JSON",
				"implicit" : 1
			}
, 			{
				"name" : "sp.mfccframe.maxpat",
				"bootpath" : "~/Documents/Max 8/Packages/SP-tools-0.7/patchers",
				"patcherrelativepath" : "../../../Packages/SP-tools-0.7/patchers",
				"type" : "JSON",
				"implicit" : 1
			}
, 			{
				"name" : "sp.onset~.maxpat",
				"bootpath" : "~/Documents/Max 8/Packages/SP-tools-0.7/patchers",
				"patcherrelativepath" : "../../../Packages/SP-tools-0.7/patchers",
				"type" : "JSON",
				"implicit" : 1
			}
, 			{
				"name" : "sp.playbackcore~.maxpat",
				"bootpath" : "~/Documents/Max 8/Packages/SP-tools-0.7/patchers",
				"patcherrelativepath" : "../../../Packages/SP-tools-0.7/patchers",
				"type" : "JSON",
				"implicit" : 1
			}
, 			{
				"name" : "sp.plotter.maxpat",
				"bootpath" : "~/Documents/Max 8/Packages/SP-tools-0.7/patchers",
				"patcherrelativepath" : "../../../Packages/SP-tools-0.7/patchers",
				"type" : "JSON",
				"implicit" : 1
			}
, 			{
				"name" : "sp.ramp.maxpat",
				"bootpath" : "~/Documents/Max 8/Packages/SP-tools-0.7/patchers",
				"patcherrelativepath" : "../../../Packages/SP-tools-0.7/patchers",
				"type" : "JSON",
				"implicit" : 1
			}
, 			{
				"name" : "sp.speed.maxpat",
				"bootpath" : "~/Documents/Max 8/Packages/SP-tools-0.7/patchers",
				"patcherrelativepath" : "../../../Packages/SP-tools-0.7/patchers",
				"type" : "JSON",
				"implicit" : 1
			}
 ],
		"autosave" : 0
	}

}
