{
	"patcher" : 	{
		"fileversion" : 1,
		"appversion" : 		{
			"major" : 9,
			"minor" : 0,
			"revision" : 0,
			"architecture" : "x64",
			"modernui" : 1
		}
,
		"classnamespace" : "box",
		"rect" : [ 34.0, 115.0, 1605.0, 901.0 ],
		"gridsize" : [ 15.0, 15.0 ],
		"boxes" : [ 			{
				"box" : 				{
					"bgmode" : 0,
					"border" : 0,
					"clickthrough" : 0,
					"enablehscroll" : 0,
					"enablevscroll" : 0,
					"id" : "obj-13",
					"lockeddragscroll" : 0,
					"lockedsize" : 0,
					"maxclass" : "bpatcher",
					"name" : "_novelty.maxpat",
					"numinlets" : 1,
					"numoutlets" : 3,
					"offset" : [ 0.0, 0.0 ],
					"outlettype" : [ "bang", "signal", "signal" ],
					"patching_rect" : [ 229.0, 11.0, 160.0, 248.0 ],
					"varname" : "_novelty",
					"viewvisibility" : 1
				}

			}
, 			{
				"box" : 				{
					"id" : "obj-25",
					"maxclass" : "newobj",
					"numinlets" : 2,
					"numoutlets" : 2,
					"outlettype" : [ "", "" ],
					"patching_rect" : [ 71.0, 547.0, 47.0, 22.0 ],
					"text" : "zl nth 3"
				}

			}
, 			{
				"box" : 				{
					"id" : "obj-17",
					"maxclass" : "newobj",
					"numinlets" : 2,
					"numoutlets" : 2,
					"outlettype" : [ "", "" ],
					"patching_rect" : [ 19.0, 353.0, 47.0, 22.0 ],
					"text" : "zl nth 4"
				}

			}
, 			{
				"box" : 				{
					"bgmode" : 0,
					"border" : 0,
					"clickthrough" : 0,
					"enablehscroll" : 0,
					"enablevscroll" : 0,
					"id" : "obj-16",
					"lockeddragscroll" : 0,
					"lockedsize" : 0,
					"maxclass" : "bpatcher",
					"name" : "_shertler-kitchensink.maxpat",
					"numinlets" : 1,
					"numoutlets" : 6,
					"offset" : [ 0.0, 0.0 ],
					"outlettype" : [ "", "signal", "signal", "", "signal", "signal" ],
					"patching_rect" : [ 12.0, 5.0, 205.0, 331.500000311054464 ],
					"viewvisibility" : 1
				}

			}
, 			{
				"box" : 				{
					"bgmode" : 0,
					"border" : 0,
					"clickthrough" : 0,
					"enablehscroll" : 0,
					"enablevscroll" : 0,
					"id" : "obj-1",
					"lockeddragscroll" : 0,
					"lockedsize" : 0,
					"maxclass" : "bpatcher",
					"name" : "__kitchen_sink_looper.maxpat",
					"numinlets" : 3,
					"numoutlets" : 1,
					"offset" : [ 0.0, 0.0 ],
					"outlettype" : [ "" ],
					"patching_rect" : [ 19.0, 697.0, 529.0, 99.0 ],
					"varname" : "__kitchen_sink_looper",
					"viewvisibility" : 1
				}

			}
, 			{
				"box" : 				{
					"id" : "obj-36",
					"maxclass" : "message",
					"numinlets" : 2,
					"numoutlets" : 1,
					"outlettype" : [ "" ],
					"patching_rect" : [ 889.0, 1.0, 275.0, 22.0 ],
					"text" : "readfolder ~/Dropbox/audio/HarpCorpus/cluster-2/"
				}

			}
, 			{
				"box" : 				{
					"id" : "obj-239",
					"maxclass" : "newobj",
					"numinlets" : 6,
					"numoutlets" : 1,
					"outlettype" : [ "" ],
					"patching_rect" : [ 575.0, 427.0, 83.0, 22.0 ],
					"text" : "scale 1 8 0. 1."
				}

			}
, 			{
				"box" : 				{
					"id" : "obj-236",
					"maxclass" : "message",
					"numinlets" : 2,
					"numoutlets" : 1,
					"outlettype" : [ "" ],
					"patching_rect" : [ 747.5, 403.5, 484.0, 22.0 ],
					"text" : "readfolder ~/Dropbox/audio/sound-studio-samples/drums/ProducerSpot-808-Drums/Toms"
				}

			}
, 			{
				"box" : 				{
					"id" : "obj-235",
					"maxclass" : "newobj",
					"numinlets" : 1,
					"numoutlets" : 1,
					"outlettype" : [ "int" ],
					"patching_rect" : [ 1017.0, 1264.0, 22.0, 22.0 ],
					"text" : "t 1"
				}

			}
, 			{
				"box" : 				{
					"id" : "obj-234",
					"maxclass" : "newobj",
					"numinlets" : 2,
					"numoutlets" : 1,
					"outlettype" : [ "bang" ],
					"patching_rect" : [ 1022.0, 1229.0, 96.0, 22.0 ],
					"text" : "metro @active 1"
				}

			}
, 			{
				"box" : 				{
					"bgmode" : 0,
					"border" : 0,
					"clickthrough" : 0,
					"enablehscroll" : 0,
					"enablevscroll" : 0,
					"id" : "obj-232",
					"lockeddragscroll" : 0,
					"lockedsize" : 0,
					"maxclass" : "bpatcher",
					"name" : "dk.sampler~.maxpat",
					"numinlets" : 1,
					"numoutlets" : 2,
					"offset" : [ 0.0, 0.0 ],
					"outlettype" : [ "signal", "signal" ],
					"patching_rect" : [ 690.5, 433.755259166666747, 322.0, 201.0 ],
					"varname" : "dk.sampler~[1]",
					"viewvisibility" : 1
				}

			}
, 			{
				"box" : 				{
					"id" : "obj-233",
					"lastchannelcount" : 0,
					"maxclass" : "live.gain~",
					"numinlets" : 2,
					"numoutlets" : 5,
					"orientation" : 1,
					"outlettype" : [ "signal", "signal", "", "float", "list" ],
					"parameter_enable" : 1,
					"patching_rect" : [ 703.999999999999545, 655.5, 185.0, 47.0 ],
					"presentation" : 1,
					"presentation_rect" : [ 1303.5, 159.999999344348907, 235.0, 47.0 ],
					"saved_attribute_attributes" : 					{
						"valueof" : 						{
							"parameter_longname" : "gain[3]",
							"parameter_mmax" : 6.0,
							"parameter_mmin" : -70.0,
							"parameter_modmode" : 0,
							"parameter_osc_name" : "<default>",
							"parameter_shortname" : "player 1",
							"parameter_type" : 0,
							"parameter_unitstyle" : 4
						}

					}
,
					"varname" : "live.gain~[1]"
				}

			}
, 			{
				"box" : 				{
					"id" : "obj-231",
					"maxclass" : "newobj",
					"numinlets" : 1,
					"numoutlets" : 4,
					"outlettype" : [ "", "", "", "" ],
					"patching_rect" : [ 556.0, 48.0, 56.0, 22.0 ],
					"restore" : 					{
						"granular-rate-relative" : [ 0.376131025307946 ],
						"live.gain~" : [ -70.0 ],
						"live.gain~[1]" : [ -59.294117647058634 ]
					}
,
					"text" : "autopattr",
					"varname" : "u973014298"
				}

			}
, 			{
				"box" : 				{
					"color" : [ 0.968627450980392, 0.431372549019608, 0.431372549019608, 1.0 ],
					"id" : "obj-230",
					"maxclass" : "newobj",
					"numinlets" : 0,
					"numoutlets" : 1,
					"outlettype" : [ "" ],
					"patching_rect" : [ 1571.823531999999886, 1223.0, 65.0, 22.0 ],
					"text" : "r midi-bpm"
				}

			}
, 			{
				"box" : 				{
					"attr" : "tempo",
					"fontface" : 0,
					"fontname" : "Arial",
					"fontsize" : 13.0,
					"id" : "obj-210",
					"maxclass" : "attrui",
					"numinlets" : 1,
					"numoutlets" : 1,
					"outlettype" : [ "" ],
					"parameter_enable" : 0,
					"patching_rect" : [ 1571.823531999999886, 1251.0, 199.0, 23.0 ]
				}

			}
, 			{
				"box" : 				{
					"attr" : "clocksource",
					"fontface" : 0,
					"fontname" : "Arial",
					"fontsize" : 13.0,
					"id" : "obj-211",
					"maxclass" : "attrui",
					"numinlets" : 1,
					"numoutlets" : 1,
					"outlettype" : [ "" ],
					"parameter_enable" : 0,
					"patching_rect" : [ 1576.323531999999886, 1286.0, 199.0, 23.0 ]
				}

			}
, 			{
				"box" : 				{
					"fontname" : "Arial",
					"fontsize" : 13.0,
					"id" : "obj-212",
					"maxclass" : "comment",
					"numinlets" : 1,
					"numoutlets" : 0,
					"patching_rect" : [ 1712.323531999999886, 1440.0, 63.0, 21.0 ],
					"text" : "state",
					"textcolor" : [ 0.501961, 0.501961, 0.501961, 1.0 ]
				}

			}
, 			{
				"box" : 				{
					"fontname" : "Arial",
					"fontsize" : 13.0,
					"format" : 6,
					"id" : "obj-213",
					"maxclass" : "flonum",
					"numinlets" : 1,
					"numoutlets" : 2,
					"outlettype" : [ "", "bang" ],
					"parameter_enable" : 0,
					"patching_rect" : [ 1680.573531999999886, 1474.0, 79.0, 23.0 ]
				}

			}
, 			{
				"box" : 				{
					"fontname" : "Arial",
					"fontsize" : 13.0,
					"id" : "obj-214",
					"maxclass" : "newobj",
					"numinlets" : 2,
					"numoutlets" : 2,
					"outlettype" : [ "bang", "" ],
					"patching_rect" : [ 1481.823531999999886, 1317.0, 39.0, 23.0 ],
					"text" : "sel 0"
				}

			}
, 			{
				"box" : 				{
					"id" : "obj-215",
					"maxclass" : "toggle",
					"numinlets" : 1,
					"numoutlets" : 1,
					"outlettype" : [ "int" ],
					"parameter_enable" : 0,
					"patching_rect" : [ 1684.573531999999886, 1440.0, 20.0, 20.0 ],
					"svg" : ""
				}

			}
, 			{
				"box" : 				{
					"fontname" : "Arial",
					"fontsize" : 13.0,
					"id" : "obj-216",
					"maxclass" : "message",
					"numinlets" : 2,
					"numoutlets" : 1,
					"outlettype" : [ "" ],
					"patching_rect" : [ 1706.573531999999886, 1400.0, 50.0, 23.0 ],
					"text" : "4 4"
				}

			}
, 			{
				"box" : 				{
					"fontname" : "Arial",
					"fontsize" : 13.0,
					"format" : 6,
					"id" : "obj-217",
					"maxclass" : "flonum",
					"numinlets" : 1,
					"numoutlets" : 2,
					"outlettype" : [ "", "bang" ],
					"parameter_enable" : 0,
					"patching_rect" : [ 1633.323531999999886, 1386.0, 66.0, 23.0 ]
				}

			}
, 			{
				"box" : 				{
					"fontname" : "Arial",
					"fontsize" : 13.0,
					"id" : "obj-218",
					"maxclass" : "number",
					"numinlets" : 1,
					"numoutlets" : 2,
					"outlettype" : [ "", "bang" ],
					"parameter_enable" : 0,
					"patching_rect" : [ 1579.323531999999886, 1386.0, 50.0, 23.0 ]
				}

			}
, 			{
				"box" : 				{
					"fontname" : "Arial",
					"fontsize" : 13.0,
					"id" : "obj-219",
					"maxclass" : "number",
					"numinlets" : 1,
					"numoutlets" : 2,
					"outlettype" : [ "", "bang" ],
					"parameter_enable" : 0,
					"patching_rect" : [ 1526.323531999999886, 1386.0, 50.0, 23.0 ]
				}

			}
, 			{
				"box" : 				{
					"id" : "obj-220",
					"maxclass" : "toggle",
					"numinlets" : 1,
					"numoutlets" : 1,
					"outlettype" : [ "int" ],
					"parameter_enable" : 0,
					"patching_rect" : [ 1481.823531999999886, 1277.0, 30.0, 30.0 ],
					"svg" : ""
				}

			}
, 			{
				"box" : 				{
					"fontname" : "Arial",
					"fontsize" : 13.0,
					"id" : "obj-221",
					"maxclass" : "newobj",
					"numinlets" : 2,
					"numoutlets" : 9,
					"outlettype" : [ "int", "int", "float", "float", "float", "", "int", "float", "" ],
					"patching_rect" : [ 1526.323531999999886, 1347.0, 357.0, 23.0 ],
					"text" : "transport"
				}

			}
, 			{
				"box" : 				{
					"fontname" : "Arial",
					"fontsize" : 13.0,
					"id" : "obj-222",
					"maxclass" : "newobj",
					"numinlets" : 2,
					"numoutlets" : 1,
					"outlettype" : [ "bang" ],
					"patching_rect" : [ 1526.323531999999886, 1181.0, 210.0, 23.0 ],
					"text" : "metro @interval 1 ticks @active 1"
				}

			}
, 			{
				"box" : 				{
					"fontname" : "Arial",
					"fontsize" : 13.0,
					"id" : "obj-225",
					"maxclass" : "comment",
					"numinlets" : 1,
					"numoutlets" : 0,
					"patching_rect" : [ 1767.323531999999886, 1474.0, 63.0, 21.0 ],
					"text" : "raw ticks",
					"textcolor" : [ 0.501961, 0.501961, 0.501961, 1.0 ]
				}

			}
, 			{
				"box" : 				{
					"color" : [ 0.968627450980392, 0.431372549019608, 0.431372549019608, 1.0 ],
					"id" : "obj-165",
					"maxclass" : "newobj",
					"numinlets" : 1,
					"numoutlets" : 0,
					"patching_rect" : [ 1466.823531999999886, 1119.159727891437797, 131.0, 22.0 ],
					"text" : "s bpm-ms-subdivisions"
				}

			}
, 			{
				"box" : 				{
					"id" : "obj-64",
					"maxclass" : "message",
					"numinlets" : 2,
					"numoutlets" : 1,
					"outlettype" : [ "" ],
					"patching_rect" : [ 1373.323531999999886, 857.0, 49.0, 22.0 ],
					"text" : "bpm $1"
				}

			}
, 			{
				"box" : 				{
					"id" : "obj-167",
					"maxclass" : "newobj",
					"numinlets" : 1,
					"numoutlets" : 2,
					"outlettype" : [ "float", "bang" ],
					"patching_rect" : [ 1484.323531999999886, 1041.0, 29.5, 22.0 ],
					"text" : "t f b"
				}

			}
, 			{
				"box" : 				{
					"id" : "obj-34",
					"maxclass" : "message",
					"numinlets" : 2,
					"numoutlets" : 1,
					"outlettype" : [ "" ],
					"patching_rect" : [ 1616.823531999999886, 1057.0, 222.0, 22.0 ],
					"text" : "0.0625 0.125 0.25 0.33 0.5 1 1.5 2. 3. 4."
				}

			}
, 			{
				"box" : 				{
					"id" : "obj-26",
					"maxclass" : "newobj",
					"numinlets" : 2,
					"numoutlets" : 1,
					"outlettype" : [ "" ],
					"patching_rect" : [ 1466.823531999999886, 1089.0, 169.0, 22.0 ],
					"text" : "vexpr $i1 *$f2 @scalarmode 1"
				}

			}
, 			{
				"box" : 				{
					"id" : "obj-168",
					"maxclass" : "newobj",
					"numinlets" : 2,
					"numoutlets" : 1,
					"outlettype" : [ "int" ],
					"patching_rect" : [ 1484.323531999999886, 1004.0, 29.5, 22.0 ],
					"text" : "/ 1"
				}

			}
, 			{
				"box" : 				{
					"id" : "obj-169",
					"maxclass" : "newobj",
					"numinlets" : 1,
					"numoutlets" : 2,
					"outlettype" : [ "int", "int" ],
					"patching_rect" : [ 1484.323531999999886, 973.0, 55.0, 22.0 ],
					"text" : "t 60000 i"
				}

			}
, 			{
				"box" : 				{
					"color" : [ 0.968627450980392, 0.431372549019608, 0.431372549019608, 1.0 ],
					"id" : "obj-170",
					"maxclass" : "newobj",
					"numinlets" : 1,
					"numoutlets" : 0,
					"patching_rect" : [ 1285.823531999999886, 950.0, 67.0, 22.0 ],
					"text" : "s midi-bpm"
				}

			}
, 			{
				"box" : 				{
					"id" : "obj-171",
					"maxclass" : "comment",
					"numinlets" : 1,
					"numoutlets" : 0,
					"patching_rect" : [ 1544.323531999999886, 912.0, 150.0, 20.0 ],
					"presentation" : 1,
					"presentation_rect" : [ 55.0, 25.0, 150.0, 20.0 ],
					"text" : "BPM"
				}

			}
, 			{
				"box" : 				{
					"id" : "obj-3",
					"maxclass" : "newobj",
					"numinlets" : 1,
					"numoutlets" : 1,
					"outlettype" : [ "bang" ],
					"patching_rect" : [ 1544.323531999999886, 777.0, 58.0, 22.0 ],
					"text" : "loadbang"
				}

			}
, 			{
				"box" : 				{
					"id" : "obj-172",
					"maxclass" : "newobj",
					"numinlets" : 2,
					"numoutlets" : 2,
					"outlettype" : [ "", "" ],
					"patching_rect" : [ 1285.823531999999886, 912.0, 63.0, 22.0 ],
					"text" : "route bpm"
				}

			}
, 			{
				"box" : 				{
					"id" : "obj-173",
					"maxclass" : "number",
					"numinlets" : 1,
					"numoutlets" : 2,
					"outlettype" : [ "", "bang" ],
					"parameter_enable" : 0,
					"patching_rect" : [ 1484.323531999999886, 910.0, 50.0, 22.0 ],
					"presentation" : 1,
					"presentation_rect" : [ 1.0, 25.0, 50.0, 22.0 ]
				}

			}
, 			{
				"box" : 				{
					"id" : "obj-174",
					"maxclass" : "message",
					"numinlets" : 2,
					"numoutlets" : 1,
					"outlettype" : [ "" ],
					"patching_rect" : [ 1219.323531999999886, 777.0, 311.0, 22.0 ],
					"text" : "\"PreSonus AudioBox iTwo MIDI OUT\""
				}

			}
, 			{
				"box" : 				{
					"id" : "obj-175",
					"maxclass" : "newobj",
					"numinlets" : 1,
					"numoutlets" : 3,
					"outlettype" : [ "signal", "", "int" ],
					"patching_rect" : [ 1219.323531999999886, 857.0, 152.0, 22.0 ],
					"text" : "sync~"
				}

			}
, 			{
				"box" : 				{
					"attr" : "rtport",
					"id" : "obj-176",
					"maxclass" : "attrui",
					"numinlets" : 1,
					"numoutlets" : 1,
					"outlettype" : [ "" ],
					"parameter_enable" : 0,
					"patching_rect" : [ 1219.323531999999886, 808.0, 311.0, 22.0 ],
					"presentation" : 1,
					"presentation_rect" : [ 1.0, 1.0, 181.0, 22.0 ],
					"text_width" : 64.0
				}

			}
, 			{
				"box" : 				{
					"id" : "obj-179",
					"maxclass" : "message",
					"numinlets" : 2,
					"numoutlets" : 1,
					"outlettype" : [ "" ],
					"patching_rect" : [ 1484.323531999999886, 870.0, 50.0, 22.0 ],
					"text" : "set $1"
				}

			}
, 			{
				"box" : 				{
					"id" : "obj-164",
					"maxclass" : "newobj",
					"numinlets" : 1,
					"numoutlets" : 1,
					"outlettype" : [ "bang" ],
					"patching_rect" : [ 1174.0, 27.0, 58.0, 22.0 ],
					"text" : "loadbang"
				}

			}
, 			{
				"box" : 				{
					"id" : "obj-162",
					"maxclass" : "newobj",
					"numinlets" : 2,
					"numoutlets" : 1,
					"outlettype" : [ "" ],
					"patcher" : 					{
						"fileversion" : 1,
						"appversion" : 						{
							"major" : 9,
							"minor" : 0,
							"revision" : 0,
							"architecture" : "x64",
							"modernui" : 1
						}
,
						"classnamespace" : "box",
						"rect" : [ 34.0, 115.0, 1612.0, 901.0 ],
						"gridsize" : [ 15.0, 15.0 ],
						"boxes" : [ 							{
								"box" : 								{
									"color" : [ 0.968627450980392, 0.431372549019608, 0.431372549019608, 1.0 ],
									"id" : "obj-163",
									"maxclass" : "newobj",
									"numinlets" : 0,
									"numoutlets" : 1,
									"outlettype" : [ "" ],
									"patching_rect" : [ 293.041564999999082, 55.5, 129.0, 22.0 ],
									"text" : "r bpm-ms-subdivisions"
								}

							}
, 							{
								"box" : 								{
									"id" : "obj-158",
									"maxclass" : "message",
									"numinlets" : 2,
									"numoutlets" : 1,
									"outlettype" : [ "" ],
									"patching_rect" : [ 52.0, 245.0, 103.0, 22.0 ],
									"text" : "lengthabsolute $1"
								}

							}
, 							{
								"box" : 								{
									"id" : "obj-105",
									"maxclass" : "newobj",
									"numinlets" : 6,
									"numoutlets" : 1,
									"outlettype" : [ "" ],
									"patching_rect" : [ 50.0, 100.0, 90.0, 22.0 ],
									"text" : "scale 0. 1. 1 10"
								}

							}
, 							{
								"box" : 								{
									"id" : "obj-103",
									"maxclass" : "newobj",
									"numinlets" : 1,
									"numoutlets" : 2,
									"outlettype" : [ "bang", "int" ],
									"patching_rect" : [ 50.0, 133.340274108562198, 47.5, 22.0 ],
									"text" : "t b i"
								}

							}
, 							{
								"box" : 								{
									"id" : "obj-88",
									"maxclass" : "newobj",
									"numinlets" : 2,
									"numoutlets" : 2,
									"outlettype" : [ "", "" ],
									"patching_rect" : [ 50.0, 205.340274108562198, 47.0, 22.0 ],
									"text" : "zl nth 1"
								}

							}
, 							{
								"box" : 								{
									"id" : "obj-86",
									"maxclass" : "newobj",
									"numinlets" : 2,
									"numoutlets" : 2,
									"outlettype" : [ "", "" ],
									"patching_rect" : [ 50.0, 172.950685271405519, 38.0, 22.0 ],
									"text" : "zl reg"
								}

							}
, 							{
								"box" : 								{
									"comment" : "",
									"id" : "obj-42",
									"index" : 1,
									"maxclass" : "inlet",
									"numinlets" : 0,
									"numoutlets" : 1,
									"outlettype" : [ "" ],
									"patching_rect" : [ 50.0, 40.000003311054428, 30.0, 30.0 ]
								}

							}
, 							{
								"box" : 								{
									"comment" : "",
									"id" : "obj-43",
									"index" : 2,
									"maxclass" : "inlet",
									"numinlets" : 0,
									"numoutlets" : 1,
									"outlettype" : [ "" ],
									"patching_rect" : [ 265.0, 145.000003311054428, 30.0, 30.0 ]
								}

							}
, 							{
								"box" : 								{
									"comment" : "",
									"id" : "obj-45",
									"index" : 1,
									"maxclass" : "outlet",
									"numinlets" : 1,
									"numoutlets" : 0,
									"patching_rect" : [ 50.0, 287.340274311054429, 30.0, 30.0 ]
								}

							}
 ],
						"lines" : [ 							{
								"patchline" : 								{
									"destination" : [ "obj-86", 0 ],
									"source" : [ "obj-103", 0 ]
								}

							}
, 							{
								"patchline" : 								{
									"destination" : [ "obj-88", 1 ],
									"source" : [ "obj-103", 1 ]
								}

							}
, 							{
								"patchline" : 								{
									"destination" : [ "obj-103", 0 ],
									"source" : [ "obj-105", 0 ]
								}

							}
, 							{
								"patchline" : 								{
									"destination" : [ "obj-45", 0 ],
									"source" : [ "obj-158", 0 ]
								}

							}
, 							{
								"patchline" : 								{
									"destination" : [ "obj-86", 1 ],
									"source" : [ "obj-163", 0 ]
								}

							}
, 							{
								"patchline" : 								{
									"destination" : [ "obj-105", 0 ],
									"source" : [ "obj-42", 0 ]
								}

							}
, 							{
								"patchline" : 								{
									"destination" : [ "obj-86", 1 ],
									"source" : [ "obj-43", 0 ]
								}

							}
, 							{
								"patchline" : 								{
									"destination" : [ "obj-88", 0 ],
									"source" : [ "obj-86", 0 ]
								}

							}
, 							{
								"patchline" : 								{
									"destination" : [ "obj-158", 0 ],
									"source" : [ "obj-88", 0 ]
								}

							}
 ],
						"originid" : "pat-44740"
					}
,
					"patching_rect" : [ 666.499999999999545, 314.500000311054464, 107.0, 22.0 ],
					"saved_object_attributes" : 					{
						"globalpatchername" : ""
					}
,
					"text" : "p tempo-subdivide"
				}

			}
, 			{
				"box" : 				{
					"contdata" : 1,
					"id" : "obj-108",
					"maxclass" : "multislider",
					"numinlets" : 1,
					"numoutlets" : 2,
					"orientation" : 0,
					"outlettype" : [ "", "" ],
					"parameter_enable" : 0,
					"patching_rect" : [ 882.5, 62.0, 139.0, 25.0 ],
					"presentation" : 1,
					"presentation_rect" : [ 338.5, 1096.543013194184368, 124.0, 15.0 ],
					"setminmax" : [ 0.0, 1.0 ],
					"varname" : "granular-rate-relative"
				}

			}
, 			{
				"box" : 				{
					"id" : "obj-156",
					"maxclass" : "newobj",
					"numinlets" : 1,
					"numoutlets" : 2,
					"outlettype" : [ "float", "" ],
					"patcher" : 					{
						"fileversion" : 1,
						"appversion" : 						{
							"major" : 9,
							"minor" : 0,
							"revision" : 0,
							"architecture" : "x64",
							"modernui" : 1
						}
,
						"classnamespace" : "box",
						"rect" : [ 34.0, 115.0, 1605.0, 901.0 ],
						"gridsize" : [ 15.0, 15.0 ],
						"boxes" : [ 							{
								"box" : 								{
									"id" : "obj-56",
									"maxclass" : "newobj",
									"numinlets" : 1,
									"numoutlets" : 1,
									"outlettype" : [ "bang" ],
									"patching_rect" : [ 220.25, 107.244740833333367, 58.0, 22.0 ],
									"text" : "loadbang"
								}

							}
, 							{
								"box" : 								{
									"id" : "obj-52",
									"maxclass" : "message",
									"numinlets" : 2,
									"numoutlets" : 1,
									"outlettype" : [ "" ],
									"patching_rect" : [ 220.25, 138.244740833333367, 421.0, 22.0 ],
									"text" : "read \"/Users/admin/Documents/Max 8/Projects/sp-tools/clusters/moog-1.json\""
								}

							}
, 							{
								"box" : 								{
									"id" : "obj-35",
									"maxclass" : "newobj",
									"numinlets" : 1,
									"numoutlets" : 3,
									"outlettype" : [ "float", "", "" ],
									"patching_rect" : [ 58.0, 139.199999999999989, 151.0, 22.0 ],
									"text" : "dk.classmatch"
								}

							}
, 							{
								"box" : 								{
									"comment" : "mfcc ",
									"id" : "obj-153",
									"index" : 1,
									"maxclass" : "inlet",
									"numinlets" : 0,
									"numoutlets" : 1,
									"outlettype" : [ "" ],
									"patching_rect" : [ 50.0, 39.999989833333302, 30.0, 30.0 ]
								}

							}
, 							{
								"box" : 								{
									"comment" : "",
									"id" : "obj-154",
									"index" : 2,
									"maxclass" : "outlet",
									"numinlets" : 1,
									"numoutlets" : 0,
									"patching_rect" : [ 149.0, 240.46837383333326, 30.0, 30.0 ]
								}

							}
, 							{
								"box" : 								{
									"comment" : "",
									"id" : "obj-155",
									"index" : 1,
									"maxclass" : "outlet",
									"numinlets" : 1,
									"numoutlets" : 0,
									"patching_rect" : [ 93.0, 229.46837383333326, 30.0, 30.0 ]
								}

							}
 ],
						"lines" : [ 							{
								"patchline" : 								{
									"destination" : [ "obj-35", 0 ],
									"source" : [ "obj-153", 0 ]
								}

							}
, 							{
								"patchline" : 								{
									"destination" : [ "obj-154", 0 ],
									"source" : [ "obj-35", 1 ]
								}

							}
, 							{
								"patchline" : 								{
									"destination" : [ "obj-155", 0 ],
									"source" : [ "obj-35", 0 ]
								}

							}
, 							{
								"patchline" : 								{
									"destination" : [ "obj-35", 0 ],
									"source" : [ "obj-52", 0 ]
								}

							}
, 							{
								"patchline" : 								{
									"destination" : [ "obj-52", 0 ],
									"source" : [ "obj-56", 0 ]
								}

							}
 ],
						"originid" : "pat-44742"
					}
,
					"patching_rect" : [ 113.0, 383.0, 104.0, 22.0 ],
					"saved_object_attributes" : 					{
						"globalpatchername" : ""
					}
,
					"text" : "p mfccclassmatch"
				}

			}
, 			{
				"box" : 				{
					"id" : "obj-148",
					"maxclass" : "newobj",
					"numinlets" : 3,
					"numoutlets" : 2,
					"outlettype" : [ "float", "" ],
					"patcher" : 					{
						"fileversion" : 1,
						"appversion" : 						{
							"major" : 9,
							"minor" : 0,
							"revision" : 0,
							"architecture" : "x64",
							"modernui" : 1
						}
,
						"classnamespace" : "box",
						"rect" : [ 34.0, 115.0, 1605.0, 901.0 ],
						"gridsize" : [ 15.0, 15.0 ],
						"visible" : 1,
						"boxes" : [ 							{
								"box" : 								{
									"id" : "obj-25",
									"maxclass" : "button",
									"numinlets" : 1,
									"numoutlets" : 1,
									"outlettype" : [ "bang" ],
									"parameter_enable" : 0,
									"patching_rect" : [ 110.0, 121.0, 24.0, 24.0 ]
								}

							}
, 							{
								"box" : 								{
									"id" : "obj-24",
									"maxclass" : "button",
									"numinlets" : 1,
									"numoutlets" : 1,
									"outlettype" : [ "bang" ],
									"parameter_enable" : 0,
									"patching_rect" : [ 44.0, 177.0, 24.0, 24.0 ]
								}

							}
, 							{
								"box" : 								{
									"id" : "obj-22",
									"maxclass" : "comment",
									"numinlets" : 1,
									"numoutlets" : 0,
									"patching_rect" : [ 500.0, 548.0, 150.0, 20.0 ],
									"text" : "to len"
								}

							}
, 							{
								"box" : 								{
									"id" : "obj-20",
									"maxclass" : "toggle",
									"numinlets" : 1,
									"numoutlets" : 1,
									"outlettype" : [ "int" ],
									"parameter_enable" : 0,
									"patching_rect" : [ 456.0, 510.0, 24.0, 24.0 ],
									"svg" : ""
								}

							}
, 							{
								"box" : 								{
									"id" : "obj-16",
									"maxclass" : "newobj",
									"numinlets" : 2,
									"numoutlets" : 1,
									"outlettype" : [ "" ],
									"patching_rect" : [ 450.0, 550.0, 32.0, 22.0 ],
									"text" : "gate"
								}

							}
, 							{
								"box" : 								{
									"id" : "obj-10",
									"maxclass" : "newobj",
									"numinlets" : 6,
									"numoutlets" : 1,
									"outlettype" : [ "" ],
									"patching_rect" : [ 281.0, 422.0, 98.0, 22.0 ],
									"text" : "scale 0. 1. -32 -3"
								}

							}
, 							{
								"box" : 								{
									"id" : "obj-9",
									"maxclass" : "message",
									"numinlets" : 2,
									"numoutlets" : 1,
									"outlettype" : [ "" ],
									"patching_rect" : [ 273.0, 468.0, 48.0, 22.0 ],
									"text" : "gain $1"
								}

							}
, 							{
								"box" : 								{
									"id" : "obj-6",
									"maxclass" : "toggle",
									"numinlets" : 1,
									"numoutlets" : 1,
									"outlettype" : [ "int" ],
									"parameter_enable" : 0,
									"patching_rect" : [ 162.0, 335.0, 24.0, 24.0 ],
									"svg" : ""
								}

							}
, 							{
								"box" : 								{
									"comment" : "",
									"id" : "obj-2",
									"index" : 2,
									"maxclass" : "outlet",
									"numinlets" : 1,
									"numoutlets" : 0,
									"patching_rect" : [ 424.0, 593.0, 30.0, 30.0 ]
								}

							}
, 							{
								"box" : 								{
									"fontsize" : 10.0,
									"id" : "obj-38",
									"maxclass" : "comment",
									"numinlets" : 1,
									"numoutlets" : 0,
									"patching_rect" : [ 803.78125, 340.716108414508312, 46.0, 18.0 ],
									"text" : "direction",
									"textcolor" : [ 0.501961, 0.501961, 0.501961, 1.0 ]
								}

							}
, 							{
								"box" : 								{
									"fontsize" : 10.0,
									"id" : "obj-32",
									"maxclass" : "comment",
									"numinlets" : 1,
									"numoutlets" : 0,
									"patching_rect" : [ 496.125, 340.716108414508312, 46.0, 18.0 ],
									"text" : "direction",
									"textcolor" : [ 0.501961, 0.501961, 0.501961, 1.0 ]
								}

							}
, 							{
								"box" : 								{
									"id" : "obj-8",
									"maxclass" : "toggle",
									"numinlets" : 1,
									"numoutlets" : 1,
									"outlettype" : [ "int" ],
									"parameter_enable" : 0,
									"patching_rect" : [ 814.78125, 317.716108414508312, 24.0, 24.0 ],
									"svg" : ""
								}

							}
, 							{
								"box" : 								{
									"id" : "obj-5",
									"maxclass" : "toggle",
									"numinlets" : 1,
									"numoutlets" : 1,
									"outlettype" : [ "int" ],
									"parameter_enable" : 0,
									"patching_rect" : [ 507.125, 317.716108414508312, 24.0, 24.0 ],
									"svg" : ""
								}

							}
, 							{
								"box" : 								{
									"id" : "obj-37",
									"maxclass" : "comment",
									"numinlets" : 1,
									"numoutlets" : 0,
									"patching_rect" : [ 665.242853773585011, 364.716108414508312, 51.0, 20.0 ],
									"text" : "centroid",
									"textcolor" : [ 0.2, 0.2, 0.2, 1.0 ]
								}

							}
, 							{
								"box" : 								{
									"id" : "obj-34",
									"maxclass" : "comment",
									"numinlets" : 1,
									"numoutlets" : 0,
									"patching_rect" : [ 351.46875, 364.716108414508312, 57.0, 20.0 ],
									"text" : "loudness",
									"textcolor" : [ 0.2, 0.2, 0.2, 1.0 ]
								}

							}
, 							{
								"box" : 								{
									"fontsize" : 10.0,
									"id" : "obj-17",
									"maxclass" : "comment",
									"numinlets" : 1,
									"numoutlets" : 0,
									"patching_rect" : [ 755.25, 340.716108414508312, 46.0, 18.0 ],
									"text" : "variance",
									"textcolor" : [ 0.501961, 0.501961, 0.501961, 1.0 ]
								}

							}
, 							{
								"box" : 								{
									"fontsize" : 10.0,
									"id" : "obj-18",
									"maxclass" : "comment",
									"numinlets" : 1,
									"numoutlets" : 0,
									"patching_rect" : [ 700.71875, 340.716108414508312, 32.0, 18.0 ],
									"text" : "slope",
									"textcolor" : [ 0.501961, 0.501961, 0.501961, 1.0 ]
								}

							}
, 							{
								"box" : 								{
									"fontsize" : 10.0,
									"id" : "obj-28",
									"maxclass" : "comment",
									"numinlets" : 1,
									"numoutlets" : 0,
									"patching_rect" : [ 638.1875, 340.716108414508312, 34.0, 18.0 ],
									"text" : "mean",
									"textcolor" : [ 0.501961, 0.501961, 0.501961, 1.0 ]
								}

							}
, 							{
								"box" : 								{
									"fontsize" : 10.0,
									"id" : "obj-29",
									"maxclass" : "comment",
									"numinlets" : 1,
									"numoutlets" : 0,
									"patching_rect" : [ 565.15625, 340.716108414508312, 57.0, 18.0 ],
									"text" : "normalized",
									"textcolor" : [ 0.501961, 0.501961, 0.501961, 1.0 ]
								}

							}
, 							{
								"box" : 								{
									"bgcolor" : [ 0.627655506134033, 0.213310539722443, 0.224481821060181, 1.0 ],
									"format" : 6,
									"id" : "obj-14",
									"maxclass" : "flonum",
									"numinlets" : 1,
									"numoutlets" : 2,
									"outlettype" : [ "", "bang" ],
									"parameter_enable" : 0,
									"patching_rect" : [ 753.25, 317.716108414508312, 50.0, 22.0 ]
								}

							}
, 							{
								"box" : 								{
									"bgcolor" : [ 0.220262348651886, 0.395668029785156, 0.453778982162476, 1.0 ],
									"format" : 6,
									"id" : "obj-13",
									"maxclass" : "flonum",
									"numinlets" : 1,
									"numoutlets" : 2,
									"outlettype" : [ "", "bang" ],
									"parameter_enable" : 0,
									"patching_rect" : [ 691.71875, 317.716108414508312, 50.0, 22.0 ]
								}

							}
, 							{
								"box" : 								{
									"bgcolor" : [ 0.439256191253662, 0.312140345573425, 0.14563076198101, 1.0 ],
									"format" : 6,
									"id" : "obj-12",
									"maxclass" : "flonum",
									"numinlets" : 1,
									"numoutlets" : 2,
									"outlettype" : [ "", "bang" ],
									"parameter_enable" : 0,
									"patching_rect" : [ 630.1875, 317.716108414508312, 50.0, 22.0 ]
								}

							}
, 							{
								"box" : 								{
									"bgcolor" : [ 0.198836177587509, 0.438101351261139, 0.180487364530563, 1.0 ],
									"format" : 6,
									"id" : "obj-11",
									"maxclass" : "flonum",
									"numinlets" : 1,
									"numoutlets" : 2,
									"outlettype" : [ "", "bang" ],
									"parameter_enable" : 0,
									"patching_rect" : [ 568.65625, 317.716108414508312, 50.0, 22.0 ]
								}

							}
, 							{
								"box" : 								{
									"id" : "obj-4",
									"maxclass" : "newobj",
									"numinlets" : 1,
									"numoutlets" : 11,
									"outlettype" : [ "", "", "", "", "", "", "", "", "", "", "" ],
									"patching_rect" : [ 261.0, 270.146307844707735, 634.312500000000114, 22.0 ],
									"text" : "unjoin 10"
								}

							}
, 							{
								"box" : 								{
									"fontsize" : 10.0,
									"id" : "obj-75",
									"maxclass" : "comment",
									"numinlets" : 1,
									"numoutlets" : 0,
									"patching_rect" : [ 447.59375, 340.716108414508312, 46.0, 18.0 ],
									"text" : "variance",
									"textcolor" : [ 0.501961, 0.501961, 0.501961, 1.0 ]
								}

							}
, 							{
								"box" : 								{
									"fontsize" : 10.0,
									"id" : "obj-15",
									"maxclass" : "comment",
									"numinlets" : 1,
									"numoutlets" : 0,
									"patching_rect" : [ 393.0625, 340.716108414508312, 32.0, 18.0 ],
									"text" : "slope",
									"textcolor" : [ 0.501961, 0.501961, 0.501961, 1.0 ]
								}

							}
, 							{
								"box" : 								{
									"fontsize" : 10.0,
									"id" : "obj-71",
									"maxclass" : "comment",
									"numinlets" : 1,
									"numoutlets" : 0,
									"patching_rect" : [ 330.53125, 340.716108414508312, 34.0, 18.0 ],
									"text" : "mean",
									"textcolor" : [ 0.501961, 0.501961, 0.501961, 1.0 ]
								}

							}
, 							{
								"box" : 								{
									"fontsize" : 10.0,
									"id" : "obj-66",
									"maxclass" : "comment",
									"numinlets" : 1,
									"numoutlets" : 0,
									"patching_rect" : [ 257.5, 340.716108414508312, 57.0, 18.0 ],
									"text" : "normalized",
									"textcolor" : [ 0.501961, 0.501961, 0.501961, 1.0 ]
								}

							}
, 							{
								"box" : 								{
									"bgcolor" : [ 0.986452162265778, 0.322470158338547, 0.347182661294937, 1.0 ],
									"format" : 6,
									"id" : "obj-1",
									"maxclass" : "flonum",
									"numinlets" : 1,
									"numoutlets" : 2,
									"outlettype" : [ "", "bang" ],
									"parameter_enable" : 0,
									"patching_rect" : [ 445.59375, 317.716108414508312, 50.0, 22.0 ]
								}

							}
, 							{
								"box" : 								{
									"bgcolor" : [ 0.337807089090347, 0.62200528383255, 0.714332342147827, 1.0 ],
									"format" : 6,
									"id" : "obj-33",
									"maxclass" : "flonum",
									"numinlets" : 1,
									"numoutlets" : 2,
									"outlettype" : [ "", "bang" ],
									"parameter_enable" : 0,
									"patching_rect" : [ 384.0625, 317.716108414508312, 50.0, 22.0 ]
								}

							}
, 							{
								"box" : 								{
									"bgcolor" : [ 0.690129458904266, 0.487245738506317, 0.219161450862885, 1.0 ],
									"format" : 6,
									"id" : "obj-35",
									"maxclass" : "flonum",
									"numinlets" : 1,
									"numoutlets" : 2,
									"outlettype" : [ "", "bang" ],
									"parameter_enable" : 0,
									"patching_rect" : [ 322.53125, 317.716108414508312, 50.0, 22.0 ]
								}

							}
, 							{
								"box" : 								{
									"bgcolor" : [ 0.29985648393631, 0.684093415737152, 0.273609161376953, 1.0 ],
									"format" : 6,
									"id" : "obj-52",
									"maxclass" : "flonum",
									"numinlets" : 1,
									"numoutlets" : 2,
									"outlettype" : [ "", "bang" ],
									"parameter_enable" : 0,
									"patching_rect" : [ 261.0, 317.716108414508312, 50.0, 22.0 ]
								}

							}
, 							{
								"box" : 								{
									"angle" : 270.0,
									"bgcolor" : [ 0.741176470588235, 0.741176470588235, 0.741176470588235, 1.0 ],
									"border" : 1,
									"bordercolor" : [ 0.2, 0.2, 0.2, 1.0 ],
									"id" : "obj-30",
									"maxclass" : "panel",
									"mode" : 0,
									"numinlets" : 1,
									"numoutlets" : 0,
									"patching_rect" : [ 253.0, 310.716108414508426, 289.125000000000057, 82.999999999999886 ],
									"proportion" : 0.5
								}

							}
, 							{
								"box" : 								{
									"angle" : 270.0,
									"bgcolor" : [ 0.815686274509804, 0.815686274509804, 0.815686274509804, 1.0 ],
									"border" : 1,
									"bordercolor" : [ 0.2, 0.2, 0.2, 1.0 ],
									"id" : "obj-40",
									"maxclass" : "panel",
									"mode" : 0,
									"numinlets" : 1,
									"numoutlets" : 0,
									"patching_rect" : [ 563.15625, 310.716108414508426, 289.125, 82.999999999999886 ],
									"proportion" : 0.5
								}

							}
, 							{
								"box" : 								{
									"id" : "obj-126",
									"maxclass" : "message",
									"numinlets" : 2,
									"numoutlets" : 1,
									"outlettype" : [ "" ],
									"patching_rect" : [ 127.0, 381.0, 48.0, 22.0 ],
									"text" : "loop $1"
								}

							}
, 							{
								"box" : 								{
									"id" : "obj-105",
									"maxclass" : "newobj",
									"numinlets" : 2,
									"numoutlets" : 1,
									"outlettype" : [ "float" ],
									"patching_rect" : [ 101.0, 173.5, 29.5, 22.0 ],
									"text" : "f"
								}

							}
, 							{
								"box" : 								{
									"id" : "obj-99",
									"maxclass" : "newobj",
									"numinlets" : 2,
									"numoutlets" : 1,
									"outlettype" : [ "float" ],
									"patching_rect" : [ 43.0, 256.5, 29.5, 22.0 ],
									"text" : "f"
								}

							}
, 							{
								"box" : 								{
									"id" : "obj-84",
									"maxclass" : "newobj",
									"numinlets" : 1,
									"numoutlets" : 1,
									"outlettype" : [ "" ],
									"patching_rect" : [ 261.0, 163.0, 80.0, 22.0 ],
									"text" : "dk.controllers"
								}

							}
, 							{
								"box" : 								{
									"comment" : "",
									"id" : "obj-144",
									"index" : 1,
									"maxclass" : "inlet",
									"numinlets" : 0,
									"numoutlets" : 1,
									"outlettype" : [ "" ],
									"patching_rect" : [ 50.0, 40.0, 30.0, 30.0 ]
								}

							}
, 							{
								"box" : 								{
									"comment" : "",
									"id" : "obj-145",
									"index" : 2,
									"maxclass" : "inlet",
									"numinlets" : 0,
									"numoutlets" : 1,
									"outlettype" : [ "" ],
									"patching_rect" : [ 85.0, 40.0, 30.0, 30.0 ]
								}

							}
, 							{
								"box" : 								{
									"comment" : "",
									"id" : "obj-146",
									"index" : 3,
									"maxclass" : "inlet",
									"numinlets" : 0,
									"numoutlets" : 1,
									"outlettype" : [ "" ],
									"patching_rect" : [ 120.0, 40.0, 30.0, 30.0 ]
								}

							}
, 							{
								"box" : 								{
									"comment" : "",
									"id" : "obj-147",
									"index" : 1,
									"maxclass" : "outlet",
									"numinlets" : 1,
									"numoutlets" : 0,
									"patching_rect" : [ 65.0, 546.0, 30.0, 30.0 ]
								}

							}
 ],
						"lines" : [ 							{
								"patchline" : 								{
									"destination" : [ "obj-9", 0 ],
									"source" : [ "obj-10", 0 ]
								}

							}
, 							{
								"patchline" : 								{
									"destination" : [ "obj-147", 0 ],
									"source" : [ "obj-105", 0 ]
								}

							}
, 							{
								"patchline" : 								{
									"destination" : [ "obj-147", 0 ],
									"source" : [ "obj-126", 0 ]
								}

							}
, 							{
								"patchline" : 								{
									"destination" : [ "obj-24", 0 ],
									"source" : [ "obj-144", 0 ]
								}

							}
, 							{
								"patchline" : 								{
									"destination" : [ "obj-84", 0 ],
									"source" : [ "obj-145", 0 ]
								}

							}
, 							{
								"patchline" : 								{
									"destination" : [ "obj-25", 0 ],
									"source" : [ "obj-146", 0 ]
								}

							}
, 							{
								"patchline" : 								{
									"destination" : [ "obj-2", 0 ],
									"source" : [ "obj-16", 0 ]
								}

							}
, 							{
								"patchline" : 								{
									"destination" : [ "obj-16", 0 ],
									"source" : [ "obj-20", 0 ]
								}

							}
, 							{
								"patchline" : 								{
									"destination" : [ "obj-99", 0 ],
									"source" : [ "obj-24", 0 ]
								}

							}
, 							{
								"patchline" : 								{
									"destination" : [ "obj-105", 0 ],
									"source" : [ "obj-25", 0 ]
								}

							}
, 							{
								"patchline" : 								{
									"destination" : [ "obj-1", 0 ],
									"source" : [ "obj-4", 3 ]
								}

							}
, 							{
								"patchline" : 								{
									"destination" : [ "obj-10", 0 ],
									"order" : 1,
									"source" : [ "obj-4", 1 ]
								}

							}
, 							{
								"patchline" : 								{
									"destination" : [ "obj-105", 1 ],
									"order" : 2,
									"source" : [ "obj-4", 1 ]
								}

							}
, 							{
								"patchline" : 								{
									"destination" : [ "obj-11", 0 ],
									"order" : 0,
									"source" : [ "obj-4", 5 ]
								}

							}
, 							{
								"patchline" : 								{
									"destination" : [ "obj-12", 0 ],
									"source" : [ "obj-4", 6 ]
								}

							}
, 							{
								"patchline" : 								{
									"destination" : [ "obj-13", 0 ],
									"source" : [ "obj-4", 7 ]
								}

							}
, 							{
								"patchline" : 								{
									"destination" : [ "obj-14", 0 ],
									"order" : 0,
									"source" : [ "obj-4", 8 ]
								}

							}
, 							{
								"patchline" : 								{
									"destination" : [ "obj-16", 1 ],
									"order" : 1,
									"source" : [ "obj-4", 8 ]
								}

							}
, 							{
								"patchline" : 								{
									"destination" : [ "obj-33", 0 ],
									"source" : [ "obj-4", 2 ]
								}

							}
, 							{
								"patchline" : 								{
									"destination" : [ "obj-35", 0 ],
									"order" : 0,
									"source" : [ "obj-4", 1 ]
								}

							}
, 							{
								"patchline" : 								{
									"destination" : [ "obj-5", 0 ],
									"source" : [ "obj-4", 4 ]
								}

							}
, 							{
								"patchline" : 								{
									"destination" : [ "obj-52", 0 ],
									"source" : [ "obj-4", 0 ]
								}

							}
, 							{
								"patchline" : 								{
									"destination" : [ "obj-8", 0 ],
									"source" : [ "obj-4", 9 ]
								}

							}
, 							{
								"patchline" : 								{
									"destination" : [ "obj-99", 1 ],
									"order" : 1,
									"source" : [ "obj-4", 5 ]
								}

							}
, 							{
								"patchline" : 								{
									"destination" : [ "obj-126", 0 ],
									"source" : [ "obj-6", 0 ]
								}

							}
, 							{
								"patchline" : 								{
									"destination" : [ "obj-4", 0 ],
									"source" : [ "obj-84", 0 ]
								}

							}
, 							{
								"patchline" : 								{
									"destination" : [ "obj-147", 0 ],
									"source" : [ "obj-9", 0 ]
								}

							}
, 							{
								"patchline" : 								{
									"destination" : [ "obj-147", 0 ],
									"source" : [ "obj-99", 0 ]
								}

							}
 ],
						"originid" : "pat-44762"
					}
,
					"patching_rect" : [ 662.0, 39.0, 129.0, 22.0 ],
					"saved_object_attributes" : 					{
						"globalpatchername" : ""
					}
,
					"text" : "p controller-to-sampler"
				}

			}
, 			{
				"box" : 				{
					"id" : "obj-134",
					"maxclass" : "message",
					"numinlets" : 2,
					"numoutlets" : 1,
					"outlettype" : [ "" ],
					"patching_rect" : [ 889.0, 27.0, 275.0, 22.0 ],
					"text" : "readfolder ~/Dropbox/audio/HarpCorpus/cluster-5/"
				}

			}
, 			{
				"box" : 				{
					"fontface" : 1,
					"fontname" : "Arial",
					"fontsize" : 10.0,
					"id" : "obj-8",
					"maxclass" : "comment",
					"numinlets" : 1,
					"numoutlets" : 0,
					"patching_rect" : [ 1195.5, 1196.0, 62.0, 18.0 ],
					"presentation" : 1,
					"presentation_rect" : [ 28.0, 61.0, 62.0, 18.0 ],
					"text" : "clock out"
				}

			}
, 			{
				"box" : 				{
					"id" : "obj-24",
					"maxclass" : "toggle",
					"numinlets" : 1,
					"numoutlets" : 1,
					"outlettype" : [ "int" ],
					"parameter_enable" : 0,
					"patching_rect" : [ 1037.0, 1196.0, 20.0, 20.0 ],
					"presentation" : 1,
					"presentation_rect" : [ 1.0, 61.0, 20.0, 20.0 ],
					"svg" : ""
				}

			}
, 			{
				"box" : 				{
					"id" : "obj-85",
					"maxclass" : "message",
					"numinlets" : 2,
					"numoutlets" : 1,
					"outlettype" : [ "" ],
					"patching_rect" : [ 729.0, 72.5, 35.0, 22.0 ],
					"text" : "clear"
				}

			}
, 			{
				"box" : 				{
					"bgmode" : 0,
					"border" : 0,
					"clickthrough" : 0,
					"enablehscroll" : 0,
					"enablevscroll" : 0,
					"id" : "obj-57",
					"lockeddragscroll" : 0,
					"lockedsize" : 0,
					"maxclass" : "bpatcher",
					"name" : "dk.sampler~.maxpat",
					"numinlets" : 1,
					"numoutlets" : 2,
					"offset" : [ 0.0, 0.0 ],
					"outlettype" : [ "signal", "signal" ],
					"patching_rect" : [ 662.0, 98.5, 322.0, 201.0 ],
					"varname" : "dk.sampler~",
					"viewvisibility" : 1
				}

			}
, 			{
				"box" : 				{
					"bgmode" : 0,
					"border" : 0,
					"clickthrough" : 0,
					"enablehscroll" : 0,
					"enablevscroll" : 0,
					"id" : "obj-19",
					"lockeddragscroll" : 0,
					"lockedsize" : 0,
					"maxclass" : "bpatcher",
					"name" : "dk.plotter.maxpat",
					"numinlets" : 1,
					"numoutlets" : 2,
					"offset" : [ 0.0, 0.0 ],
					"outlettype" : [ "", "" ],
					"patching_rect" : [ 120.0, 416.755259166666747, 235.0, 235.0 ],
					"viewvisibility" : 1
				}

			}
, 			{
				"box" : 				{
					"bgcolor" : [ 0.2, 0.2, 0.2, 0.0 ],
					"id" : "obj-31",
					"ignoreclick" : 1,
					"maxclass" : "number",
					"numinlets" : 1,
					"numoutlets" : 2,
					"outlettype" : [ "", "bang" ],
					"parameter_enable" : 0,
					"patching_rect" : [ 1269.0, 183.0, 50.0, 22.0 ],
					"presentation" : 1,
					"presentation_rect" : [ 1347.0, 273.0, 50.0, 22.0 ],
					"textcolor" : [ 0.0, 0.0, 0.0, 1.0 ]
				}

			}
, 			{
				"box" : 				{
					"id" : "obj-80",
					"maxclass" : "number",
					"numinlets" : 1,
					"numoutlets" : 2,
					"outlettype" : [ "", "bang" ],
					"parameter_enable" : 0,
					"patching_rect" : [ 1451.0, 309.5, 50.0, 22.0 ],
					"presentation" : 1,
					"presentation_rect" : [ 1529.0, 399.5, 50.0, 22.0 ]
				}

			}
, 			{
				"box" : 				{
					"id" : "obj-27",
					"maxclass" : "newobj",
					"numinlets" : 1,
					"numoutlets" : 0,
					"patching_rect" : [ 1342.5, 309.5, 100.0, 22.0 ],
					"text" : "s preset_recalled"
				}

			}
, 			{
				"box" : 				{
					"id" : "obj-6",
					"maxclass" : "newobj",
					"numinlets" : 0,
					"numoutlets" : 1,
					"outlettype" : [ "" ],
					"patcher" : 					{
						"fileversion" : 1,
						"appversion" : 						{
							"major" : 9,
							"minor" : 0,
							"revision" : 0,
							"architecture" : "x64",
							"modernui" : 1
						}
,
						"classnamespace" : "box",
						"rect" : [ 34.0, 115.0, 1612.0, 901.0 ],
						"gridsize" : [ 15.0, 15.0 ],
						"boxes" : [ 							{
								"box" : 								{
									"id" : "obj-2",
									"linecount" : 3,
									"maxclass" : "comment",
									"numinlets" : 1,
									"numoutlets" : 0,
									"patching_rect" : [ 193.0, 95.0, 150.0, 47.0 ],
									"text" : "prevent race conditions from the slow action of setting the corpus "
								}

							}
, 							{
								"box" : 								{
									"id" : "obj-10",
									"maxclass" : "newobj",
									"numinlets" : 1,
									"numoutlets" : 1,
									"outlettype" : [ "bang" ],
									"patching_rect" : [ 59.5, 93.0, 58.0, 22.0 ],
									"text" : "loadbang"
								}

							}
, 							{
								"box" : 								{
									"fontname" : "Arial",
									"fontsize" : 13.0,
									"id" : "obj-25",
									"maxclass" : "message",
									"numinlets" : 2,
									"numoutlets" : 1,
									"outlettype" : [ "" ],
									"patching_rect" : [ 50.0, 160.0, 519.0, 23.0 ],
									"text" : "priority _filter-to-corpus-1::corpus-menu -10, priority _filter-to-corpus-2::corpus-menu -10,"
								}

							}
, 							{
								"box" : 								{
									"comment" : "",
									"id" : "obj-13",
									"index" : 1,
									"maxclass" : "outlet",
									"numinlets" : 1,
									"numoutlets" : 0,
									"patching_rect" : [ 50.0, 207.0, 30.0, 30.0 ]
								}

							}
 ],
						"lines" : [ 							{
								"patchline" : 								{
									"destination" : [ "obj-25", 0 ],
									"source" : [ "obj-10", 0 ]
								}

							}
, 							{
								"patchline" : 								{
									"destination" : [ "obj-13", 0 ],
									"source" : [ "obj-25", 0 ]
								}

							}
 ],
						"originid" : "pat-45686"
					}
,
					"patching_rect" : [ 1572.0, 364.0, 72.0, 22.0 ],
					"saved_object_attributes" : 					{
						"globalpatchername" : ""
					}
,
					"text" : "p pattrsetup"
				}

			}
, 			{
				"box" : 				{
					"bubblesize" : 24,
					"id" : "obj-5",
					"maxclass" : "preset",
					"numinlets" : 1,
					"numoutlets" : 5,
					"outlettype" : [ "preset", "int", "preset", "int", "" ],
					"patching_rect" : [ 1269.0, 226.0, 313.0, 66.0 ],
					"pattrstorage" : "hipodromo-performance",
					"presentation" : 1,
					"presentation_rect" : [ 1347.0, 316.0, 313.0, 66.0 ]
				}

			}
, 			{
				"box" : 				{
					"id" : "obj-76",
					"maxclass" : "comment",
					"numinlets" : 1,
					"numoutlets" : 0,
					"patching_rect" : [ 1285.0, 207.0, 42.0, 20.0 ],
					"presentation" : 1,
					"presentation_rect" : [ 1363.0, 297.0, 42.0, 20.0 ],
					"text" : "preset"
				}

			}
, 			{
				"box" : 				{
					"id" : "obj-75",
					"maxclass" : "comment",
					"numinlets" : 1,
					"numoutlets" : 0,
					"patching_rect" : [ 1226.0, 249.0, 64.0, 20.0 ],
					"presentation" : 1,
					"presentation_rect" : [ 1304.0, 339.0, 64.0, 20.0 ],
					"text" : "bank"
				}

			}
, 			{
				"box" : 				{
					"fontname" : "Arial",
					"fontsize" : 13.0,
					"id" : "obj-33",
					"maxclass" : "newobj",
					"numinlets" : 1,
					"numoutlets" : 1,
					"outlettype" : [ "" ],
					"patching_rect" : [ 1269.0, 399.0, 375.0, 23.0 ],
					"saved_object_attributes" : 					{
						"client_rect" : [ -1, 115, 1679, 988 ],
						"parameter_enable" : 0,
						"parameter_mappable" : 0,
						"storage_rect" : [ 766, 44, 1220, 302 ]
					}
,
					"text" : "pattrstorage hipodromo-performance @savemode 2 @greedy 1",
					"varname" : "hipodromo-performance"
				}

			}
, 			{
				"box" : 				{
					"id" : "obj-11",
					"maxclass" : "message",
					"numinlets" : 2,
					"numoutlets" : 1,
					"outlettype" : [ "" ],
					"patching_rect" : [ 1269.0, 357.0, 89.0, 22.0 ],
					"presentation" : 1,
					"presentation_rect" : [ 593.1785888671875, 8.0, 89.0, 22.0 ],
					"text" : "storagewindow"
				}

			}
, 			{
				"box" : 				{
					"id" : "obj-7",
					"maxclass" : "message",
					"numinlets" : 2,
					"numoutlets" : 1,
					"outlettype" : [ "" ],
					"patching_rect" : [ 1363.0, 357.0, 34.0, 22.0 ],
					"presentation" : 1,
					"presentation_rect" : [ 593.1785888671875, 42.0, 34.0, 22.0 ],
					"text" : "write"
				}

			}
, 			{
				"box" : 				{
					"attr" : "threshold",
					"fontname" : "Arial",
					"fontsize" : 12.0,
					"id" : "obj-21",
					"maxclass" : "attrui",
					"numinlets" : 1,
					"numoutlets" : 1,
					"outlettype" : [ "" ],
					"parameter_enable" : 0,
					"patching_rect" : [ 816.5, 811.0, 205.0, 22.0 ]
				}

			}
, 			{
				"box" : 				{
					"attr" : "preamp",
					"fontname" : "Arial",
					"fontsize" : 12.0,
					"id" : "obj-9",
					"maxclass" : "attrui",
					"numinlets" : 1,
					"numoutlets" : 1,
					"outlettype" : [ "" ],
					"parameter_enable" : 0,
					"patching_rect" : [ 816.5, 783.0, 205.0, 22.0 ]
				}

			}
, 			{
				"box" : 				{
					"id" : "obj-20",
					"maxclass" : "newobj",
					"numinlets" : 2,
					"numoutlets" : 2,
					"outlettype" : [ "signal", "signal" ],
					"patching_rect" : [ 605.0, 804.0, 189.0, 22.0 ],
					"text" : "limi~ 2 @threshold -3 @preamp 7",
					"varname" : "limi~"
				}

			}
, 			{
				"box" : 				{
					"id" : "obj-10",
					"lastchannelcount" : 0,
					"maxclass" : "live.gain~",
					"numinlets" : 2,
					"numoutlets" : 5,
					"orientation" : 1,
					"outlettype" : [ "signal", "signal", "", "float", "list" ],
					"parameter_enable" : 1,
					"patching_rect" : [ 666.499999999999545, 344.5, 185.0, 47.0 ],
					"presentation" : 1,
					"presentation_rect" : [ 1303.5, 159.999999344348907, 235.0, 47.0 ],
					"saved_attribute_attributes" : 					{
						"valueof" : 						{
							"parameter_longname" : "gain[5]",
							"parameter_mmax" : 6.0,
							"parameter_mmin" : -70.0,
							"parameter_modmode" : 0,
							"parameter_osc_name" : "<default>",
							"parameter_shortname" : "player 1",
							"parameter_type" : 0,
							"parameter_unitstyle" : 4
						}

					}
,
					"varname" : "live.gain~"
				}

			}
, 			{
				"box" : 				{
					"id" : "obj-4",
					"maxclass" : "ezdac~",
					"numinlets" : 2,
					"numoutlets" : 0,
					"patching_rect" : [ 605.0, 857.0, 45.0, 45.0 ],
					"presentation" : 1,
					"presentation_rect" : [ 1647.0, 171.499999344348907, 56.0, 56.0 ],
					"varname" : "ezdac~"
				}

			}
, 			{
				"box" : 				{
					"id" : "obj-77",
					"maxclass" : "newobj",
					"numinlets" : 1,
					"numoutlets" : 1,
					"outlettype" : [ "bang" ],
					"patching_rect" : [ 1296.5, 1207.0, 58.0, 22.0 ],
					"text" : "loadbang"
				}

			}
, 			{
				"box" : 				{
					"id" : "obj-180",
					"maxclass" : "message",
					"numinlets" : 2,
					"numoutlets" : 1,
					"outlettype" : [ "" ],
					"patching_rect" : [ 1256.5, 1257.0, 196.0, 22.0 ],
					"text" : "\"PreSonus AudioBox iTwo MIDI IN\""
				}

			}
, 			{
				"box" : 				{
					"fontface" : 1,
					"fontname" : "Arial",
					"fontsize" : 10.0,
					"id" : "obj-23",
					"maxclass" : "newobj",
					"numinlets" : 3,
					"numoutlets" : 3,
					"outlettype" : [ "bang", "bang", "" ],
					"patching_rect" : [ 1188.5, 1247.0, 56.0, 20.0 ],
					"text" : "select 1 0"
				}

			}
, 			{
				"box" : 				{
					"fontface" : 1,
					"fontname" : "Arial",
					"fontsize" : 10.0,
					"id" : "obj-181",
					"maxclass" : "newobj",
					"numinlets" : 1,
					"numoutlets" : 1,
					"outlettype" : [ "int" ],
					"patching_rect" : [ 1096.5, 1362.0, 33.0, 20.0 ],
					"text" : "t 248"
				}

			}
, 			{
				"box" : 				{
					"fontface" : 1,
					"fontname" : "Arial",
					"fontsize" : 10.0,
					"id" : "obj-28",
					"maxclass" : "newobj",
					"numinlets" : 1,
					"numoutlets" : 1,
					"outlettype" : [ "int" ],
					"patching_rect" : [ 1171.5, 1287.0, 33.0, 20.0 ],
					"text" : "t 250"
				}

			}
, 			{
				"box" : 				{
					"fontface" : 1,
					"fontname" : "Arial",
					"fontsize" : 10.0,
					"id" : "obj-29",
					"maxclass" : "newobj",
					"numinlets" : 1,
					"numoutlets" : 1,
					"outlettype" : [ "int" ],
					"patching_rect" : [ 1220.5, 1287.0, 33.0, 20.0 ],
					"text" : "t 252"
				}

			}
, 			{
				"box" : 				{
					"fontface" : 1,
					"fontname" : "Arial",
					"fontsize" : 10.0,
					"id" : "obj-32",
					"maxclass" : "newobj",
					"numinlets" : 1,
					"numoutlets" : 0,
					"patching_rect" : [ 1089.5, 1416.0, 47.0, 20.0 ],
					"text" : "midiout"
				}

			}
, 			{
				"box" : 				{
					"attr" : "name",
					"id" : "obj-183",
					"maxclass" : "attrui",
					"numinlets" : 1,
					"numoutlets" : 1,
					"outlettype" : [ "" ],
					"parameter_enable" : 0,
					"patching_rect" : [ 1256.5, 1298.0, 150.0, 22.0 ],
					"presentation" : 1,
					"presentation_rect" : [ 16.0, 101.0, 224.0, 22.0 ]
				}

			}
 ],
		"lines" : [ 			{
				"patchline" : 				{
					"destination" : [ "obj-25", 0 ],
					"source" : [ "obj-1", 0 ]
				}

			}
, 			{
				"patchline" : 				{
					"destination" : [ "obj-20", 1 ],
					"source" : [ "obj-10", 1 ]
				}

			}
, 			{
				"patchline" : 				{
					"destination" : [ "obj-4", 0 ],
					"source" : [ "obj-10", 0 ]
				}

			}
, 			{
				"patchline" : 				{
					"destination" : [ "obj-162", 0 ],
					"source" : [ "obj-108", 0 ]
				}

			}
, 			{
				"patchline" : 				{
					"destination" : [ "obj-33", 0 ],
					"source" : [ "obj-11", 0 ]
				}

			}
, 			{
				"patchline" : 				{
					"destination" : [ "obj-57", 0 ],
					"source" : [ "obj-134", 0 ]
				}

			}
, 			{
				"patchline" : 				{
					"destination" : [ "obj-108", 0 ],
					"source" : [ "obj-148", 1 ]
				}

			}
, 			{
				"patchline" : 				{
					"destination" : [ "obj-57", 0 ],
					"source" : [ "obj-148", 0 ]
				}

			}
, 			{
				"patchline" : 				{
					"destination" : [ "obj-19", 0 ],
					"source" : [ "obj-156", 1 ]
				}

			}
, 			{
				"patchline" : 				{
					"destination" : [ "obj-19", 0 ],
					"order" : 1,
					"source" : [ "obj-156", 0 ]
				}

			}
, 			{
				"patchline" : 				{
					"destination" : [ "obj-239", 0 ],
					"order" : 0,
					"source" : [ "obj-156", 0 ]
				}

			}
, 			{
				"patchline" : 				{
					"destination" : [ "obj-1", 1 ],
					"order" : 0,
					"source" : [ "obj-16", 0 ]
				}

			}
, 			{
				"patchline" : 				{
					"destination" : [ "obj-13", 0 ],
					"source" : [ "obj-16", 4 ]
				}

			}
, 			{
				"patchline" : 				{
					"destination" : [ "obj-17", 0 ],
					"order" : 1,
					"source" : [ "obj-16", 0 ]
				}

			}
, 			{
				"patchline" : 				{
					"destination" : [ "obj-57", 0 ],
					"source" : [ "obj-162", 0 ]
				}

			}
, 			{
				"patchline" : 				{
					"destination" : [ "obj-134", 0 ],
					"order" : 0,
					"source" : [ "obj-164", 0 ]
				}

			}
, 			{
				"patchline" : 				{
					"destination" : [ "obj-236", 0 ],
					"order" : 1,
					"source" : [ "obj-164", 0 ]
				}

			}
, 			{
				"patchline" : 				{
					"destination" : [ "obj-26", 0 ],
					"source" : [ "obj-167", 0 ]
				}

			}
, 			{
				"patchline" : 				{
					"destination" : [ "obj-34", 0 ],
					"source" : [ "obj-167", 1 ]
				}

			}
, 			{
				"patchline" : 				{
					"destination" : [ "obj-167", 0 ],
					"source" : [ "obj-168", 0 ]
				}

			}
, 			{
				"patchline" : 				{
					"destination" : [ "obj-168", 1 ],
					"source" : [ "obj-169", 1 ]
				}

			}
, 			{
				"patchline" : 				{
					"destination" : [ "obj-168", 0 ],
					"source" : [ "obj-169", 0 ]
				}

			}
, 			{
				"patchline" : 				{
					"destination" : [ "obj-156", 0 ],
					"source" : [ "obj-17", 0 ]
				}

			}
, 			{
				"patchline" : 				{
					"destination" : [ "obj-169", 0 ],
					"order" : 0,
					"source" : [ "obj-172", 0 ]
				}

			}
, 			{
				"patchline" : 				{
					"destination" : [ "obj-170", 0 ],
					"order" : 2,
					"source" : [ "obj-172", 0 ]
				}

			}
, 			{
				"patchline" : 				{
					"destination" : [ "obj-179", 0 ],
					"order" : 1,
					"source" : [ "obj-172", 0 ]
				}

			}
, 			{
				"patchline" : 				{
					"destination" : [ "obj-169", 0 ],
					"order" : 0,
					"source" : [ "obj-173", 0 ]
				}

			}
, 			{
				"patchline" : 				{
					"destination" : [ "obj-64", 0 ],
					"order" : 1,
					"source" : [ "obj-173", 0 ]
				}

			}
, 			{
				"patchline" : 				{
					"destination" : [ "obj-176", 0 ],
					"source" : [ "obj-174", 0 ]
				}

			}
, 			{
				"patchline" : 				{
					"destination" : [ "obj-172", 0 ],
					"source" : [ "obj-175", 1 ]
				}

			}
, 			{
				"patchline" : 				{
					"destination" : [ "obj-175", 0 ],
					"source" : [ "obj-176", 0 ]
				}

			}
, 			{
				"patchline" : 				{
					"destination" : [ "obj-173", 0 ],
					"source" : [ "obj-179", 0 ]
				}

			}
, 			{
				"patchline" : 				{
					"destination" : [ "obj-183", 0 ],
					"source" : [ "obj-180", 0 ]
				}

			}
, 			{
				"patchline" : 				{
					"destination" : [ "obj-32", 0 ],
					"source" : [ "obj-181", 0 ]
				}

			}
, 			{
				"patchline" : 				{
					"destination" : [ "obj-32", 0 ],
					"source" : [ "obj-183", 0 ]
				}

			}
, 			{
				"patchline" : 				{
					"destination" : [ "obj-4", 1 ],
					"source" : [ "obj-20", 1 ]
				}

			}
, 			{
				"patchline" : 				{
					"destination" : [ "obj-4", 0 ],
					"source" : [ "obj-20", 0 ]
				}

			}
, 			{
				"patchline" : 				{
					"destination" : [ "obj-20", 0 ],
					"source" : [ "obj-21", 0 ]
				}

			}
, 			{
				"patchline" : 				{
					"destination" : [ "obj-221", 0 ],
					"source" : [ "obj-210", 0 ]
				}

			}
, 			{
				"patchline" : 				{
					"destination" : [ "obj-221", 0 ],
					"source" : [ "obj-211", 0 ]
				}

			}
, 			{
				"patchline" : 				{
					"destination" : [ "obj-221", 0 ],
					"source" : [ "obj-214", 0 ]
				}

			}
, 			{
				"patchline" : 				{
					"destination" : [ "obj-214", 0 ],
					"order" : 1,
					"source" : [ "obj-220", 0 ]
				}

			}
, 			{
				"patchline" : 				{
					"destination" : [ "obj-221", 0 ],
					"midpoints" : [ 1491.323531999999886, 1311.5, 1535.823531999999886, 1311.5 ],
					"order" : 0,
					"source" : [ "obj-220", 0 ]
				}

			}
, 			{
				"patchline" : 				{
					"destination" : [ "obj-181", 0 ],
					"order" : 1,
					"source" : [ "obj-221", 7 ]
				}

			}
, 			{
				"patchline" : 				{
					"destination" : [ "obj-213", 0 ],
					"midpoints" : [ 1831.573531999999886, 1468.0, 1690.073531999999886, 1468.0 ],
					"order" : 0,
					"source" : [ "obj-221", 7 ]
				}

			}
, 			{
				"patchline" : 				{
					"destination" : [ "obj-215", 0 ],
					"midpoints" : [ 1789.323531999999886, 1428.0, 1694.073531999999886, 1428.0 ],
					"source" : [ "obj-221", 6 ]
				}

			}
, 			{
				"patchline" : 				{
					"destination" : [ "obj-216", 1 ],
					"source" : [ "obj-221", 5 ]
				}

			}
, 			{
				"patchline" : 				{
					"destination" : [ "obj-217", 0 ],
					"source" : [ "obj-221", 2 ]
				}

			}
, 			{
				"patchline" : 				{
					"destination" : [ "obj-218", 0 ],
					"source" : [ "obj-221", 1 ]
				}

			}
, 			{
				"patchline" : 				{
					"destination" : [ "obj-219", 0 ],
					"source" : [ "obj-221", 0 ]
				}

			}
, 			{
				"patchline" : 				{
					"destination" : [ "obj-221", 0 ],
					"source" : [ "obj-222", 0 ]
				}

			}
, 			{
				"patchline" : 				{
					"destination" : [ "obj-28", 0 ],
					"source" : [ "obj-23", 0 ]
				}

			}
, 			{
				"patchline" : 				{
					"destination" : [ "obj-29", 0 ],
					"source" : [ "obj-23", 1 ]
				}

			}
, 			{
				"patchline" : 				{
					"destination" : [ "obj-210", 0 ],
					"source" : [ "obj-230", 0 ]
				}

			}
, 			{
				"patchline" : 				{
					"destination" : [ "obj-233", 1 ],
					"order" : 0,
					"source" : [ "obj-232", 0 ]
				}

			}
, 			{
				"patchline" : 				{
					"destination" : [ "obj-233", 0 ],
					"order" : 1,
					"source" : [ "obj-232", 0 ]
				}

			}
, 			{
				"patchline" : 				{
					"destination" : [ "obj-20", 1 ],
					"order" : 0,
					"source" : [ "obj-233", 0 ]
				}

			}
, 			{
				"patchline" : 				{
					"destination" : [ "obj-20", 0 ],
					"order" : 1,
					"source" : [ "obj-233", 0 ]
				}

			}
, 			{
				"patchline" : 				{
					"destination" : [ "obj-235", 0 ],
					"source" : [ "obj-234", 0 ]
				}

			}
, 			{
				"patchline" : 				{
					"destination" : [ "obj-23", 0 ],
					"source" : [ "obj-235", 0 ]
				}

			}
, 			{
				"patchline" : 				{
					"destination" : [ "obj-232", 0 ],
					"source" : [ "obj-236", 0 ]
				}

			}
, 			{
				"patchline" : 				{
					"destination" : [ "obj-232", 0 ],
					"source" : [ "obj-239", 0 ]
				}

			}
, 			{
				"patchline" : 				{
					"destination" : [ "obj-23", 0 ],
					"order" : 0,
					"source" : [ "obj-24", 0 ]
				}

			}
, 			{
				"patchline" : 				{
					"destination" : [ "obj-234", 0 ],
					"order" : 1,
					"source" : [ "obj-24", 0 ]
				}

			}
, 			{
				"patchline" : 				{
					"destination" : [ "obj-156", 0 ],
					"source" : [ "obj-25", 0 ]
				}

			}
, 			{
				"patchline" : 				{
					"destination" : [ "obj-165", 0 ],
					"source" : [ "obj-26", 0 ]
				}

			}
, 			{
				"patchline" : 				{
					"destination" : [ "obj-32", 0 ],
					"source" : [ "obj-28", 0 ]
				}

			}
, 			{
				"patchline" : 				{
					"destination" : [ "obj-32", 0 ],
					"source" : [ "obj-29", 0 ]
				}

			}
, 			{
				"patchline" : 				{
					"destination" : [ "obj-174", 0 ],
					"source" : [ "obj-3", 0 ]
				}

			}
, 			{
				"patchline" : 				{
					"destination" : [ "obj-5", 0 ],
					"source" : [ "obj-31", 0 ]
				}

			}
, 			{
				"patchline" : 				{
					"destination" : [ "obj-26", 1 ],
					"source" : [ "obj-34", 0 ]
				}

			}
, 			{
				"patchline" : 				{
					"destination" : [ "obj-57", 0 ],
					"source" : [ "obj-36", 0 ]
				}

			}
, 			{
				"patchline" : 				{
					"destination" : [ "obj-27", 0 ],
					"order" : 1,
					"source" : [ "obj-5", 1 ]
				}

			}
, 			{
				"patchline" : 				{
					"destination" : [ "obj-80", 0 ],
					"order" : 0,
					"source" : [ "obj-5", 1 ]
				}

			}
, 			{
				"patchline" : 				{
					"destination" : [ "obj-10", 1 ],
					"order" : 0,
					"source" : [ "obj-57", 0 ]
				}

			}
, 			{
				"patchline" : 				{
					"destination" : [ "obj-10", 0 ],
					"order" : 1,
					"source" : [ "obj-57", 0 ]
				}

			}
, 			{
				"patchline" : 				{
					"destination" : [ "obj-33", 0 ],
					"source" : [ "obj-6", 0 ]
				}

			}
, 			{
				"patchline" : 				{
					"destination" : [ "obj-175", 0 ],
					"source" : [ "obj-64", 0 ]
				}

			}
, 			{
				"patchline" : 				{
					"destination" : [ "obj-33", 0 ],
					"source" : [ "obj-7", 0 ]
				}

			}
, 			{
				"patchline" : 				{
					"destination" : [ "obj-180", 0 ],
					"source" : [ "obj-77", 0 ]
				}

			}
, 			{
				"patchline" : 				{
					"destination" : [ "obj-232", 0 ],
					"order" : 1,
					"source" : [ "obj-85", 0 ]
				}

			}
, 			{
				"patchline" : 				{
					"destination" : [ "obj-57", 0 ],
					"order" : 0,
					"source" : [ "obj-85", 0 ]
				}

			}
, 			{
				"patchline" : 				{
					"destination" : [ "obj-20", 0 ],
					"source" : [ "obj-9", 0 ]
				}

			}
 ],
		"originid" : "pat-43536",
		"parameters" : 		{
			"obj-10" : [ "gain[5]", "player 1", 0 ],
			"obj-13::obj-1" : [ "live.dial[7]", "threshold", 0 ],
			"obj-13::obj-58" : [ "live.dial[39]", "window", 0 ],
			"obj-13::obj-59" : [ "live.dial[9]", "lockout", 0 ],
			"obj-13::obj-8" : [ "live.menu[1]", "live.menu", 0 ],
			"obj-16::obj-21" : [ "live.dial[32]", "lockout", 0 ],
			"obj-16::obj-23" : [ "live.dial[30]", "floor", 0 ],
			"obj-16::obj-25" : [ "live.dial[33]", "sensitivity", 0 ],
			"obj-16::obj-28::obj-19" : [ "live.gain~[2]", "live.gain~", 0 ],
			"obj-16::obj-28::obj-41" : [ "live.text[6]", "live.text", 0 ],
			"obj-16::obj-28::obj-5" : [ "live.tab", "live.tab", 0 ],
			"obj-16::obj-31" : [ "live.text[29]", "live.text", 0 ],
			"obj-16::obj-53::obj-3" : [ "live.tab[1]", "live.tab", 0 ],
			"obj-19::obj-77::obj-255" : [ "number[4]", "number[1]", 0 ],
			"obj-1::obj-14" : [ "live.menu", "live.menu", 0 ],
			"obj-1::obj-21" : [ "live.dial[17]", "speed", 0 ],
			"obj-1::obj-25" : [ "live.dial[24]", "pitch", 0 ],
			"obj-1::obj-26" : [ "live.dial[37]", "flatness", 0 ],
			"obj-1::obj-27" : [ "live.dial[22]", "loudness", 0 ],
			"obj-1::obj-28" : [ "live.dial[12]", "transpose", 0 ],
			"obj-1::obj-36" : [ "live.dial[38]", "centroid", 0 ],
			"obj-232::obj-104" : [ "live.drop[5]", "live.drop", 0 ],
			"obj-232::obj-11" : [ "loop[1]", "loop", 0 ],
			"obj-232::obj-126" : [ "lengthabsolute[1]", "lengthabsolute", 0 ],
			"obj-232::obj-128" : [ "startabsolute[1]", "startabsolute", 0 ],
			"obj-232::obj-138" : [ "voices[1]", "voices", 0 ],
			"obj-232::obj-140" : [ "steal[1]", "steal", 0 ],
			"obj-232::obj-167" : [ "gain[2]", "gain", 0 ],
			"obj-232::obj-173" : [ "absoluteview[1]", "absoluteview", 0 ],
			"obj-232::obj-193" : [ "pitch[1]", "pitch", 0 ],
			"obj-232::obj-197" : [ "timestretch[1]", "timestretch", 0 ],
			"obj-232::obj-2" : [ "out[1]", "out", 0 ],
			"obj-232::obj-216" : [ "tabopen[1]", "tabopen", 1 ],
			"obj-232::obj-255" : [ "speed[1]", "speed", 0 ],
			"obj-232::obj-38" : [ "in[1]", "in", 0 ],
			"obj-232::obj-46" : [ "incurve[1]", "incurve", 0 ],
			"obj-232::obj-52" : [ "algorithm[1]", "algorithm", 0 ],
			"obj-232::obj-55" : [ "start[1]", "start", 0 ],
			"obj-232::obj-58" : [ "length[1]", "length", 0 ],
			"obj-232::obj-67" : [ "outcurve[1]", "outcurve", 0 ],
			"obj-233" : [ "gain[3]", "player 1", 0 ],
			"obj-57::obj-104" : [ "live.drop[4]", "live.drop", 0 ],
			"obj-57::obj-11" : [ "loop", "loop", 0 ],
			"obj-57::obj-126" : [ "lengthabsolute", "lengthabsolute", 0 ],
			"obj-57::obj-128" : [ "startabsolute", "startabsolute", 0 ],
			"obj-57::obj-138" : [ "voices", "voices", 0 ],
			"obj-57::obj-140" : [ "steal", "steal", 0 ],
			"obj-57::obj-167" : [ "gain", "gain", 0 ],
			"obj-57::obj-173" : [ "absoluteview", "absoluteview", 0 ],
			"obj-57::obj-193" : [ "pitch", "pitch", 0 ],
			"obj-57::obj-197" : [ "timestretch", "timestretch", 0 ],
			"obj-57::obj-2" : [ "out", "out", 0 ],
			"obj-57::obj-216" : [ "tabopen", "tabopen", 1 ],
			"obj-57::obj-255" : [ "speed", "speed", 0 ],
			"obj-57::obj-38" : [ "in", "in", 0 ],
			"obj-57::obj-46" : [ "incurve", "incurve", 0 ],
			"obj-57::obj-52" : [ "algorithm", "algorithm", 0 ],
			"obj-57::obj-55" : [ "start", "start", 0 ],
			"obj-57::obj-58" : [ "length", "length", 0 ],
			"obj-57::obj-67" : [ "outcurve", "outcurve", 0 ],
			"parameterbanks" : 			{
				"0" : 				{
					"index" : 0,
					"name" : "",
					"parameters" : [ "-", "-", "-", "-", "-", "-", "-", "-" ]
				}

			}
,
			"parameter_overrides" : 			{
				"obj-13::obj-58" : 				{
					"parameter_longname" : "live.dial[39]"
				}
,
				"obj-13::obj-8" : 				{
					"parameter_longname" : "live.menu[1]"
				}
,
				"obj-16::obj-28::obj-19" : 				{
					"parameter_longname" : "live.gain~[2]"
				}
,
				"obj-16::obj-28::obj-41" : 				{
					"parameter_longname" : "live.text[6]"
				}
,
				"obj-16::obj-53::obj-3" : 				{
					"parameter_invisible" : 0,
					"parameter_modmode" : 0,
					"parameter_range" : [ "pluck", "col_legno", "knock", "bow" ],
					"parameter_type" : 2,
					"parameter_unitstyle" : 9
				}
,
				"obj-1::obj-21" : 				{
					"parameter_longname" : "live.dial[17]"
				}
,
				"obj-232::obj-104" : 				{
					"parameter_longname" : "live.drop[5]"
				}
,
				"obj-232::obj-11" : 				{
					"parameter_longname" : "loop[1]"
				}
,
				"obj-232::obj-126" : 				{
					"parameter_longname" : "lengthabsolute[1]"
				}
,
				"obj-232::obj-128" : 				{
					"parameter_longname" : "startabsolute[1]"
				}
,
				"obj-232::obj-138" : 				{
					"parameter_longname" : "voices[1]"
				}
,
				"obj-232::obj-140" : 				{
					"parameter_longname" : "steal[1]"
				}
,
				"obj-232::obj-167" : 				{
					"parameter_longname" : "gain[2]"
				}
,
				"obj-232::obj-173" : 				{
					"parameter_longname" : "absoluteview[1]"
				}
,
				"obj-232::obj-193" : 				{
					"parameter_longname" : "pitch[1]"
				}
,
				"obj-232::obj-197" : 				{
					"parameter_longname" : "timestretch[1]"
				}
,
				"obj-232::obj-2" : 				{
					"parameter_longname" : "out[1]"
				}
,
				"obj-232::obj-216" : 				{
					"parameter_longname" : "tabopen[1]"
				}
,
				"obj-232::obj-255" : 				{
					"parameter_longname" : "speed[1]"
				}
,
				"obj-232::obj-38" : 				{
					"parameter_longname" : "in[1]"
				}
,
				"obj-232::obj-46" : 				{
					"parameter_longname" : "incurve[1]"
				}
,
				"obj-232::obj-52" : 				{
					"parameter_longname" : "algorithm[1]"
				}
,
				"obj-232::obj-55" : 				{
					"parameter_longname" : "start[1]"
				}
,
				"obj-232::obj-58" : 				{
					"parameter_longname" : "length[1]"
				}
,
				"obj-232::obj-67" : 				{
					"parameter_longname" : "outcurve[1]"
				}

			}
,
			"inherited_shortname" : 1
		}
,
		"dependency_cache" : [ 			{
				"name" : "__kitchen_sink_looper.maxpat",
				"bootpath" : "~/Documents/Max 9/Projects/sp-tools/patchers",
				"patcherrelativepath" : ".",
				"type" : "JSON",
				"implicit" : 1
			}
, 			{
				"name" : "_adc.maxpat",
				"bootpath" : "~/Documents/Max 9/Projects/sp-tools/patchers",
				"patcherrelativepath" : ".",
				"type" : "JSON",
				"implicit" : 1
			}
, 			{
				"name" : "_novelty.maxpat",
				"bootpath" : "~/Documents/Max 9/Projects/sp-tools/patchers",
				"patcherrelativepath" : ".",
				"type" : "JSON",
				"implicit" : 1
			}
, 			{
				"name" : "_shertler-kitchensink.maxpat",
				"bootpath" : "~/Documents/Max 9/Projects/sp-tools/patchers",
				"patcherrelativepath" : ".",
				"type" : "JSON",
				"implicit" : 1
			}
, 			{
				"name" : "cello-schertler-dpa-timbres.wav",
				"bootpath" : "~/Dropbox/audio",
				"patcherrelativepath" : "../../../../../Dropbox/audio",
				"type" : "WAVE",
				"implicit" : 1
			}
, 			{
				"name" : "dk.ArrowOff.svg",
				"bootpath" : "~/Documents/Max 9/Library/DK - alpha B/Data Knot - alpha B/media/Icons",
				"patcherrelativepath" : "../../../Library/DK - alpha B/Data Knot - alpha B/media/Icons",
				"type" : "svg",
				"implicit" : 1
			}
, 			{
				"name" : "dk.ArrowOn.svg",
				"bootpath" : "~/Documents/Max 9/Library/DK - alpha B/Data Knot - alpha B/media/Icons",
				"patcherrelativepath" : "../../../Library/DK - alpha B/Data Knot - alpha B/media/Icons",
				"type" : "svg",
				"implicit" : 1
			}
, 			{
				"name" : "dk.classifierdisplay.maxpat",
				"bootpath" : "~/Documents/Max 9/Library/DK - alpha B/Data Knot - alpha B/patchers",
				"patcherrelativepath" : "../../../Library/DK - alpha B/Data Knot - alpha B/patchers",
				"type" : "JSON",
				"implicit" : 1
			}
, 			{
				"name" : "dk.classkitchensink~.maxpat",
				"bootpath" : "~/Documents/Max 9/Library/DK - alpha B/Data Knot - alpha B/patchers",
				"patcherrelativepath" : "../../../Library/DK - alpha B/Data Knot - alpha B/patchers",
				"type" : "JSON",
				"implicit" : 1
			}
, 			{
				"name" : "dk.classmatch.maxpat",
				"bootpath" : "~/Documents/Max 9/Library/DK - alpha B/Data Knot - alpha B/patchers",
				"patcherrelativepath" : "../../../Library/DK - alpha B/Data Knot - alpha B/patchers",
				"type" : "JSON",
				"implicit" : 1
			}
, 			{
				"name" : "dk.controllers.maxpat",
				"bootpath" : "~/Documents/Max 9/Library/DK - alpha B/Data Knot - alpha B/patchers",
				"patcherrelativepath" : "../../../Library/DK - alpha B/Data Knot - alpha B/patchers",
				"type" : "JSON",
				"implicit" : 1
			}
, 			{
				"name" : "dk.convolver~.maxpat",
				"bootpath" : "~/Documents/Max 9/Library/DK - alpha B/Data Knot - alpha B/patchers",
				"patcherrelativepath" : "../../../Library/DK - alpha B/Data Knot - alpha B/patchers",
				"type" : "JSON",
				"implicit" : 1
			}
, 			{
				"name" : "dk.corpusplayer~.maxpat",
				"bootpath" : "~/Documents/Max 9/Library/DK - alpha B/Data Knot - alpha B/patchers",
				"patcherrelativepath" : "../../../Library/DK - alpha B/Data Knot - alpha B/patchers",
				"type" : "JSON",
				"implicit" : 1
			}
, 			{
				"name" : "dk.datalooper~.maxpat",
				"bootpath" : "~/Documents/Max 9/Library/DK - alpha B/Data Knot - alpha B/patchers",
				"patcherrelativepath" : "../../../Library/DK - alpha B/Data Knot - alpha B/patchers",
				"type" : "JSON",
				"implicit" : 1
			}
, 			{
				"name" : "dk.datatranspose.maxpat",
				"bootpath" : "~/Documents/Max 9/Library/DK - alpha B/Data Knot - alpha B/patchers",
				"patcherrelativepath" : "../../../Library/DK - alpha B/Data Knot - alpha B/patchers",
				"type" : "JSON",
				"implicit" : 1
			}
, 			{
				"name" : "dk.descriptorframe.maxpat",
				"bootpath" : "~/Documents/Max 9/Library/DK - alpha B/Data Knot - alpha B/patchers",
				"patcherrelativepath" : "../../../Library/DK - alpha B/Data Knot - alpha B/patchers",
				"type" : "JSON",
				"implicit" : 1
			}
, 			{
				"name" : "dk.loopIconImageOff.svg",
				"bootpath" : "~/Documents/Max 9/Library/DK - alpha B/Data Knot - alpha B/media/Icons",
				"patcherrelativepath" : "../../../Library/DK - alpha B/Data Knot - alpha B/media/Icons",
				"type" : "svg",
				"implicit" : 1
			}
, 			{
				"name" : "dk.loopIconImageOn.svg",
				"bootpath" : "~/Documents/Max 9/Library/DK - alpha B/Data Knot - alpha B/media/Icons",
				"patcherrelativepath" : "../../../Library/DK - alpha B/Data Knot - alpha B/media/Icons",
				"type" : "svg",
				"implicit" : 1
			}
, 			{
				"name" : "dk.melbandframe.maxpat",
				"bootpath" : "~/Documents/Max 9/Library/DK - alpha B/Data Knot - alpha B/patchers",
				"patcherrelativepath" : "../../../Library/DK - alpha B/Data Knot - alpha B/patchers",
				"type" : "JSON",
				"implicit" : 1
			}
, 			{
				"name" : "dk.mfccframe.maxpat",
				"bootpath" : "~/Documents/Max 9/Library/DK - alpha B/Data Knot - alpha B/patchers",
				"patcherrelativepath" : "../../../Library/DK - alpha B/Data Knot - alpha B/patchers",
				"type" : "JSON",
				"implicit" : 1
			}
, 			{
				"name" : "dk.multiconvolve~.mxo",
				"type" : "iLaX"
			}
, 			{
				"name" : "dk.novelty~.maxpat",
				"bootpath" : "~/Documents/Max 9/Library/DK - alpha B/Data Knot - alpha B/patchers",
				"patcherrelativepath" : "../../../Library/DK - alpha B/Data Knot - alpha B/patchers",
				"type" : "JSON",
				"implicit" : 1
			}
, 			{
				"name" : "dk.onsetframe~.maxpat",
				"bootpath" : "~/Documents/Max 9/Library/DK - alpha B/Data Knot - alpha B/patchers",
				"patcherrelativepath" : "../../../Library/DK - alpha B/Data Knot - alpha B/patchers",
				"type" : "JSON",
				"implicit" : 1
			}
, 			{
				"name" : "dk.onset~.maxpat",
				"bootpath" : "~/Documents/Max 9/Library/DK - alpha B/Data Knot - alpha B/patchers",
				"patcherrelativepath" : "../../../Library/DK - alpha B/Data Knot - alpha B/patchers",
				"type" : "JSON",
				"implicit" : 1
			}
, 			{
				"name" : "dk.plotter.js",
				"bootpath" : "~/Documents/Max 9/Library/DK - alpha B/Data Knot - alpha B/jsui",
				"patcherrelativepath" : "../../../Library/DK - alpha B/Data Knot - alpha B/jsui",
				"type" : "TEXT",
				"implicit" : 1
			}
, 			{
				"name" : "dk.plotter.maxpat",
				"bootpath" : "~/Documents/Max 9/Library/DK - alpha B/Data Knot - alpha B/patchers",
				"patcherrelativepath" : "../../../Library/DK - alpha B/Data Knot - alpha B/patchers",
				"type" : "JSON",
				"implicit" : 1
			}
, 			{
				"name" : "dk.quantizetime~.maxpat",
				"bootpath" : "~/Documents/Max 9/Library/DK - alpha B/Data Knot - alpha B/patchers",
				"patcherrelativepath" : "../../../Library/DK - alpha B/Data Knot - alpha B/patchers",
				"type" : "JSON",
				"implicit" : 1
			}
, 			{
				"name" : "dk.sampler~.maxpat",
				"bootpath" : "~/Documents/Max 9/Library/DK - alpha B/Data Knot - alpha B/patchers",
				"patcherrelativepath" : "../../../Library/DK - alpha B/Data Knot - alpha B/patchers",
				"type" : "JSON",
				"implicit" : 1
			}
, 			{
				"name" : "dk.spectralonset~.maxpat",
				"bootpath" : "~/Documents/Max 9/Library/DK - alpha B/Data Knot - alpha B/patchers",
				"patcherrelativepath" : "../../../Library/DK - alpha B/Data Knot - alpha B/patchers",
				"type" : "JSON",
				"implicit" : 1
			}
, 			{
				"name" : "dk.triggeralign~.maxpat",
				"bootpath" : "~/Documents/Max 9/Library/DK - alpha B/Data Knot - alpha B/patchers",
				"patcherrelativepath" : "../../../Library/DK - alpha B/Data Knot - alpha B/patchers",
				"type" : "JSON",
				"implicit" : 1
			}
, 			{
				"name" : "dk.widgetadstatussr.maxpat",
				"bootpath" : "~/Documents/Max 9/Library/DK - alpha B/Data Knot - alpha B/misc/Misc",
				"patcherrelativepath" : "../../../Library/DK - alpha B/Data Knot - alpha B/misc/Misc",
				"type" : "JSON",
				"implicit" : 1
			}
, 			{
				"name" : "dk.widgetcrossbank~.maxpat",
				"bootpath" : "~/Documents/Max 9/Library/DK - alpha B/Data Knot - alpha B/misc/Misc",
				"patcherrelativepath" : "../../../Library/DK - alpha B/Data Knot - alpha B/misc/Misc",
				"type" : "JSON",
				"implicit" : 1
			}
, 			{
				"name" : "dk.widgetonsetfeaturecore~.maxpat",
				"bootpath" : "~/Documents/Max 9/Library/DK - alpha B/Data Knot - alpha B/misc/Misc",
				"patcherrelativepath" : "../../../Library/DK - alpha B/Data Knot - alpha B/misc/Misc",
				"type" : "JSON",
				"implicit" : 1
			}
, 			{
				"name" : "dk.widgetplaybackcore~.maxpat",
				"bootpath" : "~/Documents/Max 9/Library/DK - alpha B/Data Knot - alpha B/misc/Misc",
				"patcherrelativepath" : "../../../Library/DK - alpha B/Data Knot - alpha B/misc/Misc",
				"type" : "JSON",
				"implicit" : 1
			}
, 			{
				"name" : "dk.widgetwaveformdisplay.maxpat",
				"bootpath" : "~/Documents/Max 9/Library/DK - alpha B/Data Knot - alpha B/misc/Misc",
				"patcherrelativepath" : "../../../Library/DK - alpha B/Data Knot - alpha B/misc/Misc",
				"type" : "JSON",
				"implicit" : 1
			}
, 			{
				"name" : "fluid.ampfeature~.mxo",
				"type" : "iLaX"
			}
, 			{
				"name" : "fluid.buf2list.mxo",
				"type" : "iLaX"
			}
, 			{
				"name" : "fluid.bufflatten~.mxo",
				"type" : "iLaX"
			}
, 			{
				"name" : "fluid.bufloudness~.mxo",
				"type" : "iLaX"
			}
, 			{
				"name" : "fluid.bufmelbands~.mxo",
				"type" : "iLaX"
			}
, 			{
				"name" : "fluid.bufmfcc~.mxo",
				"type" : "iLaX"
			}
, 			{
				"name" : "fluid.bufpitch~.mxo",
				"type" : "iLaX"
			}
, 			{
				"name" : "fluid.bufscale~.mxo",
				"type" : "iLaX"
			}
, 			{
				"name" : "fluid.bufselectevery~.mxo",
				"type" : "iLaX"
			}
, 			{
				"name" : "fluid.bufspectralshape~.mxo",
				"type" : "iLaX"
			}
, 			{
				"name" : "fluid.bufstats~.mxo",
				"type" : "iLaX"
			}
, 			{
				"name" : "fluid.datasetquery~.mxo",
				"type" : "iLaX"
			}
, 			{
				"name" : "fluid.dataset~.mxo",
				"type" : "iLaX"
			}
, 			{
				"name" : "fluid.kdtree~.mxo",
				"type" : "iLaX"
			}
, 			{
				"name" : "fluid.knnclassifier~.mxo",
				"type" : "iLaX"
			}
, 			{
				"name" : "fluid.labelset~.mxo",
				"type" : "iLaX"
			}
, 			{
				"name" : "fluid.list2buf.mxo",
				"type" : "iLaX"
			}
, 			{
				"name" : "fluid.mlpclassifier~.mxo",
				"type" : "iLaX"
			}
, 			{
				"name" : "fluid.normalize~.mxo",
				"type" : "iLaX"
			}
, 			{
				"name" : "fluid.noveltyfeature~.mxo",
				"type" : "iLaX"
			}
, 			{
				"name" : "fluid.onsetfeature~.mxo",
				"type" : "iLaX"
			}
, 			{
				"name" : "fluid.pca~.mxo",
				"type" : "iLaX"
			}
, 			{
				"name" : "fluid.umap~.mxo",
				"type" : "iLaX"
			}
, 			{
				"name" : "hipodromo-performance.json",
				"bootpath" : "~/Documents/Max 9/Projects/sp-tools/presets",
				"patcherrelativepath" : "../presets",
				"type" : "JSON",
				"implicit" : 1
			}
, 			{
				"name" : "recenterBpatcherWindow.js",
				"bootpath" : "~/Documents/Max 9/Library/DK - alpha B/Data Knot - alpha B/javascript",
				"patcherrelativepath" : "../../../Library/DK - alpha B/Data Knot - alpha B/javascript",
				"type" : "TEXT",
				"implicit" : 1
			}
, 			{
				"name" : "resizeBpatcherWindow.js",
				"bootpath" : "~/Documents/Max 9/Library/DK - alpha B/Data Knot - alpha B/javascript",
				"patcherrelativepath" : "../../../Library/DK - alpha B/Data Knot - alpha B/javascript",
				"type" : "TEXT",
				"implicit" : 1
			}
, 			{
				"name" : "samplerRampFadeDisplay.js",
				"bootpath" : "~/Documents/Max 9/Library/DK - alpha B/Data Knot - alpha B/jsui",
				"patcherrelativepath" : "../../../Library/DK - alpha B/Data Knot - alpha B/jsui",
				"type" : "TEXT",
				"implicit" : 1
			}
 ],
		"autosave" : 0
	}

}
