{
	"patcher" : 	{
		"fileversion" : 1,
		"appversion" : 		{
			"major" : 8,
			"minor" : 5,
			"revision" : 0,
			"architecture" : "x64",
			"modernui" : 1
		}
,
		"classnamespace" : "box",
		"rect" : [ 34.0, 87.0, 1612.0, 929.0 ],
		"bglocked" : 0,
		"openinpresentation" : 0,
		"default_fontsize" : 12.0,
		"default_fontface" : 0,
		"default_fontname" : "Arial",
		"gridonopen" : 1,
		"gridsize" : [ 15.0, 15.0 ],
		"gridsnaponopen" : 1,
		"objectsnaponopen" : 1,
		"statusbarvisible" : 2,
		"toolbarvisible" : 1,
		"lefttoolbarpinned" : 0,
		"toptoolbarpinned" : 0,
		"righttoolbarpinned" : 0,
		"bottomtoolbarpinned" : 0,
		"toolbars_unpinned_last_save" : 0,
		"tallnewobj" : 0,
		"boxanimatetime" : 200,
		"enablehscroll" : 1,
		"enablevscroll" : 1,
		"devicewidth" : 0.0,
		"description" : "",
		"digest" : "",
		"tags" : "",
		"style" : "",
		"subpatcher_template" : "",
		"assistshowspatchername" : 0,
		"boxes" : [ 			{
				"box" : 				{
					"fontname" : "Ableton Sans Bold",
					"fontsize" : 16.0,
					"id" : "obj-25",
					"maxclass" : "comment",
					"numinlets" : 1,
					"numoutlets" : 0,
					"patching_rect" : [ 541.5, 0.0, 202.0, 26.0 ],
					"text" : "mixer",
					"textcolor" : [ 1.0, 0.709803921568627, 0.196078431372549, 1.0 ],
					"textjustification" : 1
				}

			}
, 			{
				"box" : 				{
					"fontname" : "Ableton Sans Bold",
					"fontsize" : 16.0,
					"id" : "obj-21",
					"maxclass" : "comment",
					"numinlets" : 1,
					"numoutlets" : 0,
					"patching_rect" : [ 541.5, 120.0, 202.0, 26.0 ],
					"text" : "presets",
					"textcolor" : [ 1.0, 0.709803921568627, 0.196078431372549, 1.0 ],
					"textjustification" : 1
				}

			}
, 			{
				"box" : 				{
					"id" : "obj-24",
					"maxclass" : "panel",
					"numinlets" : 1,
					"numoutlets" : 0,
					"patching_rect" : [ 405.0, 110.5, 475.0, 105.0 ]
				}

			}
, 			{
				"box" : 				{
					"bgmode" : 0,
					"border" : 0,
					"clickthrough" : 0,
					"enablehscroll" : 0,
					"enablevscroll" : 0,
					"id" : "obj-23",
					"lockeddragscroll" : 0,
					"lockedsize" : 0,
					"maxclass" : "bpatcher",
					"name" : "sp.descriptordisplay.maxpat",
					"numinlets" : 1,
					"numoutlets" : 1,
					"offset" : [ 0.0, 0.0 ],
					"outlettype" : [ "" ],
					"patching_rect" : [ 938.0, 330.0, 235.0, 235.0 ],
					"viewvisibility" : 1
				}

			}
, 			{
				"box" : 				{
					"bgmode" : 0,
					"border" : 0,
					"clickthrough" : 0,
					"enablehscroll" : 0,
					"enablevscroll" : 0,
					"id" : "obj-22",
					"lockeddragscroll" : 0,
					"lockedsize" : 0,
					"maxclass" : "bpatcher",
					"name" : "sp.descriptordisplay.maxpat",
					"numinlets" : 1,
					"numoutlets" : 1,
					"offset" : [ 0.0, 0.0 ],
					"outlettype" : [ "" ],
					"patching_rect" : [ 1178.0, 332.0, 235.0, 235.0 ],
					"viewvisibility" : 1
				}

			}
, 			{
				"box" : 				{
					"bgmode" : 0,
					"border" : 0,
					"clickthrough" : 0,
					"enablehscroll" : 0,
					"enablevscroll" : 0,
					"id" : "obj-20",
					"lockeddragscroll" : 0,
					"lockedsize" : 0,
					"maxclass" : "bpatcher",
					"name" : "sp.descriptordisplay.maxpat",
					"numinlets" : 1,
					"numoutlets" : 1,
					"offset" : [ 0.0, 0.0 ],
					"outlettype" : [ "" ],
					"patching_rect" : [ 518.0, 631.0, 350.0, 350.0 ],
					"viewvisibility" : 1
				}

			}
, 			{
				"box" : 				{
					"id" : "obj-18",
					"maxclass" : "panel",
					"numinlets" : 1,
					"numoutlets" : 0,
					"patching_rect" : [ 405.0, 0.0, 475.0, 105.0 ]
				}

			}
, 			{
				"box" : 				{
					"bgmode" : 0,
					"border" : 0,
					"clickthrough" : 0,
					"enablehscroll" : 0,
					"enablevscroll" : 0,
					"id" : "obj-17",
					"lockeddragscroll" : 0,
					"lockedsize" : 0,
					"maxclass" : "bpatcher",
					"name" : "sp.descriptordisplay.maxpat",
					"numinlets" : 1,
					"numoutlets" : 1,
					"offset" : [ 0.0, 0.0 ],
					"outlettype" : [ "" ],
					"patching_rect" : [ 15.0, 686.0, 169.0, 169.0 ],
					"viewvisibility" : 1
				}

			}
, 			{
				"box" : 				{
					"id" : "obj-15",
					"maxclass" : "newobj",
					"numinlets" : 1,
					"numoutlets" : 1,
					"outlettype" : [ "" ],
					"patching_rect" : [ 917.0, 795.0, 77.0, 22.0 ],
					"text" : "prepend size"
				}

			}
, 			{
				"box" : 				{
					"id" : "obj-13",
					"maxclass" : "message",
					"numinlets" : 2,
					"numoutlets" : 1,
					"outlettype" : [ "" ],
					"patching_rect" : [ 1038.0, 750.38958883715668, 35.0, 22.0 ],
					"text" : "large"
				}

			}
, 			{
				"box" : 				{
					"id" : "obj-14",
					"maxclass" : "message",
					"numinlets" : 2,
					"numoutlets" : 1,
					"outlettype" : [ "" ],
					"patching_rect" : [ 971.0, 750.38958883715668, 51.0, 22.0 ],
					"text" : "medium"
				}

			}
, 			{
				"box" : 				{
					"id" : "obj-16",
					"maxclass" : "message",
					"numinlets" : 2,
					"numoutlets" : 1,
					"outlettype" : [ "" ],
					"patching_rect" : [ 917.0, 750.38958883715668, 37.0, 22.0 ],
					"text" : "small"
				}

			}
, 			{
				"box" : 				{
					"id" : "obj-12",
					"maxclass" : "message",
					"numinlets" : 2,
					"numoutlets" : 1,
					"outlettype" : [ "" ],
					"patching_rect" : [ 870.0, 600.0, 61.0, 22.0 ],
					"text" : "size small"
				}

			}
, 			{
				"box" : 				{
					"bgmode" : 0,
					"border" : 0,
					"clickthrough" : 0,
					"enablehscroll" : 0,
					"enablevscroll" : 0,
					"id" : "obj-10",
					"lockeddragscroll" : 0,
					"lockedsize" : 0,
					"maxclass" : "bpatcher",
					"name" : "sp.descriptordisplay.maxpat",
					"numinlets" : 1,
					"numoutlets" : 1,
					"offset" : [ 0.0, 0.0 ],
					"outlettype" : [ "" ],
					"patching_rect" : [ 186.0, 686.0, 169.0, 169.0 ],
					"viewvisibility" : 1
				}

			}
, 			{
				"box" : 				{
					"id" : "obj-7",
					"maxclass" : "panel",
					"numinlets" : 1,
					"numoutlets" : 0,
					"patching_rect" : [ 1260.0, 0.0, 330.0, 930.0 ]
				}

			}
, 			{
				"box" : 				{
					"fontname" : "Ableton Sans Bold",
					"fontsize" : 16.0,
					"id" : "obj-6",
					"maxclass" : "comment",
					"numinlets" : 1,
					"numoutlets" : 0,
					"patching_rect" : [ 45.0, 540.0, 202.0, 26.0 ],
					"text" : "evelope / gate",
					"textcolor" : [ 1.0, 0.709803921568627, 0.196078431372549, 1.0 ],
					"textjustification" : 1
				}

			}
, 			{
				"box" : 				{
					"fontname" : "Ableton Sans Bold",
					"fontsize" : 16.0,
					"id" : "obj-5",
					"maxclass" : "comment",
					"numinlets" : 1,
					"numoutlets" : 0,
					"patching_rect" : [ 45.0, 345.0, 202.0, 26.0 ],
					"text" : "classifier ui",
					"textcolor" : [ 1.0, 0.709803921568627, 0.196078431372549, 1.0 ],
					"textjustification" : 1
				}

			}
, 			{
				"box" : 				{
					"fontname" : "Ableton Sans Bold",
					"fontsize" : 16.0,
					"id" : "obj-4",
					"maxclass" : "comment",
					"numinlets" : 1,
					"numoutlets" : 0,
					"patching_rect" : [ 45.0, 150.0, 202.0, 26.0 ],
					"text" : "onset threshold",
					"textcolor" : [ 1.0, 0.709803921568627, 0.196078431372549, 1.0 ],
					"textjustification" : 1
				}

			}
, 			{
				"box" : 				{
					"fontname" : "Ableton Sans Bold",
					"fontsize" : 16.0,
					"id" : "obj-3",
					"maxclass" : "comment",
					"numinlets" : 1,
					"numoutlets" : 0,
					"patching_rect" : [ 45.0, 0.0, 202.0, 26.0 ],
					"text" : "input channels",
					"textcolor" : [ 1.0, 0.709803921568627, 0.196078431372549, 1.0 ],
					"textjustification" : 1
				}

			}
, 			{
				"box" : 				{
					"angle" : 270.0,
					"grad1" : [ 0.411764705882353, 0.411764705882353, 0.411764705882353, 1.0 ],
					"grad2" : [ 0.647058823529412, 0.647058823529412, 0.647058823529412, 1.0 ],
					"id" : "obj-1",
					"maxclass" : "panel",
					"mode" : 1,
					"numinlets" : 1,
					"numoutlets" : 0,
					"patching_rect" : [ 0.0, 0.0, 390.0, 930.0 ],
					"proportion" : 0.5
				}

			}
 ],
		"lines" : [ 			{
				"patchline" : 				{
					"destination" : [ "obj-10", 0 ],
					"order" : 1,
					"source" : [ "obj-12", 0 ]
				}

			}
, 			{
				"patchline" : 				{
					"destination" : [ "obj-17", 0 ],
					"order" : 0,
					"source" : [ "obj-12", 0 ]
				}

			}
, 			{
				"patchline" : 				{
					"destination" : [ "obj-15", 0 ],
					"midpoints" : [ 1047.5, 783.19479441857834, 926.5, 783.19479441857834 ],
					"source" : [ "obj-13", 0 ]
				}

			}
, 			{
				"patchline" : 				{
					"destination" : [ "obj-15", 0 ],
					"midpoints" : [ 980.5, 783.19479441857834, 926.5, 783.19479441857834 ],
					"source" : [ "obj-14", 0 ]
				}

			}
, 			{
				"patchline" : 				{
					"destination" : [ "obj-20", 0 ],
					"source" : [ "obj-15", 0 ]
				}

			}
, 			{
				"patchline" : 				{
					"destination" : [ "obj-15", 0 ],
					"source" : [ "obj-16", 0 ]
				}

			}
 ],
		"parameters" : 		{
			"obj-10::obj-61" : [ "live.numbox[4]", "live.numbox", 0 ],
			"obj-10::obj-64" : [ "live.numbox[5]", "live.numbox", 0 ],
			"obj-10::obj-67" : [ "live.numbox[6]", "live.numbox", 0 ],
			"obj-10::obj-68" : [ "live.numbox[7]", "live.numbox", 0 ],
			"obj-17::obj-61" : [ "live.numbox[9]", "live.numbox", 0 ],
			"obj-17::obj-64" : [ "live.numbox[10]", "live.numbox", 0 ],
			"obj-17::obj-67" : [ "live.numbox[1]", "live.numbox", 0 ],
			"obj-17::obj-68" : [ "live.numbox[8]", "live.numbox", 0 ],
			"obj-20::obj-61" : [ "live.numbox[11]", "live.numbox", 0 ],
			"obj-20::obj-64" : [ "live.numbox[13]", "live.numbox", 0 ],
			"obj-20::obj-67" : [ "live.numbox[15]", "live.numbox", 0 ],
			"obj-20::obj-68" : [ "live.numbox[14]", "live.numbox", 0 ],
			"obj-22::obj-61" : [ "live.numbox[17]", "live.numbox", 0 ],
			"obj-22::obj-64" : [ "live.numbox[18]", "live.numbox", 0 ],
			"obj-22::obj-67" : [ "live.numbox[12]", "live.numbox", 0 ],
			"obj-22::obj-68" : [ "live.numbox[16]", "live.numbox", 0 ],
			"obj-23::obj-61" : [ "live.numbox[19]", "live.numbox", 0 ],
			"obj-23::obj-64" : [ "live.numbox[20]", "live.numbox", 0 ],
			"obj-23::obj-67" : [ "live.numbox[21]", "live.numbox", 0 ],
			"obj-23::obj-68" : [ "live.numbox[22]", "live.numbox", 0 ],
			"parameterbanks" : 			{
				"0" : 				{
					"index" : 0,
					"name" : "",
					"parameters" : [ "-", "-", "-", "-", "-", "-", "-", "-" ]
				}

			}
,
			"parameter_overrides" : 			{
				"obj-17::obj-61" : 				{
					"parameter_longname" : "live.numbox[9]"
				}
,
				"obj-17::obj-64" : 				{
					"parameter_longname" : "live.numbox[10]"
				}
,
				"obj-17::obj-67" : 				{
					"parameter_longname" : "live.numbox[1]"
				}
,
				"obj-17::obj-68" : 				{
					"parameter_longname" : "live.numbox[8]"
				}
,
				"obj-20::obj-61" : 				{
					"parameter_longname" : "live.numbox[11]"
				}
,
				"obj-20::obj-64" : 				{
					"parameter_longname" : "live.numbox[13]"
				}
,
				"obj-20::obj-67" : 				{
					"parameter_longname" : "live.numbox[15]"
				}
,
				"obj-20::obj-68" : 				{
					"parameter_longname" : "live.numbox[14]"
				}
,
				"obj-22::obj-61" : 				{
					"parameter_longname" : "live.numbox[17]"
				}
,
				"obj-22::obj-64" : 				{
					"parameter_longname" : "live.numbox[18]"
				}
,
				"obj-22::obj-67" : 				{
					"parameter_longname" : "live.numbox[12]"
				}
,
				"obj-22::obj-68" : 				{
					"parameter_longname" : "live.numbox[16]"
				}
,
				"obj-23::obj-61" : 				{
					"parameter_longname" : "live.numbox[19]"
				}
,
				"obj-23::obj-64" : 				{
					"parameter_longname" : "live.numbox[20]"
				}
,
				"obj-23::obj-67" : 				{
					"parameter_longname" : "live.numbox[21]"
				}
,
				"obj-23::obj-68" : 				{
					"parameter_longname" : "live.numbox[22]"
				}

			}
,
			"inherited_shortname" : 1
		}
,
		"dependency_cache" : [ 			{
				"name" : "fluid.buf2list.mxo",
				"type" : "iLaX"
			}
, 			{
				"name" : "fluid.bufselectevery~.mxo",
				"type" : "iLaX"
			}
, 			{
				"name" : "fluid.list2buf.mxo",
				"type" : "iLaX"
			}
, 			{
				"name" : "recenterBpatcherWindow.js",
				"bootpath" : "~/Documents/Max 8/Library/SP-Tools/javascript",
				"patcherrelativepath" : "../../../Library/SP-Tools/javascript",
				"type" : "TEXT",
				"implicit" : 1
			}
, 			{
				"name" : "resizeBpatcherWindow.js",
				"bootpath" : "~/Documents/Max 8/Library/SP-Tools/javascript",
				"patcherrelativepath" : "../../../Library/SP-Tools/javascript",
				"type" : "TEXT",
				"implicit" : 1
			}
, 			{
				"name" : "sp.descriptordisplay.maxpat",
				"bootpath" : "~/Documents/Max 8/Library/SP-Tools/patchers",
				"patcherrelativepath" : "../../../Library/SP-Tools/patchers",
				"type" : "JSON",
				"implicit" : 1
			}
 ],
		"autosave" : 0
	}

}
